<svg width="21" height="22" viewBox="0 0 21 22" fill="none" xmlns="http://www.w3.org/2000/svg">
<path d="M10.6675 14C12.3243 14 13.6675 12.6569 13.6675 11C13.6675 9.34315 12.3243 8 10.6675 8C9.01063 8 7.66748 9.34315 7.66748 11C7.66748 12.6569 9.01063 14 10.6675 14Z" stroke="#B9C0D4" stroke-width="2" stroke-linecap="round" stroke-linejoin="round"/>
<path d="M7.95657 18.3711L8.54101 19.6856C8.71475 20.0768 8.99829 20.4093 9.35724 20.6426C9.71618 20.8759 10.1351 21.0001 10.5632 21C10.9913 21.0001 11.4103 20.8759 11.7692 20.6426C12.1282 20.4093 12.4117 20.0768 12.5855 19.6856L13.1699 18.3711C13.3779 17.9047 13.7279 17.5159 14.1699 17.26C14.6147 17.0034 15.1292 16.8941 15.6399 16.9478L17.0699 17.1C17.4956 17.145 17.9252 17.0656 18.3066 16.8713C18.688 16.6771 19.0049 16.3763 19.2188 16.0056C19.433 15.635 19.535 15.2103 19.5125 14.7829C19.49 14.3555 19.344 13.9438 19.0921 13.5978L18.2455 12.4344C17.944 12.0171 17.7829 11.5148 17.7855 11C17.7854 10.4866 17.948 9.98635 18.2499 9.57111L19.0966 8.40778C19.3484 8.06175 19.4945 7.65007 19.517 7.22267C19.5394 6.79528 19.4374 6.37054 19.2232 6C19.0093 5.62923 18.6925 5.32849 18.311 5.13423C17.9296 4.93997 17.5 4.86053 17.0743 4.90556L15.6443 5.05778C15.1337 5.11141 14.6191 5.00212 14.1743 4.74556C13.7315 4.48825 13.3814 4.09736 13.1743 3.62889L12.5855 2.31444C12.4117 1.92317 12.1282 1.59072 11.7692 1.3574C11.4103 1.12408 10.9913 0.99993 10.5632 1C10.1351 0.99993 9.71618 1.12408 9.35724 1.3574C8.99829 1.59072 8.71475 1.92317 8.54101 2.31444L7.95657 3.62889C7.74949 4.09736 7.39944 4.48825 6.95657 4.74556C6.51178 5.00212 5.99723 5.11141 5.48657 5.05778L4.05212 4.90556C3.62645 4.86053 3.19686 4.93997 2.81544 5.13423C2.43401 5.32849 2.11714 5.62923 1.90323 6C1.68905 6.37054 1.58702 6.79528 1.6095 7.22267C1.63198 7.65007 1.77802 8.06175 2.0299 8.40778L2.87657 9.57111C3.17851 9.98635 3.3411 10.4866 3.34101 11C3.3411 11.5134 3.17851 12.0137 2.87657 12.4289L2.0299 13.5922C1.77802 13.9382 1.63198 14.3499 1.6095 14.7773C1.58702 15.2047 1.68905 15.6295 1.90323 16C2.11735 16.3706 2.43426 16.6712 2.81563 16.8654C3.197 17.0596 3.62648 17.1392 4.05212 17.0944L5.48212 16.9422C5.99279 16.8886 6.50734 16.9979 6.95212 17.2544C7.39665 17.511 7.74833 17.902 7.95657 18.3711Z" stroke="#B9C0D4" stroke-width="2" stroke-linecap="round" stroke-linejoin="round"/>
</svg>
