<svg width="17" height="26" viewBox="0 0 17 26" fill="none" xmlns="http://www.w3.org/2000/svg">
<path fill-rule="evenodd" clip-rule="evenodd" d="M1.15047 21.1588C2.68444 23.8773 5.43205 25.5 8.49998 25.5C11.5679 25.5 14.315 23.8773 15.8495 21.1588C17.3835 18.4409 17.3835 15.1955 15.8495 12.477L9.38544 1.023C8.99191 0.325664 8.00806 0.325666 7.61453 1.02301L1.15047 12.477C-0.383492 15.1949 -0.383492 18.4404 1.15047 21.1588ZM6.67906 6.47218L8.05722 4.03C8.25402 3.68132 8.74595 3.68132 8.94275 4.03L14.2447 13.4252C15.2188 15.1513 15.4017 17.149 14.7932 18.977C14.7299 18.6787 14.6414 18.3736 14.522 18.0653C13.7897 16.1745 12.1337 14.7154 9.59925 13.7283C7.85674 13.0521 6.7445 12.0576 6.29255 10.7722C5.71042 9.11547 6.31844 7.30885 6.67906 6.47218ZM4.329 10.6365L2.75522 13.4252C1.55606 15.5501 1.55606 18.0867 2.75522 20.2116C3.9544 22.3365 6.10164 23.6046 8.49998 23.6046C10.0929 23.6046 11.5755 23.0447 12.7429 22.046C12.8952 21.6539 13.3666 20.2184 12.7841 18.739C12.2462 17.3728 10.9515 16.2822 8.93587 15.4967C6.65743 14.6125 5.17718 13.2321 4.53709 11.3951C4.44893 11.1422 4.38043 10.8887 4.329 10.6365Z" fill="white"/>
</svg>
