<svg width="64" height="64" viewBox="0 0 64 64" fill="none" xmlns="http://www.w3.org/2000/svg">
<rect width="64" height="64" rx="24" fill="url(#paint0_radial_303_12507)"/>
<path d="M51.535 43.6404C47.5632 43.6404 43.8969 39.6625 42.0026 37.2145C40.1083 39.6625 36.442 43.6404 32.4702 43.6404C28.4984 43.6404 24.8321 39.6625 22.9378 37.2145C21.1658 39.6625 17.4995 43.6404 13.5276 43.6404C12.6722 43.6404 12 42.9672 12 42.1104C12 41.2536 12.6722 40.5804 13.5276 40.5804C16.7051 40.5804 20.6158 35.5009 21.7157 33.7261C22.0212 33.2977 22.5101 32.9917 22.9989 32.9917C23.4878 32.9917 24.0377 33.2365 24.2821 33.7261C25.382 35.5009 29.2927 40.5804 32.4702 40.5804C35.6477 40.5804 39.5584 35.5009 40.6583 33.7261C40.9638 33.2977 41.4527 32.9917 41.9415 32.9917C42.4914 32.9917 42.9803 33.2365 43.2247 33.7261C44.3246 35.5009 48.2353 40.5804 51.4128 40.5804C52.2683 40.5804 52.9404 41.2536 52.9404 42.1104C52.9404 42.9672 52.3905 43.6404 51.535 43.6404Z" fill="white"/>
<path d="M51.535 52.3307C47.5632 52.3307 43.8969 48.3528 42.0026 45.9048C40.1083 48.3528 36.442 52.3307 32.4702 52.3307C28.4984 52.3307 24.8321 48.3528 22.9378 45.9048C21.1658 48.3528 17.4995 52.3307 13.5276 52.3307C12.6722 52.3307 12 51.6575 12 50.8007C12 49.9439 12.6722 49.2708 13.5276 49.2708C16.7051 49.2708 20.6158 44.1912 21.7157 42.4164C22.0212 41.988 22.5101 41.682 22.9989 41.682C23.4878 41.682 24.0377 41.9268 24.2821 42.4164C25.382 44.1912 29.2927 49.2708 32.4702 49.2708C35.6477 49.2708 39.5584 44.1912 40.6583 42.4164C40.9638 41.988 41.4527 41.682 41.9415 41.682C42.4914 41.682 42.9803 41.9268 43.2247 42.4164C44.3246 44.1912 48.2353 49.2708 51.4128 49.2708C52.2683 49.2708 52.9404 49.9439 52.9404 50.8007C52.9404 51.6575 52.3905 52.3307 51.535 52.3307Z" fill="white"/>
<path d="M14.5664 36.6637C13.8332 36.6637 13.2221 36.1741 13.0388 35.4397C12.8555 34.2157 12.7333 32.9917 12.7333 31.8289C12.7333 20.8742 21.5935 12.0003 32.5313 12.0003C43.4691 11.9391 52.3294 20.8742 52.3294 31.8289C52.3294 33.0529 52.2072 34.2157 52.0238 35.3785C51.9016 36.2353 51.1073 36.7861 50.2518 36.6025C49.3963 36.4801 48.8464 35.6845 49.0297 34.8277C49.213 33.8485 49.2741 32.8081 49.2741 31.8289C49.2741 22.5878 41.7582 15.0603 32.5313 15.0603C23.3045 15.0603 15.7885 22.5266 15.7885 31.8289C15.7885 32.8693 15.9107 33.9097 16.0941 34.8889C16.2163 35.7457 15.7274 36.5413 14.872 36.6637C14.7497 36.6637 14.6275 36.6637 14.5664 36.6637Z" fill="white"/>
<defs>
<radialGradient id="paint0_radial_303_12507" cx="0" cy="0" r="1" gradientUnits="userSpaceOnUse" gradientTransform="translate(-9.65777e-07 7.40741) rotate(44.2296) scale(73.6278 73.7446)">
<stop stop-color="#0058DD"/>
<stop offset="1" stop-color="#67C8FF"/>
</radialGradient>
</defs>
</svg>
