<svg width="24" height="25" viewBox="0 0 24 25" fill="none" xmlns="http://www.w3.org/2000/svg">
<path d="M7.132 21.237C5.5757 20.37 4.27933 19.103 3.37705 17.5669C2.47477 16.0308 1.99935 14.2815 2 12.5C2 6.977 6.477 2.5 12 2.5C17.523 2.5 22 6.977 22 12.5C22.0006 14.2815 21.5252 16.0308 20.623 17.5669C19.7207 19.103 18.4243 20.37 16.868 21.237L15.972 19.446C17.503 18.5702 18.7016 17.2129 19.3814 15.5854C20.0612 13.9579 20.1841 12.1514 19.731 10.4468C19.2779 8.74217 18.2741 7.23511 16.8759 6.16C15.4776 5.08488 13.7633 4.50199 11.9995 4.50199C10.2357 4.50199 8.52136 5.08488 7.12312 6.16C5.72488 7.23511 4.72113 8.74217 4.268 10.4468C3.81488 12.1514 3.93779 13.9579 4.6176 15.5854C5.29742 17.2129 6.49603 18.5702 8.027 19.446L7.132 21.237ZM8.924 17.653C7.79634 16.9798 6.9207 15.9552 6.43143 14.7365C5.94215 13.5177 5.86627 12.1721 6.21543 10.906C6.56459 9.63997 7.31949 8.52345 8.36432 7.72776C9.40915 6.93208 10.6862 6.50117 11.9995 6.50117C13.3128 6.50117 14.5899 6.93208 15.6347 7.72776C16.6795 8.52345 17.4344 9.63997 17.7836 10.906C18.1327 12.1721 18.0568 13.5177 17.5676 14.7365C17.0783 15.9552 16.2027 16.9798 15.075 17.653L14.177 15.856C14.9008 15.3864 15.4534 14.6954 15.7523 13.8861C16.0512 13.0767 16.0804 12.1924 15.8355 11.3651C15.5907 10.5378 15.0849 9.81187 14.3937 9.29557C13.7024 8.77927 12.8628 8.50031 12 8.50031C11.1372 8.50031 10.2976 8.77927 9.60633 9.29557C8.91509 9.81187 8.40931 10.5378 8.16446 11.3651C7.91961 12.1924 7.94881 13.0767 8.24772 13.8861C8.54662 14.6954 9.0992 15.3864 9.823 15.856L8.924 17.653ZM12 16.5L15 22.5H9L12 16.5Z" fill="#3EA2F8"/>
</svg>
