<svg width="60" height="62" viewBox="0 0 60 62" fill="none" xmlns="http://www.w3.org/2000/svg">
<rect x="2" width="56" height="56" rx="28" fill="#FEE4E2"/>
<g clip-path="url(#clip0_661_29624)" filter="url(#filter0_d_661_29624)">
<path d="M30 18C35.52 18 40 22.48 40 28C40 33.52 35.52 38 30 38C24.48 38 20 33.52 20 28C20 22.48 24.48 18 30 18ZM30 36C34.42 36 38 32.42 38 28C38 23.58 34.42 20 30 20C25.58 20 22 23.58 22 28C22 32.42 25.58 36 30 36ZM31 28H34L30 32L26 28H29V24H31V28Z" fill="#F04438"/>
</g>
<defs>
<filter id="filter0_d_661_29624" x="-2" y="0" width="64" height="64" filterUnits="userSpaceOnUse" color-interpolation-filters="sRGB">
<feFlood flood-opacity="0" result="BackgroundImageFix"/>
<feColorMatrix in="SourceAlpha" type="matrix" values="0 0 0 0 0 0 0 0 0 0 0 0 0 0 0 0 0 0 127 0" result="hardAlpha"/>
<feOffset dy="4"/>
<feGaussianBlur stdDeviation="10"/>
<feColorMatrix type="matrix" values="0 0 0 0 0.941176 0 0 0 0 0.266667 0 0 0 0 0.219608 0 0 0 0.4 0"/>
<feBlend mode="normal" in2="BackgroundImageFix" result="effect1_dropShadow_661_29624"/>
<feBlend mode="normal" in="SourceGraphic" in2="effect1_dropShadow_661_29624" result="shape"/>
</filter>
<clipPath id="clip0_661_29624">
<rect width="24" height="24" fill="white" transform="translate(18 16)"/>
</clipPath>
</defs>
</svg>
