<svg width="30" height="30" viewBox="0 0 30 30" fill="none" xmlns="http://www.w3.org/2000/svg">
<path d="M7.00008 7.00033L9.66675 4.33366M9.66675 4.33366L7.00008 1.66699M9.66675 4.33366H7.00008C4.05456 4.33366 1.66675 6.72147 1.66675 9.66699M23.0001 23.0003L20.3334 25.667M20.3334 25.667L23.0001 28.3337M20.3334 25.667H23.0001C25.9456 25.667 28.3334 23.2792 28.3334 20.3337M12.5854 7.66699C13.4735 4.21654 16.6057 1.66699 20.3334 1.66699C24.7517 1.66699 28.3334 5.24871 28.3334 9.66699C28.3334 13.3946 25.7839 16.5268 22.3335 17.4149M17.6667 20.3337C17.6667 24.7519 14.085 28.3337 9.66675 28.3337C5.24847 28.3337 1.66675 24.7519 1.66675 20.3337C1.66675 15.9154 5.24847 12.3337 9.66675 12.3337C14.085 12.3337 17.6667 15.9154 17.6667 20.3337Z" stroke="#3EA2F8" stroke-width="3" stroke-linecap="round" stroke-linejoin="round"/>
</svg>
