<svg width="58" height="62" viewBox="0 0 58 62" fill="none" xmlns="http://www.w3.org/2000/svg">
<rect x="1" width="56" height="56" rx="28" fill="#EFF1F5"/>
<g clip-path="url(#clip0_661_29662)" filter="url(#filter0_d_661_29662)">
<path d="M28.9999 18C29.2652 18 29.5195 18.1054 29.707 18.2929C29.8946 18.4804 29.9999 18.7348 29.9999 19V22C29.9999 22.2652 29.8946 22.5196 29.707 22.7071C29.5195 22.8946 29.2652 23 28.9999 23C28.7347 23 28.4804 22.8946 28.2928 22.7071C28.1053 22.5196 27.9999 22.2652 27.9999 22V19C27.9999 18.7348 28.1053 18.4804 28.2928 18.2929C28.4804 18.1054 28.7347 18 28.9999 18ZM28.9999 33C29.2652 33 29.5195 33.1054 29.707 33.2929C29.8946 33.4804 29.9999 33.7348 29.9999 34V37C29.9999 37.2652 29.8946 37.5196 29.707 37.7071C29.5195 37.8946 29.2652 38 28.9999 38C28.7347 38 28.4804 37.8946 28.2928 37.7071C28.1053 37.5196 27.9999 37.2652 27.9999 37V34C27.9999 33.7348 28.1053 33.4804 28.2928 33.2929C28.4804 33.1054 28.7347 33 28.9999 33ZM37.6599 23C37.7925 23.2297 37.8285 23.5026 37.7598 23.7588C37.6912 24.015 37.5236 24.2334 37.2939 24.366L34.6959 25.866C34.5822 25.9327 34.4563 25.9762 34.3257 25.9941C34.195 26.012 34.0621 26.0038 33.9346 25.9701C33.8071 25.9364 33.6875 25.8778 33.5828 25.7977C33.478 25.7176 33.3901 25.6175 33.3242 25.5033C33.2582 25.3891 33.2155 25.263 33.1985 25.1322C33.1815 25.0014 33.1906 24.8686 33.2251 24.7413C33.2597 24.614 33.3191 24.4949 33.3999 24.3906C33.4807 24.2864 33.5813 24.1992 33.6959 24.134L36.2939 22.634C36.5236 22.5014 36.7966 22.4655 37.0527 22.5341C37.3089 22.6027 37.5273 22.7703 37.6599 23ZM24.6699 30.5C24.8025 30.7297 24.8385 31.0026 24.7698 31.2588C24.7012 31.515 24.5336 31.7334 24.3039 31.866L21.7059 33.366C21.5922 33.4327 21.4663 33.4762 21.3357 33.4941C21.205 33.512 21.0721 33.5038 20.9446 33.4701C20.8171 33.4364 20.6975 33.3778 20.5928 33.2977C20.488 33.2176 20.4001 33.1175 20.3342 33.0033C20.2682 32.8891 20.2255 32.763 20.2085 32.6322C20.1915 32.5014 20.2006 32.3686 20.2351 32.2413C20.2697 32.114 20.3291 31.9949 20.4099 31.8906C20.4907 31.7864 20.5913 31.6992 20.7059 31.634L23.3039 30.134C23.5336 30.0014 23.8066 29.9655 24.0627 30.0341C24.3189 30.1027 24.5373 30.2703 24.6699 30.5ZM37.6599 33C37.5273 33.2297 37.3089 33.3973 37.0527 33.4659C36.7966 33.5345 36.5236 33.4986 36.2939 33.366L33.6959 31.866C33.4681 31.7324 33.3024 31.5142 33.2349 31.2589C33.1674 31.0036 33.2036 30.732 33.3357 30.5033C33.4677 30.2746 33.6848 30.1074 33.9397 30.0383C34.1945 29.9691 34.4664 30.0035 34.6959 30.134L37.2939 31.634C37.5236 31.7666 37.6912 31.985 37.7598 32.2412C37.8285 32.4974 37.7925 32.7703 37.6599 33ZM24.6699 25.5C24.5373 25.7297 24.3189 25.8973 24.0627 25.9659C23.8066 26.0345 23.5336 25.9986 23.3039 25.866L20.7059 24.366C20.5913 24.3008 20.4907 24.2136 20.4099 24.1094C20.3291 24.0051 20.2697 23.886 20.2351 23.7587C20.2006 23.6314 20.1915 23.4986 20.2085 23.3678C20.2255 23.237 20.2682 23.1109 20.3342 22.9967C20.4001 22.8825 20.488 22.7824 20.5928 22.7023C20.6975 22.6222 20.8171 22.5636 20.9446 22.5299C21.0721 22.4962 21.205 22.488 21.3357 22.5059C21.4663 22.5238 21.5922 22.5673 21.7059 22.634L24.3039 24.134C24.5336 24.2666 24.7012 24.485 24.7698 24.7412C24.8385 24.9974 24.8025 25.2703 24.6699 25.5Z" fill="#5D6B98"/>
</g>
<defs>
<filter id="filter0_d_661_29662" x="-3" y="0" width="64" height="64" filterUnits="userSpaceOnUse" color-interpolation-filters="sRGB">
<feFlood flood-opacity="0" result="BackgroundImageFix"/>
<feColorMatrix in="SourceAlpha" type="matrix" values="0 0 0 0 0 0 0 0 0 0 0 0 0 0 0 0 0 0 127 0" result="hardAlpha"/>
<feOffset dy="4"/>
<feGaussianBlur stdDeviation="10"/>
<feColorMatrix type="matrix" values="0 0 0 0 0.364706 0 0 0 0 0.419608 0 0 0 0 0.596078 0 0 0 0.4 0"/>
<feBlend mode="normal" in2="BackgroundImageFix" result="effect1_dropShadow_661_29662"/>
<feBlend mode="normal" in="SourceGraphic" in2="effect1_dropShadow_661_29662" result="shape"/>
</filter>
<clipPath id="clip0_661_29662">
<rect width="24" height="24" fill="white" transform="translate(17 16)"/>
</clipPath>
</defs>
</svg>
