<svg width="32" height="32" viewBox="0 0 32 32" fill="none" xmlns="http://www.w3.org/2000/svg">
<path d="M3.33317 15.9997H7.84246C8.75607 15.9997 9.59126 16.5159 9.99984 17.333C10.4084 18.1502 11.2436 18.6663 12.1572 18.6663H19.8425C20.7561 18.6663 21.5913 18.1502 21.9998 17.333C22.4084 16.5159 23.2436 15.9997 24.1572 15.9997H28.6665M11.9553 5.33301H20.0444C21.4803 5.33301 22.1982 5.33301 22.832 5.55163C23.3925 5.74496 23.903 6.06047 24.3266 6.47534C24.8056 6.94447 25.1266 7.58661 25.7688 8.87084L28.6575 14.6483C28.9095 15.1523 29.0355 15.4043 29.1243 15.6684C29.2033 15.9029 29.2602 16.1443 29.2945 16.3894C29.3332 16.6653 29.3332 16.947 29.3332 17.5105V20.2663C29.3332 22.5066 29.3332 23.6267 28.8972 24.4823C28.5137 25.2349 27.9018 25.8469 27.1491 26.2304C26.2935 26.6663 25.1734 26.6663 22.9332 26.6663H9.0665C6.82629 26.6663 5.70619 26.6663 4.85054 26.2304C4.09789 25.8469 3.48597 25.2349 3.10248 24.4823C2.6665 23.6267 2.6665 22.5066 2.6665 20.2663V17.5105C2.6665 16.947 2.6665 16.6653 2.70514 16.3894C2.73944 16.1443 2.79642 15.9029 2.87533 15.6684C2.96418 15.4043 3.09018 15.1523 3.34217 14.6483L6.23092 8.87084C6.87304 7.5866 7.19411 6.94447 7.6731 6.47534C8.09668 6.06047 8.60719 5.74496 9.16769 5.55163C9.80151 5.33301 10.5194 5.33301 11.9553 5.33301Z" stroke="#3EA2F8" stroke-width="3" stroke-linecap="round" stroke-linejoin="round"/>
</svg>
