<svg width="56" height="56" viewBox="0 0 56 56" fill="none" xmlns="http://www.w3.org/2000/svg">
<rect width="56" height="56" rx="28" fill="#D8F5FE"/>
<path d="M15.3332 27.9997H19.8425C20.7561 27.9997 21.5913 28.5159 21.9998 29.333C22.4084 30.1502 23.2436 30.6663 24.1572 30.6663H31.8425C32.7561 30.6663 33.5913 30.1502 33.9998 29.333C34.4084 28.5159 35.2436 27.9997 36.1572 27.9997H40.6665M23.9553 17.333H32.0444C33.4803 17.333 34.1982 17.333 34.832 17.5516C35.3925 17.745 35.903 18.0605 36.3266 18.4753C36.8056 18.9445 37.1266 19.5866 37.7688 20.8708L40.6575 26.6483C40.9095 27.1523 41.0355 27.4043 41.1243 27.6684C41.2033 27.9029 41.2602 28.1443 41.2945 28.3894C41.3332 28.6653 41.3332 28.947 41.3332 29.5105V32.2663C41.3332 34.5066 41.3332 35.6267 40.8972 36.4823C40.5137 37.2349 39.9018 37.8469 39.1491 38.2304C38.2935 38.6663 37.1734 38.6663 34.9332 38.6663H21.0665C18.8263 38.6663 17.7062 38.6663 16.8505 38.2304C16.0979 37.8469 15.486 37.2349 15.1025 36.4823C14.6665 35.6267 14.6665 34.5066 14.6665 32.2663V29.5105C14.6665 28.947 14.6665 28.6653 14.7051 28.3894C14.7394 28.1443 14.7964 27.9029 14.8753 27.6684C14.9642 27.4043 15.0902 27.1523 15.3422 26.6483L18.2309 20.8708C18.873 19.5866 19.1941 18.9445 19.6731 18.4753C20.0967 18.0605 20.6072 17.745 21.1677 17.5516C21.8015 17.333 22.5194 17.333 23.9553 17.333Z" stroke="#3EA2F8" stroke-width="3" stroke-linecap="round" stroke-linejoin="round"/>
</svg>
