<svg width="24" height="25" viewBox="0 0 24 25" fill="none" xmlns="http://www.w3.org/2000/svg">
<path d="M12.0005 19.5003V12.5003M12.292 19.585L19.2704 21.9212C19.8173 22.1043 20.0908 22.1958 20.2594 22.1301C20.4059 22.0731 20.517 21.9505 20.5594 21.7992C20.6082 21.6249 20.4903 21.3617 20.2545 20.8354L12.766 4.12269C12.5354 3.60799 12.4201 3.35064 12.2594 3.2709C12.1199 3.20162 11.956 3.20136 11.8162 3.27019C11.6553 3.34941 11.5392 3.60639 11.3069 4.12035L3.75244 20.8364C3.51474 21.3623 3.39589 21.6253 3.44422 21.7998C3.48619 21.9513 3.59697 22.0742 3.74329 22.1317C3.91178 22.1978 4.18567 22.1069 4.73346 21.9251L11.786 19.5843C11.8799 19.5532 11.9268 19.5376 11.9749 19.5314C12.0175 19.526 12.0606 19.526 12.1032 19.5316C12.1512 19.5379 12.1981 19.5536 12.292 19.585Z" stroke="#3EA2F8" stroke-width="2" stroke-linecap="round" stroke-linejoin="round"/>
</svg>
