<svg width="14" height="14" viewBox="0 0 14 14" fill="none" stroke="#7D89B0" stroke-linecap="round" stroke-linejoin="round" xmlns="http://www.w3.org/2000/svg">
<path d="M4.6665 4.66699V3.03366C4.6665 2.38026 4.6665 2.05357 4.79366 1.804C4.90552 1.58448 5.08399 1.406 5.30351 1.29415C5.55308 1.16699 5.87978 1.16699 6.53317 1.16699H10.9665C11.6199 1.16699 11.9466 1.16699 12.1962 1.29415C12.4157 1.406 12.5942 1.58448 12.706 1.804C12.8332 2.05357 12.8332 2.38026 12.8332 3.03366V7.46699C12.8332 8.12039 12.8332 8.44708 12.706 8.69665C12.5942 8.91617 12.4157 9.09465 12.1962 9.2065C11.9466 9.33366 11.6199 9.33366 10.9665 9.33366H9.33317M3.03317 12.8337H7.4665C8.1199 12.8337 8.4466 12.8337 8.69616 12.7065C8.91568 12.5946 9.09416 12.4162 9.20601 12.1966C9.33317 11.9471 9.33317 11.6204 9.33317 10.967V6.53366C9.33317 5.88026 9.33317 5.55357 9.20601 5.304C9.09416 5.08448 8.91568 4.906 8.69616 4.79415C8.4466 4.66699 8.1199 4.66699 7.4665 4.66699H3.03317C2.37978 4.66699 2.05308 4.66699 1.80351 4.79415C1.58399 4.906 1.40552 5.08448 1.29366 5.304C1.1665 5.55357 1.1665 5.88026 1.1665 6.53366V10.967C1.1665 11.6204 1.1665 11.9471 1.29366 12.1966C1.40552 12.4162 1.58399 12.5946 1.80351 12.7065C2.05308 12.8337 2.37978 12.8337 3.03317 12.8337Z"/>
</svg>
