<svg width="12" height="14" viewBox="0 0 12 14" fill="none" xmlns="http://www.w3.org/2000/svg">
<path d="M11.25 5.83366H0.75M8.33333 1.16699V3.50033M3.66667 1.16699V3.50033M3.55 12.8337H8.45C9.43009 12.8337 9.92014 12.8337 10.2945 12.6429C10.6238 12.4751 10.8915 12.2074 11.0593 11.8781C11.25 11.5038 11.25 11.0138 11.25 10.0337V5.13366C11.25 4.15357 11.25 3.66352 11.0593 3.28918C10.8915 2.95989 10.6238 2.69218 10.2945 2.5244C9.92014 2.33366 9.43009 2.33366 8.45 2.33366H3.55C2.56991 2.33366 2.07986 2.33366 1.70552 2.5244C1.37623 2.69218 1.10852 2.95989 0.940739 3.28918C0.75 3.66352 0.75 4.15357 0.75 5.13366V10.0337C0.75 11.0138 0.75 11.5038 0.940739 11.8781C1.10852 12.2074 1.37623 12.4751 1.70552 12.6429C2.07986 12.8337 2.56991 12.8337 3.55 12.8337Z" stroke="#7D89B0" stroke-width="1.5" stroke-linecap="round" stroke-linejoin="round"/>
</svg>
