<svg width="14" height="12" stroke="#fff" stroke-linecap="round" stroke-linejoin="round" viewBox="0 0 14 12" fill="none" xmlns="http://www.w3.org/2000/svg">
<path d="M1.45817 5.99967H3.43098C3.83069 5.99967 4.19608 6.2255 4.37484 6.58301C4.55359 6.94051 4.91899 7.16634 5.31869 7.16634H8.68098C9.08069 7.16634 9.44608 6.94051 9.62484 6.58301C9.80359 6.2255 10.169 5.99967 10.5687 5.99967H12.5415M5.23033 1.33301H8.76934C9.39752 1.33301 9.71161 1.33301 9.9889 1.42865C10.2341 1.51324 10.4575 1.65127 10.6428 1.83278C10.8523 2.03802 10.9928 2.31896 11.2737 2.88081L12.5376 5.40847C12.6478 5.62896 12.7029 5.7392 12.7418 5.85474C12.7763 5.95735 12.8013 6.06295 12.8163 6.17016C12.8332 6.29089 12.8332 6.41415 12.8332 6.66067V7.86634C12.8332 8.84643 12.8332 9.33648 12.6424 9.71083C12.4747 10.0401 12.2069 10.3078 11.8777 10.4756C11.5033 10.6663 11.0133 10.6663 10.0332 10.6663H3.9665C2.98641 10.6663 2.49637 10.6663 2.12202 10.4756C1.79274 10.3078 1.52502 10.0401 1.35724 9.71083C1.1665 9.33648 1.1665 8.84643 1.1665 7.86634V6.66067C1.1665 6.41415 1.1665 6.29089 1.18341 6.17016C1.19842 6.06295 1.22334 5.95735 1.25787 5.85474C1.29674 5.7392 1.35186 5.62896 1.46211 5.40847L2.72594 2.88081C3.00686 2.31895 3.14733 2.03802 3.35689 1.83278C3.54221 1.65127 3.76555 1.51324 4.01077 1.42865C4.28807 1.33301 4.60216 1.33301 5.23033 1.33301Z" />
</svg>
