<svg width="12" height="13" viewBox="0 0 12 13" fill="none" stroke="#7D89B0" stroke-width="1.3125" stroke-linecap="round" stroke-linejoin="round" xmlns="http://www.w3.org/2000/svg">
<path d="M8.33333 4.66669V2.6254C8.33333 2.14022 8.33333 1.89763 8.23113 1.74855C8.14183 1.61829 8.00354 1.52981 7.84786 1.50332C7.66967 1.473 7.4494 1.57466 7.00888 1.77798L1.83442 4.16618C1.44154 4.34751 1.2451 4.43818 1.10123 4.57879C0.974034 4.7031 0.876943 4.85484 0.817378 5.02242C0.75 5.21198 0.75 5.42834 0.75 5.86104V8.75002M8.625 8.45835H8.63083M0.75 6.53335L0.75 10.3834C0.75 11.0367 0.75 11.3634 0.877159 11.613C0.989011 11.8325 1.16749 12.011 1.38701 12.1229C1.63657 12.25 1.96327 12.25 2.61667 12.25H9.38333C10.0367 12.25 10.3634 12.25 10.613 12.1229C10.8325 12.011 11.011 11.8325 11.1228 11.613C11.25 11.3634 11.25 11.0367 11.25 10.3834V6.53336C11.25 5.87996 11.25 5.55326 11.1228 5.3037C11.011 5.08418 10.8325 4.9057 10.613 4.79385C10.3634 4.66669 10.0367 4.66669 9.38333 4.66669L2.61667 4.66669C1.96327 4.66669 1.63657 4.66669 1.38701 4.79385C1.16749 4.9057 0.989011 5.08418 0.877159 5.3037C0.75 5.55326 0.75 5.87996 0.75 6.53335ZM8.91667 8.45835C8.91667 8.61944 8.78608 8.75002 8.625 8.75002C8.46392 8.75002 8.33333 8.61944 8.33333 8.45835C8.33333 8.29727 8.46392 8.16669 8.625 8.16669C8.78608 8.16669 8.91667 8.29727 8.91667 8.45835Z" />
</svg>
