<svg width="18" height="12" viewBox="0 0 18 12" fill="none" xmlns="http://www.w3.org/2000/svg">
<path d="M9 0C13.5562 0 17.25 2.0145 17.25 4.5V7.5C17.25 9.9855 13.5562 12 9 12C4.52475 12 0.882 10.0567 0.75375 7.63275L0.75 7.5V4.5C0.75 2.0145 4.44375 0 9 0ZM9 9C6.21 9 3.7425 8.24475 2.25 7.0875V7.5C2.25 8.9115 5.16225 10.5 9 10.5C12.7575 10.5 15.6285 8.9775 15.7462 7.5885L15.75 7.5L15.7507 7.0875C14.2582 8.244 11.7907 9 9 9ZM9 1.5C5.16225 1.5 2.25 3.0885 2.25 4.5C2.25 5.9115 5.16225 7.5 9 7.5C12.8377 7.5 15.75 5.9115 15.75 4.5C15.75 3.0885 12.8377 1.5 9 1.5Z" fill="white"/>
</svg>
