
<svg width="56" height="56" viewBox="0 0 56 56" fill="none" xmlns="http://www.w3.org/2000/svg">
<path d="M53 28C53 31.283 52.3534 34.5339 51.097 37.5671C49.8406 40.6002 47.9991 43.3562 45.6777 45.6777C43.3562 47.9991 40.6002 49.8406 37.5671 51.097C34.5339 52.3534 31.283 53 28 53C24.7169 53 21.466 52.3534 18.4329 51.097C15.3998 49.8406 12.6438 47.9991 10.3223 45.6777C8.00086 43.3562 6.15938 40.6002 4.90301 37.5671C3.64664 34.5339 3 31.283 3 28C3 24.7169 3.64665 21.466 4.90302 18.4329C6.15938 15.3998 8.00087 12.6438 10.3223 10.3223C12.6438 8.00086 15.3998 6.15937 18.4329 4.90301C21.4661 3.64664 24.717 3 28 3C31.2831 3 34.534 3.64665 37.5671 4.90302C40.6002 6.15939 43.3562 8.00087 45.6777 10.3223C47.9991 12.6438 49.8406 15.3998 51.097 18.4329C52.3534 21.4661 53 24.717 53 28L53 28Z" stroke="#F2F4F7" stroke-width="6" stroke-linecap="round" stroke-linejoin="round"/>
</svg>
