<svg width="298" height="142" viewBox="0 0 298 142" fill="none" xmlns="http://www.w3.org/2000/svg">
<g clip-path="url(#clip0_5504_60183)">
<g filter="url(#filter0_d_5504_60183)">
<rect x="24" y="-47.1543" width="248" height="133.154" rx="16" fill="white"/>
<path d="M48.258 8.47656V7.11839H44.9424V6.15968L47.8585 1.50593H49.3265V6.23957H50.3052V7.11839H49.3265V8.47656H48.258ZM45.8911 6.23957H48.258V2.53455H48.198L45.8911 6.23957Z" fill="#B9C0D4"/>
<path d="M58.0376 7.59774H59.7453V1.96531H58.0376V1.0865H60.8338V7.59774H62.5415V8.47656H58.0376V7.59774ZM66.3824 8.5964C65.9896 8.5964 65.6368 8.53315 65.3239 8.40666C65.011 8.28016 64.748 8.1004 64.5349 7.86738C64.3219 7.63436 64.1588 7.35474 64.0456 7.02851C63.9324 6.69562 63.8758 6.32279 63.8758 5.91001C63.8758 5.49723 63.9324 5.1244 64.0456 4.79152C64.1654 4.45863 64.3285 4.17568 64.5349 3.94266C64.748 3.70298 65.0043 3.51989 65.3039 3.39339C65.6035 3.2669 65.9364 3.20365 66.3026 3.20365C66.6621 3.20365 66.9883 3.2669 67.2812 3.39339C67.5742 3.51323 67.8238 3.68633 68.0302 3.9127C68.2366 4.13906 68.3931 4.4087 68.4996 4.72161C68.6128 5.03452 68.6694 5.38072 68.6694 5.76021V6.16966H64.9743V6.33943C64.9743 6.74556 65.1008 7.07844 65.3538 7.33809C65.6068 7.59109 65.9564 7.71758 66.4024 7.71758C66.7353 7.71758 67.0183 7.64768 67.2513 7.50786C67.491 7.36139 67.684 7.16832 67.8305 6.92864L68.5096 7.52784C68.3365 7.82743 68.0702 8.08043 67.7107 8.28682C67.3578 8.49321 66.9151 8.5964 66.3824 8.5964ZM66.3026 4.03254C66.1095 4.03254 65.9297 4.06582 65.7633 4.1324C65.6035 4.19898 65.4637 4.29552 65.3438 4.42201C65.2307 4.54185 65.1408 4.68499 65.0742 4.85143C65.0076 5.01788 64.9743 5.20096 64.9743 5.4007V5.4706H67.5609V5.37074C67.5609 4.96462 67.4444 4.64172 67.2113 4.40204C66.985 4.1557 66.682 4.03254 66.3026 4.03254ZM72.5702 8.47656C72.1175 8.47656 71.7846 8.35672 71.5716 8.11705C71.3585 7.87071 71.252 7.55447 71.252 7.16832V4.20231H69.6641V3.32349H70.7926C70.9857 3.32349 71.1222 3.28687 71.2021 3.21364C71.282 3.13374 71.3219 2.99393 71.3219 2.7942V1.50593H72.3405V3.32349H74.5376V4.20231H72.3405V7.59774H74.5376V8.47656H72.5702ZM78.5583 8.47656C78.1055 8.47656 77.7727 8.35672 77.5596 8.11705C77.3466 7.87071 77.24 7.55447 77.24 7.16832V4.20231H75.6522V3.32349H76.7807C76.9737 3.32349 77.1102 3.28687 77.1901 3.21364C77.27 3.13374 77.3099 2.99393 77.3099 2.7942V1.50593H78.3286V3.32349H80.5256V4.20231H78.3286V7.59774H80.5256V8.47656H78.5583ZM84.3466 8.5964C83.9538 8.5964 83.6009 8.53315 83.288 8.40666C82.9751 8.28016 82.7121 8.1004 82.4991 7.86738C82.286 7.63436 82.1229 7.35474 82.0097 7.02851C81.8965 6.69562 81.8399 6.32279 81.8399 5.91001C81.8399 5.49723 81.8965 5.1244 82.0097 4.79152C82.1296 4.45863 82.2927 4.17568 82.4991 3.94266C82.7121 3.70298 82.9684 3.51989 83.268 3.39339C83.5676 3.2669 83.9005 3.20365 84.2667 3.20365C84.6262 3.20365 84.9524 3.2669 85.2454 3.39339C85.5383 3.51323 85.788 3.68633 85.9944 3.9127C86.2008 4.13906 86.3572 4.4087 86.4637 4.72161C86.5769 5.03452 86.6335 5.38072 86.6335 5.76021V6.16966H82.9385V6.33943C82.9385 6.74556 83.065 7.07844 83.318 7.33809C83.571 7.59109 83.9205 7.71758 84.3666 7.71758C84.6994 7.71758 84.9824 7.64768 85.2154 7.50786C85.4551 7.36139 85.6482 7.16832 85.7946 6.92864L86.4737 7.52784C86.3006 7.82743 86.0343 8.08043 85.6748 8.28682C85.3219 8.49321 84.8792 8.5964 84.3466 8.5964ZM84.2667 4.03254C84.0736 4.03254 83.8939 4.06582 83.7274 4.1324C83.5676 4.19898 83.4278 4.29552 83.308 4.42201C83.1948 4.54185 83.1049 4.68499 83.0383 4.85143C82.9718 5.01788 82.9385 5.20096 82.9385 5.4007V5.4706H85.525V5.37074C85.525 4.96462 85.4085 4.64172 85.1755 4.40204C84.9491 4.1557 84.6462 4.03254 84.2667 4.03254ZM87.9878 7.59774H89.3559V4.20231H87.9878V3.32349H90.4445V4.69165H90.5044C90.551 4.51189 90.6176 4.33879 90.7041 4.17235C90.7907 4.0059 90.9005 3.86276 91.0337 3.74292C91.1668 3.61643 91.33 3.51656 91.523 3.44333C91.7161 3.36343 91.9425 3.32349 92.2021 3.32349H92.8213V4.36209H91.8027C91.4032 4.36209 91.077 4.48193 90.824 4.72161C90.571 4.95463 90.4445 5.27087 90.4445 5.67033V7.59774H92.312V8.47656H87.9878V7.59774Z" fill="#404968"/>
<path d="M127.974 2.47463H124.808L124.628 4.9513H124.708C124.868 4.67833 125.061 4.46196 125.288 4.30217C125.514 4.13573 125.824 4.05251 126.216 4.05251C126.516 4.05251 126.792 4.10244 127.045 4.20231C127.305 4.30217 127.528 4.44531 127.714 4.63173C127.907 4.81815 128.057 5.04784 128.164 5.3208C128.277 5.58711 128.334 5.89004 128.334 6.22958C128.334 6.57578 128.277 6.89535 128.164 7.18829C128.051 7.47458 127.887 7.72424 127.674 7.93729C127.461 8.14368 127.198 8.30679 126.885 8.42663C126.573 8.53981 126.216 8.5964 125.817 8.5964C125.504 8.5964 125.224 8.55978 124.978 8.48655C124.738 8.41997 124.522 8.33009 124.329 8.21691C124.142 8.09707 123.979 7.96392 123.84 7.81745C123.7 7.66432 123.577 7.50786 123.47 7.34808L124.289 6.70894C124.375 6.84209 124.465 6.96859 124.559 7.08843C124.658 7.20161 124.768 7.30148 124.888 7.38803C125.008 7.47458 125.144 7.54115 125.298 7.58776C125.457 7.63436 125.637 7.65766 125.837 7.65766C126.27 7.65766 126.599 7.54115 126.826 7.30813C127.052 7.06846 127.165 6.74556 127.165 6.33943V6.25954C127.165 5.85342 127.049 5.53718 126.816 5.31082C126.589 5.08446 126.263 4.97127 125.837 4.97127C125.524 4.97127 125.278 5.02786 125.098 5.14105C124.918 5.25423 124.762 5.38072 124.628 5.52054L123.7 5.39071L123.959 1.50593H127.974V2.47463Z" fill="#B9C0D4"/>
<path d="M140.43 8.47656C140.117 8.47656 139.881 8.39667 139.721 8.23688C139.568 8.0771 139.475 7.86738 139.441 7.60773H139.391C139.292 7.92064 139.108 8.16365 138.842 8.33675C138.582 8.50985 138.25 8.5964 137.843 8.5964C137.318 8.5964 136.898 8.45992 136.585 8.18695C136.272 7.90733 136.116 7.52451 136.116 7.0385C136.116 6.53917 136.299 6.15968 136.665 5.90003C137.038 5.63372 137.607 5.50056 138.373 5.50056H139.361V5.1011C139.361 4.40204 138.992 4.05251 138.253 4.05251C137.92 4.05251 137.65 4.11909 137.444 4.25224C137.238 4.37874 137.065 4.54851 136.925 4.76156L136.276 4.23227C136.422 3.95264 136.668 3.71297 137.015 3.51323C137.361 3.30684 137.807 3.20365 138.353 3.20365C139.005 3.20365 139.518 3.36011 139.891 3.67302C140.264 3.98593 140.45 4.43866 140.45 5.03119V7.61772H141.099V8.47656H140.43ZM138.153 7.79748C138.506 7.79748 138.796 7.71758 139.022 7.5578C139.248 7.39801 139.361 7.19162 139.361 6.93863V6.18964H138.393C137.607 6.18964 137.214 6.42599 137.214 6.89868V7.09841C137.214 7.33143 137.298 7.50786 137.464 7.6277C137.63 7.74088 137.86 7.79748 138.153 7.79748ZM142.264 7.59774H143.632V4.20231H142.264V3.32349H144.72V4.69165H144.78C144.827 4.51189 144.893 4.33879 144.98 4.17235C145.067 4.0059 145.176 3.86276 145.31 3.74292C145.443 3.61643 145.606 3.51656 145.799 3.44333C145.992 3.36343 146.218 3.32349 146.478 3.32349H147.097V4.36209H146.078C145.679 4.36209 145.353 4.48193 145.1 4.72161C144.847 4.95463 144.72 5.27087 144.72 5.67033V7.59774H146.588V8.47656H142.264V7.59774ZM148.252 7.59774H149.62V4.20231H148.252V3.32349H150.708V4.69165H150.768C150.815 4.51189 150.881 4.33879 150.968 4.17235C151.055 4.0059 151.164 3.86276 151.298 3.74292C151.431 3.61643 151.594 3.51656 151.787 3.44333C151.98 3.36343 152.206 3.32349 152.466 3.32349H153.085V4.36209H152.067C151.667 4.36209 151.341 4.48193 151.088 4.72161C150.835 4.95463 150.708 5.27087 150.708 5.67033V7.59774H152.576V8.47656H148.252V7.59774ZM156.477 8.5964C156.097 8.5964 155.754 8.53315 155.448 8.40666C155.148 8.28016 154.892 8.1004 154.679 7.86738C154.473 7.63436 154.313 7.35141 154.2 7.01852C154.087 6.68564 154.03 6.3128 154.03 5.90003C154.03 5.48725 154.087 5.11441 154.2 4.78153C154.313 4.44864 154.473 4.16569 154.679 3.93267C154.892 3.69965 155.148 3.51989 155.448 3.39339C155.754 3.2669 156.097 3.20365 156.477 3.20365C156.856 3.20365 157.196 3.2669 157.495 3.39339C157.802 3.51989 158.058 3.69965 158.264 3.93267C158.477 4.16569 158.64 4.44864 158.754 4.78153C158.867 5.11441 158.923 5.48725 158.923 5.90003C158.923 6.3128 158.867 6.68564 158.754 7.01852C158.64 7.35141 158.477 7.63436 158.264 7.86738C158.058 8.1004 157.802 8.28016 157.495 8.40666C157.196 8.53315 156.856 8.5964 156.477 8.5964ZM156.477 7.73756C156.876 7.73756 157.192 7.61772 157.425 7.37804C157.665 7.1317 157.785 6.76886 157.785 6.2895V5.51055C157.785 5.03119 157.665 4.67168 157.425 4.432C157.192 4.18566 156.876 4.0625 156.477 4.0625C156.077 4.0625 155.758 4.18566 155.518 4.432C155.285 4.67168 155.168 5.03119 155.168 5.51055V6.2895C155.168 6.76886 155.285 7.1317 155.518 7.37804C155.758 7.61772 156.077 7.73756 156.477 7.73756ZM159.669 3.32349H160.597L161.097 7.65766H161.186L161.955 3.32349H163.014L163.773 7.65766H163.863L164.372 3.32349H165.261L164.542 8.47656H163.204L162.515 4.48193H162.425L161.726 8.47656H160.388L159.669 3.32349Z" fill="#404968"/>
<path d="M204.115 8.5964C203.723 8.5964 203.373 8.53315 203.067 8.40666C202.76 8.28016 202.501 8.1004 202.288 7.86738C202.075 7.6277 201.912 7.34142 201.798 7.00854C201.685 6.67565 201.629 6.29949 201.629 5.88005C201.629 5.37407 201.705 4.89804 201.858 4.45197C202.011 4.0059 202.211 3.59645 202.458 3.22362C202.704 2.85079 202.977 2.52123 203.276 2.23495C203.576 1.94201 203.872 1.69901 204.165 1.50593H205.663C205.264 1.79221 204.904 2.06851 204.585 2.33482C204.265 2.60113 203.985 2.87409 203.746 3.15372C203.513 3.43334 203.316 3.72961 203.157 4.04252C202.997 4.34878 202.874 4.69165 202.787 5.07114L202.857 5.09111C202.93 4.9513 203.017 4.82148 203.117 4.70164C203.217 4.57514 203.333 4.46529 203.466 4.37208C203.599 4.27887 203.752 4.20564 203.926 4.15237C204.099 4.09911 204.295 4.07248 204.515 4.07248C204.814 4.07248 205.091 4.12241 205.344 4.22228C205.597 4.32215 205.816 4.46862 206.003 4.66169C206.189 4.84811 206.332 5.07447 206.432 5.34078C206.539 5.60709 206.592 5.90668 206.592 6.23957C206.592 6.58577 206.532 6.90534 206.412 7.19828C206.299 7.48456 206.133 7.7309 205.913 7.93729C205.7 8.14368 205.44 8.30679 205.134 8.42663C204.828 8.53981 204.488 8.5964 204.115 8.5964ZM204.105 7.69761C204.531 7.69761 204.861 7.58443 205.094 7.35807C205.327 7.12505 205.444 6.79882 205.444 6.37938V6.27952C205.444 5.86008 205.327 5.53718 205.094 5.31082C204.861 5.0778 204.531 4.96129 204.105 4.96129C203.686 4.96129 203.36 5.0778 203.127 5.31082C202.894 5.53718 202.777 5.86008 202.777 6.27952V6.37938C202.777 6.79882 202.894 7.12505 203.127 7.35807C203.36 7.58443 203.686 7.69761 204.105 7.69761Z" fill="#B9C0D4"/>
<path d="M214.524 7.59774H216.172V4.20231H214.424V3.32349H216.172V2.39474C216.172 2.00859 216.278 1.69568 216.491 1.456C216.704 1.20966 217.037 1.0865 217.49 1.0865H219.228V1.96531H217.26V3.32349H219.228V4.20231H217.26V7.59774H218.998V8.47656H214.524V7.59774ZM222.729 8.5964C222.35 8.5964 222.007 8.53315 221.701 8.40666C221.401 8.28016 221.145 8.1004 220.932 7.86738C220.725 7.63436 220.565 7.35141 220.452 7.01852C220.339 6.68564 220.282 6.3128 220.282 5.90003C220.282 5.48725 220.339 5.11441 220.452 4.78153C220.565 4.44864 220.725 4.16569 220.932 3.93267C221.145 3.69965 221.401 3.51989 221.701 3.39339C222.007 3.2669 222.35 3.20365 222.729 3.20365C223.109 3.20365 223.448 3.2669 223.748 3.39339C224.054 3.51989 224.31 3.69965 224.517 3.93267C224.73 4.16569 224.893 4.44864 225.006 4.78153C225.119 5.11441 225.176 5.48725 225.176 5.90003C225.176 6.3128 225.119 6.68564 225.006 7.01852C224.893 7.35141 224.73 7.63436 224.517 7.86738C224.31 8.1004 224.054 8.28016 223.748 8.40666C223.448 8.53315 223.109 8.5964 222.729 8.5964ZM222.729 7.73756C223.129 7.73756 223.445 7.61772 223.678 7.37804C223.918 7.1317 224.037 6.76886 224.037 6.2895V5.51055C224.037 5.03119 223.918 4.67168 223.678 4.432C223.445 4.18566 223.129 4.0625 222.729 4.0625C222.33 4.0625 222.01 4.18566 221.77 4.432C221.537 4.67168 221.421 5.03119 221.421 5.51055V6.2895C221.421 6.76886 221.537 7.1317 221.77 7.37804C222.01 7.61772 222.33 7.73756 222.729 7.73756ZM226.48 7.59774H227.848V4.20231H226.48V3.32349H228.937V4.69165H228.997C229.043 4.51189 229.11 4.33879 229.197 4.17235C229.283 4.0059 229.393 3.86276 229.526 3.74292C229.659 3.61643 229.822 3.51656 230.015 3.44333C230.209 3.36343 230.435 3.32349 230.695 3.32349H231.314V4.36209H230.295C229.896 4.36209 229.569 4.48193 229.316 4.72161C229.063 4.95463 228.937 5.27087 228.937 5.67033V7.59774H230.804V8.47656H226.48V7.59774ZM237.402 9.03581C237.402 9.56843 237.179 9.96123 236.733 10.2142C236.286 10.4672 235.607 10.5937 234.695 10.5937C234.249 10.5937 233.873 10.5638 233.567 10.5038C233.267 10.4506 233.021 10.3707 232.828 10.2642C232.641 10.1576 232.505 10.0278 232.418 9.87468C232.338 9.72156 232.298 9.54846 232.298 9.35538C232.298 9.07576 232.375 8.85605 232.528 8.69627C232.688 8.54314 232.911 8.42996 233.197 8.35672V8.25686C233.024 8.19028 232.884 8.09707 232.778 7.97723C232.678 7.85739 232.628 7.70094 232.628 7.50786C232.628 7.25487 232.715 7.06513 232.888 6.93863C233.061 6.80548 233.284 6.70561 233.557 6.63903V6.5891C233.244 6.44263 233.001 6.23624 232.828 5.96993C232.655 5.70362 232.568 5.38405 232.568 5.01122C232.568 4.73825 232.618 4.49192 232.718 4.27221C232.818 4.04585 232.958 3.85611 233.137 3.70298C233.324 3.54319 233.543 3.42003 233.796 3.33347C234.056 3.24692 234.346 3.20365 234.665 3.20365C235.025 3.20365 235.348 3.26024 235.634 3.37342V3.20365C235.634 3.00392 235.691 2.83748 235.804 2.70432C235.917 2.57117 236.09 2.50459 236.323 2.50459H237.262V3.36343H236.063V3.60311C236.29 3.75624 236.463 3.95264 236.583 4.19232C236.703 4.42534 236.762 4.69831 236.762 5.01122C236.762 5.28419 236.713 5.53385 236.613 5.76021C236.513 5.97992 236.37 6.16966 236.183 6.32945C236.003 6.48258 235.784 6.60241 235.524 6.68897C235.271 6.76886 234.985 6.8088 234.665 6.8088C234.439 6.8088 234.226 6.78883 234.026 6.74888C233.906 6.78217 233.786 6.83876 233.667 6.91866C233.547 6.99855 233.487 7.1084 233.487 7.24821C233.487 7.408 233.563 7.50786 233.717 7.54781C233.87 7.58776 234.059 7.60773 234.286 7.60773H235.444C236.137 7.60773 236.636 7.74088 236.942 8.00719C237.248 8.26684 237.402 8.60972 237.402 9.03581ZM236.383 9.10572C236.383 8.93262 236.313 8.7928 236.173 8.68628C236.033 8.58641 235.78 8.53648 235.414 8.53648H233.627C233.374 8.65632 233.247 8.84939 233.247 9.1157C233.247 9.30878 233.327 9.47522 233.487 9.61503C233.653 9.75484 233.926 9.82475 234.306 9.82475H235.115C235.527 9.82475 235.84 9.7615 236.053 9.63501C236.273 9.51517 236.383 9.33874 236.383 9.10572ZM234.665 6.05981C235.018 6.05981 235.278 5.97659 235.444 5.81015C235.611 5.6437 235.694 5.42067 235.694 5.14105V4.87141C235.694 4.59178 235.611 4.36875 235.444 4.20231C235.278 4.03586 235.018 3.95264 234.665 3.95264C234.312 3.95264 234.053 4.03586 233.886 4.20231C233.72 4.36875 233.637 4.59178 233.637 4.87141V5.14105C233.637 5.42067 233.72 5.6437 233.886 5.81015C234.053 5.97659 234.312 6.05981 234.665 6.05981ZM240.803 8.5964C240.41 8.5964 240.057 8.53315 239.745 8.40666C239.432 8.28016 239.169 8.1004 238.956 7.86738C238.743 7.63436 238.579 7.35474 238.466 7.02851C238.353 6.69562 238.296 6.32279 238.296 5.91001C238.296 5.49723 238.353 5.1244 238.466 4.79152C238.586 4.45863 238.749 4.17568 238.956 3.94266C239.169 3.70298 239.425 3.51989 239.725 3.39339C240.024 3.2669 240.357 3.20365 240.723 3.20365C241.083 3.20365 241.409 3.2669 241.702 3.39339C241.995 3.51323 242.245 3.68633 242.451 3.9127C242.657 4.13906 242.814 4.4087 242.92 4.72161C243.033 5.03452 243.09 5.38072 243.09 5.76021V6.16966H239.395V6.33943C239.395 6.74556 239.522 7.07844 239.775 7.33809C240.027 7.59109 240.377 7.71758 240.823 7.71758C241.156 7.71758 241.439 7.64768 241.672 7.50786C241.912 7.36139 242.105 7.16832 242.251 6.92864L242.93 7.52784C242.757 7.82743 242.491 8.08043 242.131 8.28682C241.778 8.49321 241.336 8.5964 240.803 8.5964ZM240.723 4.03254C240.53 4.03254 240.35 4.06582 240.184 4.1324C240.024 4.19898 239.884 4.29552 239.765 4.42201C239.651 4.54185 239.561 4.68499 239.495 4.85143C239.428 5.01788 239.395 5.20096 239.395 5.4007V5.4706H241.982V5.37074C241.982 4.96462 241.865 4.64172 241.632 4.40204C241.406 4.1557 241.103 4.03254 240.723 4.03254ZM246.991 8.47656C246.538 8.47656 246.205 8.35672 245.992 8.11705C245.779 7.87071 245.673 7.55447 245.673 7.16832V4.20231H244.085V3.32349H245.213C245.406 3.32349 245.543 3.28687 245.623 3.21364C245.703 3.13374 245.743 2.99393 245.743 2.7942V1.50593H246.761V3.32349H248.958V4.20231H246.761V7.59774H248.958V8.47656H246.991Z" fill="#404968"/>
<path d="M46.3306 38.792L48.9171 32.7501H46.2007V34.0384H45.232V31.8214H50.0356V32.8L47.519 38.792H46.3306Z" fill="#B9C0D4"/>
<path d="M58.0775 31.4019H59.1661V34.5177H59.226C59.3791 34.2048 59.5822 33.9618 59.8352 33.7887C60.0881 33.609 60.4044 33.5191 60.7839 33.5191C61.3897 33.5191 61.8724 33.7454 62.2319 34.1982C62.5914 34.6509 62.7712 35.3233 62.7712 36.2155C62.7712 37.1076 62.5914 37.78 62.2319 38.2327C61.8724 38.6855 61.3897 38.9118 60.7839 38.9118C60.4044 38.9118 60.0881 38.8253 59.8352 38.6522C59.5822 38.4724 59.3791 38.2261 59.226 37.9132H59.1661V38.792H58.0775V31.4019ZM60.3345 38.023C60.7473 38.023 61.0635 37.8965 61.2832 37.6435C61.5096 37.3905 61.6227 37.0543 61.6227 36.6349V35.796C61.6227 35.3766 61.5096 35.0404 61.2832 34.7874C61.0635 34.5344 60.7473 34.4079 60.3345 34.4079C60.1747 34.4079 60.0249 34.4279 59.8851 34.4678C59.7453 34.5078 59.6221 34.5677 59.5156 34.6476C59.4091 34.7275 59.3225 34.8273 59.2559 34.9472C59.196 35.0603 59.1661 35.1968 59.1661 35.3566V37.0743C59.1661 37.2341 59.196 37.3739 59.2559 37.4937C59.3225 37.6069 59.4091 37.7035 59.5156 37.7833C59.6221 37.8632 59.7453 37.9232 59.8851 37.9631C60.0249 38.0031 60.1747 38.023 60.3345 38.023ZM66.3824 38.9118C65.9896 38.9118 65.6368 38.8486 65.3239 38.7221C65.011 38.5956 64.748 38.4158 64.5349 38.1828C64.3219 37.9498 64.1588 37.6702 64.0456 37.3439C63.9324 37.0111 63.8758 36.6382 63.8758 36.2254C63.8758 35.8127 63.9324 35.4398 64.0456 35.1069C64.1654 34.7741 64.3285 34.4911 64.5349 34.2581C64.748 34.0184 65.0043 33.8353 65.3039 33.7088C65.6035 33.5823 65.9364 33.5191 66.3026 33.5191C66.6621 33.5191 66.9883 33.5823 67.2812 33.7088C67.5742 33.8287 67.8238 34.0018 68.0302 34.2281C68.2366 34.4545 68.3931 34.7241 68.4996 35.037C68.6128 35.35 68.6694 35.6962 68.6694 36.0756V36.4851H64.9743V36.6549C64.9743 37.061 65.1008 37.3939 65.3538 37.6535C65.6068 37.9065 65.9564 38.033 66.4024 38.033C66.7353 38.033 67.0183 37.9631 67.2513 37.8233C67.491 37.6768 67.684 37.4838 67.8305 37.2441L68.5096 37.8433C68.3365 38.1429 68.0702 38.3959 67.7107 38.6022C67.3578 38.8086 66.9151 38.9118 66.3824 38.9118ZM66.3026 34.348C66.1095 34.348 65.9297 34.3813 65.7633 34.4478C65.6035 34.5144 65.4637 34.6109 65.3438 34.7374C65.2307 34.8573 65.1408 35.0004 65.0742 35.1669C65.0076 35.3333 64.9743 35.5164 64.9743 35.7161V35.786H67.5609V35.6862C67.5609 35.28 67.4444 34.9571 67.2113 34.7175C66.985 34.4711 66.682 34.348 66.3026 34.348ZM72.5702 38.792C72.1175 38.792 71.7846 38.6722 71.5716 38.4325C71.3585 38.1861 71.252 37.8699 71.252 37.4838V34.5177H69.6641V33.6389H70.7926C70.9857 33.6389 71.1222 33.6023 71.2021 33.5291C71.282 33.4492 71.3219 33.3094 71.3219 33.1096V31.8214H72.3405V33.6389H74.5376V34.5177H72.3405V37.9132H74.5376V38.792H72.5702ZM76.0117 37.9132H77.3799V34.5177H76.0117V33.6389H78.4684V35.0071H78.5283C78.5749 34.8273 78.6415 34.6542 78.728 34.4878C78.8146 34.3213 78.9244 34.1782 79.0576 34.0584C79.1908 33.9319 79.3539 33.832 79.5469 33.7588C79.74 33.6789 79.9664 33.6389 80.226 33.6389H80.8452V34.6775H79.8266C79.4271 34.6775 79.1009 34.7974 78.8479 35.037C78.5949 35.2701 78.4684 35.5863 78.4684 35.9858V37.9132H80.3359V38.792H76.0117V37.9132ZM86.1542 38.792C85.8412 38.792 85.6049 38.7121 85.4451 38.5523C85.292 38.3925 85.1988 38.1828 85.1655 37.9232H85.1155C85.0157 38.2361 84.8326 38.4791 84.5663 38.6522C84.3066 38.8253 83.9737 38.9118 83.5676 38.9118C83.0417 38.9118 82.6222 38.7753 82.3093 38.5024C81.9964 38.2228 81.8399 37.8399 81.8399 37.3539C81.8399 36.8546 82.023 36.4751 82.3892 36.2155C82.762 35.9491 83.3313 35.816 84.0969 35.816H85.0856V35.4165C85.0856 34.7175 84.7161 34.3679 83.9771 34.3679C83.6442 34.3679 83.3746 34.4345 83.1682 34.5677C82.9618 34.6942 82.7887 34.8639 82.6489 35.077L81.9997 34.5477C82.1462 34.2681 82.3925 34.0284 82.7387 33.8287C83.0849 33.6223 83.531 33.5191 84.0769 33.5191C84.7294 33.5191 85.242 33.6755 85.6149 33.9884C85.9877 34.3014 86.1741 34.7541 86.1741 35.3466V37.9331H86.8233V38.792H86.1542ZM83.8772 38.1129C84.2301 38.1129 84.5197 38.033 84.746 37.8732C84.9724 37.7134 85.0856 37.5071 85.0856 37.2541V36.5051H84.1169C83.3313 36.5051 82.9385 36.7414 82.9385 37.2141V37.4138C82.9385 37.6469 83.0217 37.8233 83.1881 37.9431C83.3546 38.0563 83.5843 38.1129 83.8772 38.1129ZM91.7327 33.6389H92.8313L90.3346 39.7906C90.2015 40.1235 90.025 40.3732 89.8053 40.5396C89.5923 40.7061 89.2827 40.7893 88.8766 40.7893H88.0078V39.9105H89.2261L89.6955 38.7221L87.6183 33.6389H88.7567L89.5756 35.796L90.2148 37.5636H90.2747L90.9138 35.796L91.7327 33.6389Z" fill="#404968"/>
<path d="M125.867 38.9118C125.454 38.9118 125.091 38.8619 124.778 38.762C124.465 38.6555 124.202 38.5124 123.989 38.3326C123.776 38.1529 123.613 37.9398 123.5 37.6935C123.393 37.4471 123.34 37.1775 123.34 36.8846C123.34 36.4185 123.47 36.0457 123.73 35.7661C123.989 35.4864 124.329 35.29 124.748 35.1769V35.097C124.389 34.9705 124.099 34.7707 123.879 34.4978C123.66 34.2248 123.55 33.8886 123.55 33.4891C123.55 32.9498 123.75 32.5171 124.149 32.1909C124.555 31.8646 125.128 31.7015 125.867 31.7015C126.606 31.7015 127.175 31.8646 127.575 32.1909C127.981 32.5171 128.184 32.9498 128.184 33.4891C128.184 33.8886 128.074 34.2248 127.854 34.4978C127.634 34.7707 127.345 34.9705 126.985 35.097V35.1769C127.405 35.29 127.744 35.4864 128.004 35.7661C128.264 36.0457 128.393 36.4185 128.393 36.8846C128.393 37.1775 128.337 37.4471 128.224 37.6935C128.117 37.9398 127.957 38.1529 127.744 38.3326C127.531 38.5124 127.268 38.6555 126.955 38.762C126.642 38.8619 126.28 38.9118 125.867 38.9118ZM125.867 38.023C126.306 38.023 126.642 37.9265 126.875 37.7334C127.115 37.5403 127.235 37.2674 127.235 36.9145V36.7048C127.235 36.3519 127.115 36.079 126.875 35.8859C126.642 35.6928 126.306 35.5963 125.867 35.5963C125.427 35.5963 125.088 35.6928 124.848 35.8859C124.615 36.079 124.499 36.3519 124.499 36.7048V36.9145C124.499 37.2674 124.615 37.5403 124.848 37.7334C125.088 37.9265 125.427 38.023 125.867 38.023ZM125.867 34.7374C126.266 34.7374 126.569 34.6509 126.776 34.4778C126.989 34.298 127.095 34.0484 127.095 33.7288V33.599C127.095 33.2794 126.989 33.0331 126.776 32.86C126.569 32.6802 126.266 32.5903 125.867 32.5903C125.467 32.5903 125.161 32.6802 124.948 32.86C124.742 33.0331 124.638 33.2794 124.638 33.599V33.7288C124.638 34.0484 124.742 34.298 124.948 34.4778C125.161 34.6509 125.467 34.7374 125.867 34.7374Z" fill="#B9C0D4"/>
<path d="M135.956 38.792V33.6389H136.885V34.308H136.935C137.015 34.0883 137.128 33.9019 137.274 33.7488C137.427 33.5956 137.644 33.5191 137.923 33.5191C138.196 33.5191 138.406 33.5956 138.553 33.7488C138.706 33.8952 138.802 34.0983 138.842 34.358H138.882C138.975 34.1249 139.105 33.9285 139.272 33.7687C139.438 33.6023 139.678 33.5191 139.991 33.5191C140.39 33.5191 140.666 33.6589 140.819 33.9385C140.979 34.2181 141.059 34.6276 141.059 35.1669V38.792H140.13V35.3067C140.13 34.9472 140.087 34.7008 140.001 34.5677C139.914 34.4279 139.774 34.358 139.581 34.358C139.408 34.358 139.262 34.4179 139.142 34.5377C139.029 34.6509 138.972 34.824 138.972 35.057V38.792H138.043V35.3067C138.043 34.9472 138 34.7008 137.913 34.5677C137.833 34.4279 137.697 34.358 137.504 34.358C137.324 34.358 137.174 34.4179 137.055 34.5377C136.941 34.6509 136.885 34.824 136.885 35.057V38.792H135.956ZM144.501 38.9118C144.121 38.9118 143.778 38.8486 143.472 38.7221C143.172 38.5956 142.916 38.4158 142.703 38.1828C142.497 37.9498 142.337 37.6668 142.224 37.334C142.11 37.0011 142.054 36.6282 142.054 36.2155C142.054 35.8027 142.11 35.4298 142.224 35.097C142.337 34.7641 142.497 34.4811 142.703 34.2481C142.916 34.0151 143.172 33.8353 143.472 33.7088C143.778 33.5823 144.121 33.5191 144.501 33.5191C144.88 33.5191 145.22 33.5823 145.519 33.7088C145.826 33.8353 146.082 34.0151 146.288 34.2481C146.501 34.4811 146.664 34.7641 146.778 35.097C146.891 35.4298 146.947 35.8027 146.947 36.2155C146.947 36.6282 146.891 37.0011 146.778 37.334C146.664 37.6668 146.501 37.9498 146.288 38.1828C146.082 38.4158 145.826 38.5956 145.519 38.7221C145.22 38.8486 144.88 38.9118 144.501 38.9118ZM144.501 38.053C144.9 38.053 145.216 37.9331 145.449 37.6935C145.689 37.4471 145.809 37.0843 145.809 36.6049V35.826C145.809 35.3466 145.689 34.9871 145.449 34.7474C145.216 34.5011 144.9 34.3779 144.501 34.3779C144.101 34.3779 143.782 34.5011 143.542 34.7474C143.309 34.9871 143.192 35.3466 143.192 35.826V36.6049C143.192 37.0843 143.309 37.4471 143.542 37.6935C143.782 37.9331 144.101 38.053 144.501 38.053ZM147.932 38.792V33.6389H148.861V34.308H148.911C148.991 34.0883 149.104 33.9019 149.25 33.7488C149.403 33.5956 149.62 33.5191 149.899 33.5191C150.172 33.5191 150.382 33.5956 150.529 33.7488C150.682 33.8952 150.778 34.0983 150.818 34.358H150.858C150.951 34.1249 151.081 33.9285 151.248 33.7687C151.414 33.6023 151.654 33.5191 151.967 33.5191C152.366 33.5191 152.642 33.6589 152.796 33.9385C152.955 34.2181 153.035 34.6276 153.035 35.1669V38.792H152.106V35.3067C152.106 34.9472 152.063 34.7008 151.977 34.5677C151.89 34.4279 151.75 34.358 151.557 34.358C151.384 34.358 151.238 34.4179 151.118 34.5377C151.005 34.6509 150.948 34.824 150.948 35.057V38.792H150.019V35.3067C150.019 34.9472 149.976 34.7008 149.889 34.5677C149.81 34.4279 149.673 34.358 149.48 34.358C149.3 34.358 149.15 34.4179 149.031 34.5377C148.917 34.6509 148.861 34.824 148.861 35.057V38.792H147.932Z" fill="#404968"/>
<path d="M206.562 34.4179C206.562 34.9239 206.485 35.3999 206.332 35.846C206.179 36.292 205.979 36.7015 205.733 37.0743C205.487 37.4471 205.214 37.78 204.914 38.073C204.615 38.3659 204.318 38.6056 204.025 38.792H202.527C202.927 38.5057 203.286 38.2294 203.606 37.9631C203.926 37.6968 204.202 37.4238 204.435 37.1442C204.675 36.8646 204.874 36.5716 205.034 36.2654C205.194 35.9525 205.317 35.6063 205.404 35.2268L205.334 35.2068C205.26 35.3466 205.174 35.4798 205.074 35.6063C204.974 35.7261 204.858 35.8326 204.724 35.9258C204.591 36.0191 204.438 36.0923 204.265 36.1455C204.092 36.1988 203.896 36.2254 203.676 36.2254C203.376 36.2254 203.1 36.1755 202.847 36.0756C202.594 35.9758 202.374 35.8326 202.188 35.6462C202.001 35.4531 201.855 35.2235 201.748 34.9571C201.649 34.6908 201.599 34.3912 201.599 34.0584C201.599 33.7122 201.655 33.3959 201.768 33.1096C201.888 32.8167 202.055 32.567 202.268 32.3606C202.487 32.1542 202.75 31.9945 203.057 31.8813C203.363 31.7614 203.703 31.7015 204.075 31.7015C204.462 31.7015 204.808 31.7648 205.114 31.8913C205.427 32.0178 205.69 32.2009 205.903 32.4405C206.116 32.6735 206.279 32.9565 206.392 33.2894C206.505 33.6223 206.562 33.9984 206.562 34.4179ZM204.085 35.3366C204.505 35.3366 204.831 35.2235 205.064 34.9971C205.297 34.7641 205.414 34.4378 205.414 34.0184V33.9185C205.414 33.4991 205.297 33.1762 205.064 32.9498C204.831 32.7168 204.505 32.6003 204.085 32.6003C203.659 32.6003 203.33 32.7168 203.097 32.9498C202.864 33.1762 202.747 33.4991 202.747 33.9185V34.0184C202.747 34.4378 202.864 34.7641 203.097 34.9971C203.33 35.2235 203.659 35.3366 204.085 35.3366Z" fill="#B9C0D4"/>
<path d="M216.741 38.9118C216.362 38.9118 216.019 38.8486 215.712 38.7221C215.413 38.5956 215.157 38.4158 214.944 38.1828C214.737 37.9498 214.577 37.6668 214.464 37.334C214.351 37.0011 214.294 36.6282 214.294 36.2155C214.294 35.8027 214.351 35.4298 214.464 35.097C214.577 34.7641 214.737 34.4811 214.944 34.2481C215.157 34.0151 215.413 33.8353 215.712 33.7088C216.019 33.5823 216.362 33.5191 216.741 33.5191C217.121 33.5191 217.46 33.5823 217.76 33.7088C218.066 33.8353 218.322 34.0151 218.529 34.2481C218.742 34.4811 218.905 34.7641 219.018 35.097C219.131 35.4298 219.188 35.8027 219.188 36.2155C219.188 36.6282 219.131 37.0011 219.018 37.334C218.905 37.6668 218.742 37.9498 218.529 38.1828C218.322 38.4158 218.066 38.5956 217.76 38.7221C217.46 38.8486 217.121 38.9118 216.741 38.9118ZM216.741 38.053C217.141 38.053 217.457 37.9331 217.69 37.6935C217.929 37.4471 218.049 37.0843 218.049 36.6049V35.826C218.049 35.3466 217.929 34.9871 217.69 34.7474C217.457 34.5011 217.141 34.3779 216.741 34.3779C216.342 34.3779 216.022 34.5011 215.782 34.7474C215.549 34.9871 215.433 35.3466 215.433 35.826V36.6049C215.433 37.0843 215.549 37.4471 215.782 37.6935C216.022 37.9331 216.342 38.053 216.741 38.053ZM220.512 37.9132H222.16V34.5177H220.412V33.6389H222.16V32.7102C222.16 32.324 222.266 32.0111 222.479 31.7714C222.693 31.5251 223.025 31.4019 223.478 31.4019H225.216V32.2807H223.248V33.6389H225.216V34.5177H223.248V37.9132H224.986V38.792H220.512V37.9132ZM229.027 38.792C228.574 38.792 228.241 38.6722 228.028 38.4325C227.815 38.1861 227.709 37.8699 227.709 37.4838V34.5177H226.121V33.6389H227.249C227.442 33.6389 227.579 33.6023 227.659 33.5291C227.738 33.4492 227.778 33.3094 227.778 33.1096V31.8214H228.797V33.6389H230.994V34.5177H228.797V37.9132H230.994V38.792H229.027ZM234.815 38.9118C234.422 38.9118 234.069 38.8486 233.757 38.7221C233.444 38.5956 233.181 38.4158 232.968 38.1828C232.755 37.9498 232.591 37.6702 232.478 37.3439C232.365 37.0111 232.308 36.6382 232.308 36.2254C232.308 35.8127 232.365 35.4398 232.478 35.1069C232.598 34.7741 232.761 34.4911 232.968 34.2581C233.181 34.0184 233.437 33.8353 233.737 33.7088C234.036 33.5823 234.369 33.5191 234.735 33.5191C235.095 33.5191 235.421 33.5823 235.714 33.7088C236.007 33.8287 236.256 34.0018 236.463 34.2281C236.669 34.4545 236.826 34.7241 236.932 35.037C237.045 35.35 237.102 35.6962 237.102 36.0756V36.4851H233.407V36.6549C233.407 37.061 233.533 37.3939 233.786 37.6535C234.039 37.9065 234.389 38.033 234.835 38.033C235.168 38.033 235.451 37.9631 235.684 37.8233C235.924 37.6768 236.117 37.4838 236.263 37.2441L236.942 37.8433C236.769 38.1429 236.503 38.3959 236.143 38.6022C235.79 38.8086 235.348 38.9118 234.815 38.9118ZM234.735 34.348C234.542 34.348 234.362 34.3813 234.196 34.4478C234.036 34.5144 233.896 34.6109 233.776 34.7374C233.663 34.8573 233.573 35.0004 233.507 35.1669C233.44 35.3333 233.407 35.5164 233.407 35.7161V35.786H235.993V35.6862C235.993 35.28 235.877 34.9571 235.644 34.7175C235.418 34.4711 235.115 34.348 234.735 34.348ZM238.536 38.792V33.6389H239.625V34.5177H239.675C239.728 34.3846 239.794 34.2581 239.874 34.1382C239.961 34.0118 240.064 33.9052 240.184 33.8187C240.304 33.7255 240.444 33.6522 240.603 33.599C240.763 33.5457 240.95 33.5191 241.163 33.5191C241.682 33.5191 242.101 33.6889 242.421 34.0284C242.741 34.3679 242.9 34.8506 242.9 35.4764V38.792H241.812V35.6362C241.812 34.8173 241.456 34.4079 240.743 34.4079C240.603 34.4079 240.467 34.4279 240.334 34.4678C240.201 34.5011 240.081 34.5544 239.974 34.6276C239.868 34.7008 239.781 34.794 239.715 34.9072C239.655 35.0204 239.625 35.1502 239.625 35.2967V38.792H238.536Z" fill="#404968"/>
<path d="M39.5336 69.1074V68.1787H41.491V62.9557H41.4111L39.7932 64.6834L39.1042 64.0642L40.8818 62.1368H42.6095V68.1787H44.2972V69.1074H39.5336ZM47.6388 69.2273C47.1994 69.2273 46.8166 69.1474 46.4903 68.9876C46.1708 68.8211 45.9045 68.5848 45.6914 68.2785C45.485 67.9723 45.3319 67.5961 45.232 67.1501C45.1322 66.704 45.0822 66.1947 45.0822 65.6221C45.0822 65.0562 45.1322 64.5502 45.232 64.1041C45.3319 63.6514 45.485 63.2719 45.6914 62.9657C45.9045 62.6594 46.1708 62.4264 46.4903 62.2666C46.8166 62.1002 47.1994 62.017 47.6388 62.017C48.0782 62.017 48.4577 62.1002 48.7773 62.2666C49.1035 62.4264 49.3698 62.6594 49.5762 62.9657C49.7892 63.2719 49.9457 63.6514 50.0456 64.1041C50.1454 64.5502 50.1954 65.0562 50.1954 65.6221C50.1954 66.1947 50.1454 66.704 50.0456 67.1501C49.9457 67.5961 49.7892 67.9723 49.5762 68.2785C49.3698 68.5848 49.1035 68.8211 48.7773 68.9876C48.4577 69.1474 48.0782 69.2273 47.6388 69.2273ZM47.6388 68.3085C48.1448 68.3085 48.5043 68.1221 48.7173 67.7492C48.937 67.3698 49.0469 66.8604 49.0469 66.2213V65.0229C49.0469 64.3838 48.937 63.8778 48.7173 63.505C48.5043 63.1255 48.1448 62.9357 47.6388 62.9357C47.3858 62.9357 47.1694 62.9856 46.9897 63.0855C46.8099 63.1787 46.6634 63.3185 46.5503 63.505C46.4371 63.6847 46.3539 63.9044 46.3006 64.1641C46.254 64.4171 46.2307 64.7033 46.2307 65.0229V66.2213C46.2307 66.5409 46.254 66.8305 46.3006 67.0901C46.3539 67.3431 46.4371 67.5628 46.5503 67.7492C46.6634 67.929 46.8099 68.0688 46.9897 68.1687C47.1694 68.2619 47.3858 68.3085 47.6388 68.3085ZM47.6388 66.2113C47.4058 66.2113 47.2427 66.1647 47.1495 66.0715C47.0629 65.9783 47.0196 65.8651 47.0196 65.732V65.5123C47.0196 65.3791 47.0629 65.2659 47.1495 65.1727C47.2427 65.0795 47.4058 65.0329 47.6388 65.0329C47.8718 65.0329 48.0316 65.0795 48.1181 65.1727C48.2114 65.2659 48.258 65.3791 48.258 65.5123V65.732C48.258 65.8651 48.2114 65.9783 48.1181 66.0715C48.0316 66.1647 47.8718 66.2113 47.6388 66.2113Z" fill="#B9C0D4"/>
<path d="M58.0476 68.2286H59.4157V64.8332H58.0476V63.9543H60.5043V65.3225H60.5642C60.6108 65.1428 60.6774 64.9696 60.7639 64.8032C60.8505 64.6368 60.9603 64.4936 61.0935 64.3738C61.2266 64.2473 61.3897 64.1474 61.5828 64.0742C61.7759 63.9943 62.0022 63.9543 62.2619 63.9543H62.8811V64.993H61.8624C61.463 64.993 61.1367 65.1128 60.8837 65.3525C60.6307 65.5855 60.5043 65.9017 60.5043 66.3012V68.2286H62.3717V69.1074H58.0476V68.2286ZM66.3824 69.2273C65.9896 69.2273 65.6368 69.164 65.3239 69.0375C65.011 68.911 64.748 68.7313 64.5349 68.4982C64.3219 68.2652 64.1588 67.9856 64.0456 67.6594C63.9324 67.3265 63.8758 66.9537 63.8758 66.5409C63.8758 66.1281 63.9324 65.7553 64.0456 65.4224C64.1654 65.0895 64.3285 64.8065 64.5349 64.5735C64.748 64.3338 65.0043 64.1508 65.3039 64.0243C65.6035 63.8978 65.9364 63.8345 66.3026 63.8345C66.6621 63.8345 66.9883 63.8978 67.2812 64.0243C67.5742 64.1441 67.8238 64.3172 68.0302 64.5436C68.2366 64.7699 68.3931 65.0396 68.4996 65.3525C68.6128 65.6654 68.6694 66.0116 68.6694 66.3911V66.8005H64.9743V66.9703C64.9743 67.3764 65.1008 67.7093 65.3538 67.969C65.6068 68.2219 65.9564 68.3484 66.4024 68.3484C66.7353 68.3484 67.0183 68.2785 67.2513 68.1387C67.491 67.9923 67.684 67.7992 67.8305 67.5595L68.5096 68.1587C68.3365 68.4583 68.0702 68.7113 67.7107 68.9177C67.3578 69.1241 66.9151 69.2273 66.3824 69.2273ZM66.3026 64.6634C66.1095 64.6634 65.9297 64.6967 65.7633 64.7633C65.6035 64.8298 65.4637 64.9264 65.3438 65.0529C65.2307 65.1727 65.1408 65.3159 65.0742 65.4823C65.0076 65.6487 64.9743 65.8318 64.9743 66.0316V66.1015H67.5609V66.0016C67.5609 65.5955 67.4444 65.2726 67.2113 65.0329C66.985 64.7866 66.682 64.6634 66.3026 64.6634ZM72.2706 69.2273C71.7114 69.2273 71.2287 69.1374 70.8226 68.9576C70.4231 68.7779 70.1002 68.5382 69.8539 68.2386L70.523 67.6394C70.7493 67.8857 71.0023 68.0755 71.282 68.2086C71.5682 68.3351 71.9044 68.3984 72.2906 68.3984C72.6435 68.3984 72.9264 68.3385 73.1395 68.2186C73.3592 68.0988 73.469 67.9124 73.469 67.6594C73.469 67.5528 73.449 67.463 73.4091 67.3897C73.3691 67.3165 73.3126 67.2566 73.2393 67.21C73.1661 67.1634 73.0795 67.1268 72.9797 67.1001C72.8865 67.0735 72.7866 67.0535 72.6801 67.0402L71.8612 66.9104C71.6614 66.8837 71.4584 66.8405 71.252 66.7805C71.0456 66.7206 70.8592 66.6374 70.6927 66.5309C70.533 66.4177 70.3998 66.2746 70.2933 66.1015C70.1934 65.9284 70.1435 65.7087 70.1435 65.4423C70.1435 64.9164 70.3432 64.5169 70.7427 64.244C71.1488 63.971 71.6814 63.8345 72.3405 63.8345C72.8199 63.8345 73.2327 63.9077 73.5789 64.0542C73.9317 64.194 74.2247 64.3904 74.4577 64.6434L73.8485 65.2826C73.7153 65.1294 73.5256 64.9896 73.2793 64.8631C73.0329 64.73 72.7067 64.6634 72.3006 64.6634C71.5749 64.6634 71.212 64.8931 71.212 65.3525C71.212 65.5722 71.2886 65.7253 71.4417 65.8119C71.6015 65.8917 71.7879 65.945 72.001 65.9716L72.8199 66.1015C73.0263 66.1348 73.2293 66.178 73.4291 66.2313C73.6355 66.2845 73.8185 66.3678 73.9783 66.481C74.1448 66.5875 74.2779 66.7273 74.3778 66.9004C74.4843 67.0735 74.5376 67.2932 74.5376 67.5595C74.5376 68.0788 74.3345 68.4883 73.9284 68.7879C73.5289 69.0808 72.9763 69.2273 72.2706 69.2273ZM76.0416 63.9543H77.1302V64.8332H77.1901C77.3432 64.5203 77.5463 64.2772 77.7993 64.1041C78.0523 63.9244 78.3685 63.8345 78.748 63.8345C79.3539 63.8345 79.8365 64.0609 80.1961 64.5136C80.5556 64.9663 80.7353 65.6388 80.7353 66.5309C80.7353 67.423 80.5556 68.0954 80.1961 68.5482C79.8365 69.0009 79.3539 69.2273 78.748 69.2273C78.3685 69.2273 78.0523 69.1407 77.7993 68.9676C77.5463 68.7879 77.3432 68.5415 77.1901 68.2286H77.1302V71.1047H76.0416V63.9543ZM78.2986 68.3385C78.7114 68.3385 79.0276 68.212 79.2473 67.959C79.4737 67.706 79.5869 67.3698 79.5869 66.9503V66.1114C79.5869 65.692 79.4737 65.3558 79.2473 65.1028C79.0276 64.8498 78.7114 64.7233 78.2986 64.7233C78.1388 64.7233 77.989 64.7433 77.8492 64.7832C77.7094 64.8232 77.5862 64.8831 77.4797 64.963C77.3732 65.0429 77.2866 65.1428 77.2201 65.2626C77.1601 65.3758 77.1302 65.5123 77.1302 65.672V67.3897C77.1302 67.5495 77.1601 67.6893 77.2201 67.8092C77.2866 67.9223 77.3732 68.0189 77.4797 68.0988C77.5862 68.1787 77.7094 68.2386 77.8492 68.2785C77.989 68.3185 78.1388 68.3385 78.2986 68.3385ZM84.2367 69.2273C83.8572 69.2273 83.5144 69.164 83.2081 69.0375C82.9085 68.911 82.6522 68.7313 82.4391 68.4982C82.2328 68.2652 82.073 67.9823 81.9598 67.6494C81.8466 67.3165 81.79 66.9437 81.79 66.5309C81.79 66.1181 81.8466 65.7453 81.9598 65.4124C82.073 65.0795 82.2328 64.7965 82.4391 64.5635C82.6522 64.3305 82.9085 64.1508 83.2081 64.0243C83.5144 63.8978 83.8572 63.8345 84.2367 63.8345C84.6162 63.8345 84.9558 63.8978 85.2554 64.0243C85.5616 64.1508 85.8179 64.3305 86.0243 64.5635C86.2374 64.7965 86.4005 65.0795 86.5137 65.4124C86.6268 65.7453 86.6834 66.1181 86.6834 66.5309C86.6834 66.9437 86.6268 67.3165 86.5137 67.6494C86.4005 67.9823 86.2374 68.2652 86.0243 68.4982C85.8179 68.7313 85.5616 68.911 85.2554 69.0375C84.9558 69.164 84.6162 69.2273 84.2367 69.2273ZM84.2367 68.3684C84.6362 68.3684 84.9524 68.2486 85.1855 68.0089C85.4251 67.7626 85.545 67.3997 85.545 66.9204V66.1414C85.545 65.6621 85.4251 65.3025 85.1855 65.0629C84.9524 64.8165 84.6362 64.6934 84.2367 64.6934C83.8373 64.6934 83.5177 64.8165 83.278 65.0629C83.045 65.3025 82.9285 65.6621 82.9285 66.1414V66.9204C82.9285 67.3997 83.045 67.7626 83.278 68.0089C83.5177 68.2486 83.8373 68.3684 84.2367 68.3684ZM88.0677 69.1074V63.9543H89.1562V64.8332H89.2061C89.2594 64.7 89.326 64.5735 89.4059 64.4537C89.4924 64.3272 89.5956 64.2207 89.7155 64.1341C89.8353 64.0409 89.9751 63.9677 90.1349 63.9144C90.2947 63.8611 90.4811 63.8345 90.6941 63.8345C91.2134 63.8345 91.6329 64.0043 91.9525 64.3438C92.272 64.6834 92.4318 65.1661 92.4318 65.7919V69.1074H91.3433V65.9517C91.3433 65.1328 90.9871 64.7233 90.2747 64.7233C90.1349 64.7233 89.9984 64.7433 89.8653 64.7832C89.7321 64.8165 89.6123 64.8698 89.5057 64.943C89.3992 65.0163 89.3127 65.1095 89.2461 65.2226C89.1862 65.3358 89.1562 65.4656 89.1562 65.6121V69.1074H88.0677ZM96.2228 69.2273C95.6636 69.2273 95.1809 69.1374 94.7748 68.9576C94.3753 68.7779 94.0524 68.5382 93.8061 68.2386L94.4752 67.6394C94.7015 67.8857 94.9545 68.0755 95.2341 68.2086C95.5204 68.3351 95.8566 68.3984 96.2428 68.3984C96.5956 68.3984 96.8786 68.3385 97.0916 68.2186C97.3113 68.0988 97.4212 67.9124 97.4212 67.6594C97.4212 67.5528 97.4012 67.463 97.3613 67.3897C97.3213 67.3165 97.2647 67.2566 97.1915 67.21C97.1183 67.1634 97.0317 67.1268 96.9319 67.1001C96.8386 67.0735 96.7388 67.0535 96.6323 67.0402L95.8134 66.9104C95.6136 66.8837 95.4106 66.8405 95.2042 66.7805C94.9978 66.7206 94.8114 66.6374 94.6449 66.5309C94.4851 66.4177 94.352 66.2746 94.2455 66.1015C94.1456 65.9284 94.0957 65.7087 94.0957 65.4423C94.0957 64.9164 94.2954 64.5169 94.6949 64.244C95.101 63.971 95.6336 63.8345 96.2927 63.8345C96.7721 63.8345 97.1848 63.9077 97.531 64.0542C97.8839 64.194 98.1768 64.3904 98.4099 64.6434L97.8007 65.2826C97.6675 65.1294 97.4778 64.9896 97.2315 64.8631C96.9851 64.73 96.6589 64.6634 96.2528 64.6634C95.5271 64.6634 95.1642 64.8931 95.1642 65.3525C95.1642 65.5722 95.2408 65.7253 95.3939 65.8119C95.5537 65.8917 95.7401 65.945 95.9532 65.9716L96.7721 66.1015C96.9785 66.1348 97.1815 66.178 97.3812 66.2313C97.5876 66.2845 97.7707 66.3678 97.9305 66.481C98.097 66.5875 98.2301 66.7273 98.33 66.9004C98.4365 67.0735 98.4898 67.2932 98.4898 67.5595C98.4898 68.0788 98.2867 68.4883 97.8806 68.7879C97.4811 69.0808 96.9285 69.2273 96.2228 69.2273ZM102.311 69.2273C101.918 69.2273 101.565 69.164 101.252 69.0375C100.939 68.911 100.676 68.7313 100.463 68.4982C100.25 68.2652 100.087 67.9856 99.9739 67.6594C99.8607 67.3265 99.8041 66.9537 99.8041 66.5409C99.8041 66.1281 99.8607 65.7553 99.9739 65.4224C100.094 65.0895 100.257 64.8065 100.463 64.5735C100.676 64.3338 100.933 64.1508 101.232 64.0243C101.532 63.8978 101.865 63.8345 102.231 63.8345C102.59 63.8345 102.917 63.8978 103.21 64.0243C103.502 64.1441 103.752 64.3172 103.959 64.5436C104.165 64.7699 104.321 65.0396 104.428 65.3525C104.541 65.6654 104.598 66.0116 104.598 66.3911V66.8005H100.903V66.9703C100.903 67.3764 101.029 67.7093 101.282 67.969C101.535 68.2219 101.885 68.3484 102.331 68.3484C102.664 68.3484 102.947 68.2785 103.18 68.1387C103.419 67.9923 103.612 67.7992 103.759 67.5595L104.438 68.1587C104.265 68.4583 103.998 68.7113 103.639 68.9177C103.286 69.1241 102.843 69.2273 102.311 69.2273ZM102.231 64.6634C102.038 64.6634 101.858 64.6967 101.692 64.7633C101.532 64.8298 101.392 64.9264 101.272 65.0529C101.159 65.1727 101.069 65.3159 101.002 65.4823C100.936 65.6487 100.903 65.8318 100.903 66.0316V66.1015H103.489V66.0016C103.489 65.5955 103.373 65.2726 103.14 65.0329C102.913 64.7866 102.61 64.6634 102.231 64.6634Z" fill="#404968"/>
<path d="M117.762 69.1074V68.1787H119.719V62.9557H119.639L118.021 64.6834L117.332 64.0642L119.11 62.1368H120.837V68.1787H122.525V69.1074H117.762ZM123.75 69.1074V68.1787H125.707V62.9557H125.627L124.009 64.6834L123.32 64.0642L125.098 62.1368H126.826V68.1787H128.513V69.1074H123.75Z" fill="#B9C0D4"/>
<path d="M136.296 68.2286H137.943V64.8332H136.196V63.9543H137.943V63.0256C137.943 62.6394 138.05 62.3265 138.263 62.0869C138.476 61.8405 138.809 61.7174 139.262 61.7174H140.999V62.5962H139.032V63.9543H140.999V64.8332H139.032V68.2286H140.77V69.1074H136.296V68.2286ZM144.82 63.0156C144.541 63.0156 144.344 62.959 144.231 62.8458C144.124 62.7327 144.071 62.5928 144.071 62.4264V62.2167C144.071 62.0502 144.124 61.9104 144.231 61.7972C144.344 61.6841 144.537 61.6275 144.81 61.6275C145.09 61.6275 145.283 61.6841 145.389 61.7972C145.503 61.9104 145.559 62.0502 145.559 62.2167V62.4264C145.559 62.5928 145.503 62.7327 145.389 62.8458C145.283 62.959 145.093 63.0156 144.82 63.0156ZM142.513 68.2286H144.271V64.8332H142.513V63.9543H145.359V68.2286H147.007V69.1074H142.513V68.2286ZM150.798 69.1074C150.346 69.1074 150.013 68.9876 149.8 68.7479C149.587 68.5016 149.48 68.1853 149.48 67.7992V64.8332H147.892V63.9543H149.021C149.214 63.9543 149.35 63.9177 149.43 63.8445C149.51 63.7646 149.55 63.6248 149.55 63.4251V62.1368H150.569V63.9543H152.766V64.8332H150.569V68.2286H152.766V69.1074H150.798Z" fill="#404968"/>
<path d="M195.99 69.1074V68.1787H197.948V62.9557H197.868L196.25 64.6834L195.561 64.0642L197.338 62.1368H199.066V68.1787H200.754V69.1074H195.99ZM206.542 69.1074H201.729V68.0389L204.005 66.0515C204.365 65.732 204.641 65.429 204.834 65.1428C205.034 64.8565 205.134 64.5535 205.134 64.234V64.1241C205.134 63.7579 205.034 63.4783 204.834 63.2852C204.635 63.0855 204.345 62.9856 203.966 62.9856C203.579 62.9856 203.28 63.0888 203.067 63.2952C202.86 63.5016 202.711 63.7646 202.617 64.0842L201.639 63.7147C201.705 63.495 201.802 63.2852 201.928 63.0855C202.055 62.8791 202.215 62.696 202.408 62.5363C202.607 62.3765 202.84 62.25 203.107 62.1568C203.38 62.0636 203.693 62.017 204.045 62.017C204.405 62.017 204.724 62.0702 205.004 62.1767C205.29 62.2766 205.53 62.4164 205.723 62.5962C205.916 62.7759 206.063 62.9923 206.163 63.2453C206.262 63.4916 206.312 63.7646 206.312 64.0642C206.312 64.3438 206.269 64.6035 206.183 64.8432C206.103 65.0762 205.986 65.3025 205.833 65.5222C205.687 65.7353 205.51 65.9417 205.304 66.1414C205.097 66.3411 204.871 66.5409 204.625 66.7406L202.937 68.1587H206.542V69.1074Z" fill="#B9C0D4"/>
<path d="M216.931 69.2273C216.545 69.2273 216.198 69.164 215.892 69.0375C215.593 68.911 215.336 68.7313 215.123 68.4982C214.917 68.2652 214.757 67.9823 214.644 67.6494C214.537 67.3165 214.484 66.9437 214.484 66.5309C214.484 66.1181 214.537 65.7453 214.644 65.4124C214.757 65.0795 214.917 64.7965 215.123 64.5635C215.336 64.3305 215.593 64.1508 215.892 64.0243C216.198 63.8978 216.541 63.8345 216.921 63.8345C217.453 63.8345 217.88 63.9477 218.199 64.1741C218.525 64.4004 218.768 64.6934 218.928 65.0529L218.079 65.5123C217.986 65.2726 217.843 65.0828 217.65 64.943C217.463 64.8032 217.22 64.7333 216.921 64.7333C216.508 64.7333 216.188 64.8598 215.962 65.1128C215.736 65.3591 215.623 65.6887 215.623 66.1015V66.9603C215.623 67.3664 215.736 67.696 215.962 67.949C216.188 68.202 216.515 68.3285 216.941 68.3285C217.26 68.3285 217.52 68.2552 217.72 68.1088C217.926 67.9623 218.089 67.7626 218.209 67.5096L219.008 67.9989C218.842 68.3584 218.589 68.6547 218.249 68.8877C217.91 69.1141 217.47 69.2273 216.931 69.2273ZM224.647 69.1074C224.334 69.1074 224.097 69.0275 223.938 68.8677C223.784 68.708 223.691 68.4982 223.658 68.2386H223.608C223.508 68.5515 223.325 68.7945 223.059 68.9676C222.799 69.1407 222.466 69.2273 222.06 69.2273C221.534 69.2273 221.115 69.0908 220.802 68.8178C220.489 68.5382 220.332 68.1554 220.332 67.6694C220.332 67.17 220.515 66.7905 220.882 66.5309C221.254 66.2646 221.824 66.1314 222.589 66.1314H223.578V65.732C223.578 65.0329 223.208 64.6834 222.469 64.6834C222.137 64.6834 221.867 64.7499 221.661 64.8831C221.454 65.0096 221.281 65.1794 221.141 65.3924L220.492 64.8631C220.639 64.5835 220.885 64.3438 221.231 64.1441C221.577 63.9377 222.023 63.8345 222.569 63.8345C223.222 63.8345 223.734 63.991 224.107 64.3039C224.48 64.6168 224.667 65.0695 224.667 65.6621V68.2486H225.316V69.1074H224.647ZM222.37 68.4283C222.722 68.4283 223.012 68.3484 223.238 68.1887C223.465 68.0289 223.578 67.8225 223.578 67.5695V66.8205H222.609C221.824 66.8205 221.431 67.0568 221.431 67.5295V67.7293C221.431 67.9623 221.514 68.1387 221.681 68.2586C221.847 68.3717 222.077 68.4283 222.37 68.4283ZM226.161 69.1074V63.9543H227.089V64.6234H227.139C227.219 64.4037 227.332 64.2173 227.479 64.0642C227.632 63.9111 227.848 63.8345 228.128 63.8345C228.401 63.8345 228.611 63.9111 228.757 64.0642C228.91 64.2107 229.007 64.4137 229.047 64.6734H229.087C229.18 64.4404 229.31 64.244 229.476 64.0842C229.643 63.9177 229.882 63.8345 230.195 63.8345C230.595 63.8345 230.871 63.9743 231.024 64.2539C231.184 64.5336 231.264 64.943 231.264 65.4823V69.1074H230.335V65.6221C230.335 65.2626 230.292 65.0163 230.205 64.8831C230.119 64.7433 229.979 64.6734 229.786 64.6734C229.613 64.6734 229.466 64.7333 229.346 64.8531C229.233 64.9663 229.177 65.1394 229.177 65.3724V69.1074H228.248V65.6221C228.248 65.2626 228.205 65.0163 228.118 64.8831C228.038 64.7433 227.902 64.6734 227.709 64.6734C227.529 64.6734 227.379 64.7333 227.259 64.8531C227.146 64.9663 227.089 65.1394 227.089 65.3724V69.1074H226.161ZM232.498 63.9543H233.587V64.8332H233.647C233.8 64.5203 234.003 64.2772 234.256 64.1041C234.509 63.9244 234.825 63.8345 235.205 63.8345C235.81 63.8345 236.293 64.0609 236.653 64.5136C237.012 64.9663 237.192 65.6388 237.192 66.5309C237.192 67.423 237.012 68.0954 236.653 68.5482C236.293 69.0009 235.81 69.2273 235.205 69.2273C234.825 69.2273 234.509 69.1407 234.256 68.9676C234.003 68.7879 233.8 68.5415 233.647 68.2286H233.587V71.1047H232.498V63.9543ZM234.755 68.3385C235.168 68.3385 235.484 68.212 235.704 67.959C235.93 67.706 236.043 67.3698 236.043 66.9503V66.1114C236.043 65.692 235.93 65.3558 235.704 65.1028C235.484 64.8498 235.168 64.7233 234.755 64.7233C234.595 64.7233 234.446 64.7433 234.306 64.7832C234.166 64.8232 234.043 64.8831 233.936 64.963C233.83 65.0429 233.743 65.1428 233.677 65.2626C233.617 65.3758 233.587 65.5123 233.587 65.672V67.3897C233.587 67.5495 233.617 67.6893 233.677 67.8092C233.743 67.9223 233.83 68.0189 233.936 68.0988C234.043 68.1787 234.166 68.2386 234.306 68.2785C234.446 68.3185 234.595 68.3385 234.755 68.3385Z" fill="#404968"/>
</g>
<g filter="url(#filter1_d_5504_60183)">
<rect x="24" y="102" width="24" height="24" rx="12" fill="#3FB534" shape-rendering="crispEdges"/>
<path d="M30.375 112.125H41.625M30.375 115.875H41.625M36 108.375V119.625M33.375 108.375H38.625C39.6751 108.375 40.2001 108.375 40.6012 108.579C40.954 108.759 41.2409 109.046 41.4206 109.399C41.625 109.8 41.625 110.325 41.625 111.375V116.625C41.625 117.675 41.625 118.2 41.4206 118.601C41.2409 118.954 40.954 119.241 40.6012 119.421C40.2001 119.625 39.6751 119.625 38.625 119.625H33.375C32.3249 119.625 31.7999 119.625 31.3988 119.421C31.046 119.241 30.7591 118.954 30.5794 118.601C30.375 118.2 30.375 117.675 30.375 116.625V111.375C30.375 110.325 30.375 109.8 30.5794 109.399C30.7591 109.046 31.046 108.759 31.3988 108.579C31.7999 108.375 32.3249 108.375 33.375 108.375Z" stroke="white" stroke-width="1.5" stroke-linecap="round" stroke-linejoin="round"/>
</g>
<path d="M67.5966 120L64.3125 108.364H66.5795L68.6761 116.915H68.7841L71.0227 108.364H73.0852L75.3295 116.92H75.4318L77.5284 108.364H79.7955L76.5114 120H74.4318L72.1023 111.835H72.0114L69.6761 120H67.5966ZM81.1662 120V111.273H83.223V120H81.1662ZM82.2003 110.034C81.8745 110.034 81.5942 109.926 81.3594 109.71C81.1245 109.491 81.0071 109.227 81.0071 108.92C81.0071 108.61 81.1245 108.347 81.3594 108.131C81.5942 107.911 81.8745 107.801 82.2003 107.801C82.5298 107.801 82.8101 107.911 83.0412 108.131C83.276 108.347 83.3935 108.61 83.3935 108.92C83.3935 109.227 83.276 109.491 83.0412 109.71C82.8101 109.926 82.5298 110.034 82.2003 110.034ZM89.696 111.273V112.864H84.679V111.273H89.696ZM85.9176 109.182H87.9744V117.375C87.9744 117.652 88.0161 117.864 88.0994 118.011C88.1866 118.155 88.3002 118.254 88.4403 118.307C88.5805 118.36 88.7358 118.386 88.9062 118.386C89.035 118.386 89.1525 118.377 89.2585 118.358C89.3684 118.339 89.4517 118.322 89.5085 118.307L89.8551 119.915C89.7453 119.953 89.5881 119.994 89.3835 120.04C89.1828 120.085 88.9366 120.112 88.6449 120.119C88.1297 120.134 87.6657 120.057 87.2528 119.886C86.84 119.712 86.5123 119.443 86.2699 119.08C86.0313 118.716 85.9138 118.261 85.9176 117.716V109.182ZM93.6605 114.886V120H91.6037V108.364H93.6151V112.756H93.7173C93.9219 112.263 94.2382 111.875 94.6662 111.591C95.098 111.303 95.6473 111.159 96.3139 111.159C96.92 111.159 97.4484 111.286 97.8991 111.54C98.3499 111.794 98.6984 112.165 98.9446 112.653C99.1946 113.142 99.3196 113.739 99.3196 114.443V120H97.2628V114.761C97.2628 114.174 97.1113 113.718 96.8082 113.392C96.509 113.062 96.0885 112.898 95.5469 112.898C95.1832 112.898 94.8575 112.977 94.5696 113.136C94.2855 113.292 94.062 113.517 93.8991 113.812C93.7401 114.108 93.6605 114.466 93.6605 114.886ZM105.476 120V108.364H109.839C110.733 108.364 111.483 108.519 112.089 108.83C112.699 109.14 113.16 109.576 113.47 110.136C113.785 110.693 113.942 111.343 113.942 112.085C113.942 112.831 113.783 113.479 113.464 114.028C113.15 114.574 112.686 114.996 112.072 115.295C111.459 115.591 110.705 115.739 109.811 115.739H106.703V113.989H109.527C110.05 113.989 110.478 113.917 110.811 113.773C111.144 113.625 111.391 113.411 111.55 113.131C111.713 112.847 111.794 112.498 111.794 112.085C111.794 111.672 111.713 111.32 111.55 111.028C111.387 110.733 111.139 110.509 110.805 110.358C110.472 110.203 110.042 110.125 109.516 110.125H107.584V120H105.476ZM111.487 114.727L114.368 120H112.016L109.186 114.727H111.487ZM119.53 120.17C118.655 120.17 117.899 119.989 117.263 119.625C116.63 119.258 116.143 118.739 115.803 118.068C115.462 117.394 115.291 116.6 115.291 115.688C115.291 114.79 115.462 114.002 115.803 113.324C116.147 112.642 116.628 112.112 117.246 111.733C117.863 111.35 118.589 111.159 119.422 111.159C119.96 111.159 120.467 111.246 120.945 111.42C121.426 111.591 121.85 111.856 122.217 112.216C122.589 112.576 122.88 113.034 123.092 113.591C123.304 114.144 123.411 114.803 123.411 115.568V116.199H116.257V114.812H121.439C121.435 114.419 121.35 114.068 121.183 113.761C121.017 113.451 120.784 113.206 120.484 113.028C120.189 112.85 119.844 112.761 119.45 112.761C119.03 112.761 118.661 112.864 118.342 113.068C118.024 113.269 117.776 113.534 117.598 113.864C117.424 114.189 117.335 114.547 117.331 114.938V116.148C117.331 116.655 117.424 117.091 117.609 117.455C117.795 117.814 118.054 118.091 118.388 118.284C118.721 118.473 119.111 118.568 119.558 118.568C119.857 118.568 120.128 118.527 120.371 118.443C120.613 118.356 120.823 118.229 121.001 118.062C121.179 117.896 121.314 117.689 121.405 117.443L123.325 117.659C123.204 118.167 122.973 118.61 122.632 118.989C122.295 119.364 121.863 119.655 121.337 119.864C120.81 120.068 120.208 120.17 119.53 120.17ZM128.957 120.17C128.086 120.17 127.338 119.979 126.713 119.597C126.092 119.214 125.613 118.686 125.276 118.011C124.942 117.333 124.776 116.553 124.776 115.67C124.776 114.784 124.946 114.002 125.287 113.324C125.628 112.642 126.109 112.112 126.73 111.733C127.355 111.35 128.094 111.159 128.946 111.159C129.654 111.159 130.281 111.29 130.827 111.551C131.376 111.809 131.813 112.174 132.139 112.648C132.465 113.117 132.651 113.667 132.696 114.295H130.73C130.651 113.875 130.461 113.525 130.162 113.244C129.866 112.96 129.471 112.818 128.974 112.818C128.554 112.818 128.185 112.932 127.866 113.159C127.548 113.383 127.3 113.705 127.122 114.125C126.948 114.545 126.861 115.049 126.861 115.636C126.861 116.231 126.948 116.742 127.122 117.17C127.296 117.595 127.541 117.922 127.855 118.153C128.173 118.381 128.546 118.494 128.974 118.494C129.277 118.494 129.548 118.437 129.787 118.324C130.029 118.206 130.232 118.038 130.395 117.818C130.558 117.598 130.67 117.331 130.73 117.017H132.696C132.647 117.634 132.465 118.182 132.151 118.659C131.836 119.133 131.408 119.504 130.866 119.773C130.325 120.038 129.688 120.17 128.957 120.17ZM138.192 120.17C137.339 120.17 136.601 119.983 135.976 119.608C135.351 119.233 134.866 118.708 134.521 118.034C134.18 117.36 134.01 116.572 134.01 115.67C134.01 114.769 134.18 113.979 134.521 113.301C134.866 112.623 135.351 112.097 135.976 111.722C136.601 111.347 137.339 111.159 138.192 111.159C139.044 111.159 139.783 111.347 140.408 111.722C141.033 112.097 141.516 112.623 141.857 113.301C142.201 113.979 142.374 114.769 142.374 115.67C142.374 116.572 142.201 117.36 141.857 118.034C141.516 118.708 141.033 119.233 140.408 119.608C139.783 119.983 139.044 120.17 138.192 120.17ZM138.203 118.523C138.665 118.523 139.052 118.396 139.362 118.142C139.673 117.884 139.904 117.54 140.055 117.108C140.211 116.676 140.288 116.195 140.288 115.665C140.288 115.131 140.211 114.648 140.055 114.216C139.904 113.78 139.673 113.434 139.362 113.176C139.052 112.919 138.665 112.79 138.203 112.79C137.73 112.79 137.336 112.919 137.021 113.176C136.711 113.434 136.478 113.78 136.322 114.216C136.171 114.648 136.095 115.131 136.095 115.665C136.095 116.195 136.171 116.676 136.322 117.108C136.478 117.54 136.711 117.884 137.021 118.142C137.336 118.396 137.73 118.523 138.203 118.523ZM151.618 111.273L148.51 120H146.237L143.129 111.273H145.322L147.328 117.756H147.419L149.43 111.273H151.618ZM156.608 120.17C155.733 120.17 154.977 119.989 154.341 119.625C153.708 119.258 153.222 118.739 152.881 118.068C152.54 117.394 152.369 116.6 152.369 115.688C152.369 114.79 152.54 114.002 152.881 113.324C153.225 112.642 153.706 112.112 154.324 111.733C154.941 111.35 155.667 111.159 156.5 111.159C157.038 111.159 157.545 111.246 158.023 111.42C158.504 111.591 158.928 111.856 159.295 112.216C159.667 112.576 159.958 113.034 160.17 113.591C160.383 114.144 160.489 114.803 160.489 115.568V116.199H153.335V114.812H158.517C158.513 114.419 158.428 114.068 158.261 113.761C158.095 113.451 157.862 113.206 157.562 113.028C157.267 112.85 156.922 112.761 156.528 112.761C156.108 112.761 155.739 112.864 155.42 113.068C155.102 113.269 154.854 113.534 154.676 113.864C154.502 114.189 154.413 114.547 154.409 114.938V116.148C154.409 116.655 154.502 117.091 154.688 117.455C154.873 117.814 155.133 118.091 155.466 118.284C155.799 118.473 156.189 118.568 156.636 118.568C156.936 118.568 157.206 118.527 157.449 118.443C157.691 118.356 157.902 118.229 158.08 118.062C158.258 117.896 158.392 117.689 158.483 117.443L160.403 117.659C160.282 118.167 160.051 118.61 159.71 118.989C159.373 119.364 158.941 119.655 158.415 119.864C157.888 120.068 157.286 120.17 156.608 120.17ZM162.229 120V111.273H164.223V112.727H164.314C164.473 112.223 164.746 111.835 165.132 111.562C165.522 111.286 165.967 111.148 166.467 111.148C166.581 111.148 166.708 111.153 166.848 111.165C166.992 111.172 167.111 111.186 167.206 111.205V113.097C167.119 113.066 166.981 113.04 166.791 113.017C166.606 112.991 166.426 112.977 166.251 112.977C165.876 112.977 165.539 113.059 165.24 113.222C164.945 113.381 164.712 113.602 164.541 113.886C164.371 114.17 164.286 114.498 164.286 114.869V120H162.229ZM170.116 123.273C169.836 123.273 169.577 123.25 169.338 123.205C169.103 123.163 168.916 123.114 168.776 123.057L169.253 121.455C169.552 121.542 169.819 121.583 170.054 121.58C170.289 121.576 170.495 121.502 170.673 121.358C170.855 121.218 171.009 120.983 171.134 120.653L171.31 120.182L168.145 111.273H170.327L172.338 117.864H172.429L174.446 111.273H176.634L173.139 121.057C172.976 121.519 172.76 121.915 172.491 122.244C172.223 122.578 171.893 122.831 171.503 123.006C171.116 123.184 170.654 123.273 170.116 123.273ZM182.116 120V108.364H186.48C187.374 108.364 188.124 108.53 188.73 108.864C189.34 109.197 189.8 109.655 190.111 110.239C190.425 110.818 190.582 111.477 190.582 112.216C190.582 112.962 190.425 113.625 190.111 114.205C189.796 114.784 189.332 115.241 188.719 115.574C188.105 115.903 187.349 116.068 186.452 116.068H183.56V114.335H186.168C186.69 114.335 187.118 114.244 187.452 114.062C187.785 113.881 188.031 113.631 188.19 113.312C188.353 112.994 188.435 112.629 188.435 112.216C188.435 111.803 188.353 111.439 188.19 111.125C188.031 110.811 187.783 110.566 187.446 110.392C187.113 110.214 186.683 110.125 186.156 110.125H184.224V120H182.116ZM194.379 114.886V120H192.322V108.364H194.334V112.756H194.436C194.641 112.263 194.957 111.875 195.385 111.591C195.817 111.303 196.366 111.159 197.033 111.159C197.639 111.159 198.167 111.286 198.618 111.54C199.069 111.794 199.417 112.165 199.663 112.653C199.913 113.142 200.038 113.739 200.038 114.443V120H197.982V114.761C197.982 114.174 197.83 113.718 197.527 113.392C197.228 113.062 196.807 112.898 196.266 112.898C195.902 112.898 195.576 112.977 195.288 113.136C195.004 113.292 194.781 113.517 194.618 113.812C194.459 114.108 194.379 114.466 194.379 114.886ZM202.135 120V111.273H204.129V112.727H204.22C204.379 112.223 204.652 111.835 205.038 111.562C205.429 111.286 205.874 111.148 206.374 111.148C206.487 111.148 206.614 111.153 206.754 111.165C206.898 111.172 207.018 111.186 207.112 111.205V113.097C207.025 113.066 206.887 113.04 206.697 113.017C206.512 112.991 206.332 112.977 206.158 112.977C205.783 112.977 205.446 113.059 205.146 113.222C204.851 113.381 204.618 113.602 204.447 113.886C204.277 114.17 204.192 114.498 204.192 114.869V120H202.135ZM210.834 120.176C210.281 120.176 209.783 120.078 209.339 119.881C208.9 119.68 208.552 119.384 208.294 118.994C208.04 118.604 207.913 118.123 207.913 117.551C207.913 117.059 208.004 116.652 208.186 116.33C208.368 116.008 208.616 115.75 208.93 115.557C209.245 115.364 209.599 115.218 209.993 115.119C210.391 115.017 210.802 114.943 211.226 114.898C211.737 114.845 212.152 114.797 212.47 114.756C212.788 114.71 213.019 114.642 213.163 114.551C213.311 114.456 213.385 114.311 213.385 114.114V114.08C213.385 113.652 213.258 113.32 213.004 113.085C212.75 112.85 212.385 112.733 211.908 112.733C211.404 112.733 211.004 112.843 210.709 113.062C210.417 113.282 210.22 113.542 210.118 113.841L208.197 113.568C208.349 113.038 208.599 112.595 208.947 112.239C209.296 111.879 209.722 111.61 210.226 111.432C210.73 111.25 211.286 111.159 211.896 111.159C212.317 111.159 212.735 111.208 213.152 111.307C213.569 111.405 213.949 111.568 214.294 111.795C214.639 112.019 214.915 112.324 215.124 112.71C215.336 113.097 215.442 113.58 215.442 114.159V120H213.464V118.801H213.396C213.271 119.044 213.095 119.271 212.868 119.483C212.644 119.691 212.362 119.86 212.021 119.989C211.684 120.114 211.288 120.176 210.834 120.176ZM211.368 118.665C211.781 118.665 212.139 118.583 212.442 118.42C212.745 118.254 212.978 118.034 213.141 117.761C213.307 117.489 213.391 117.191 213.391 116.869V115.841C213.326 115.894 213.216 115.943 213.061 115.989C212.91 116.034 212.739 116.074 212.55 116.108C212.36 116.142 212.173 116.172 211.987 116.199C211.802 116.225 211.641 116.248 211.504 116.267C211.197 116.309 210.923 116.377 210.68 116.472C210.438 116.566 210.247 116.699 210.107 116.869C209.966 117.036 209.896 117.252 209.896 117.517C209.896 117.896 210.035 118.182 210.311 118.375C210.588 118.568 210.94 118.665 211.368 118.665ZM224.408 113.58L222.533 113.784C222.48 113.595 222.387 113.417 222.254 113.25C222.125 113.083 221.951 112.949 221.732 112.847C221.512 112.744 221.243 112.693 220.925 112.693C220.497 112.693 220.137 112.786 219.845 112.972C219.557 113.157 219.415 113.398 219.419 113.693C219.415 113.947 219.508 114.153 219.697 114.312C219.891 114.472 220.209 114.602 220.652 114.705L222.141 115.023C222.966 115.201 223.58 115.483 223.982 115.869C224.387 116.256 224.591 116.761 224.595 117.386C224.591 117.936 224.43 118.42 224.112 118.841C223.798 119.258 223.36 119.583 222.8 119.818C222.239 120.053 221.595 120.17 220.868 120.17C219.8 120.17 218.94 119.947 218.288 119.5C217.637 119.049 217.249 118.422 217.124 117.619L219.129 117.426C219.22 117.82 219.413 118.117 219.709 118.318C220.004 118.519 220.389 118.619 220.862 118.619C221.351 118.619 221.743 118.519 222.038 118.318C222.338 118.117 222.487 117.869 222.487 117.574C222.487 117.324 222.391 117.117 222.197 116.955C222.008 116.792 221.713 116.667 221.311 116.58L219.822 116.267C218.985 116.093 218.366 115.799 217.964 115.386C217.563 114.97 217.364 114.443 217.368 113.807C217.364 113.269 217.51 112.803 217.805 112.409C218.105 112.011 218.519 111.705 219.05 111.489C219.584 111.269 220.199 111.159 220.896 111.159C221.919 111.159 222.724 111.377 223.311 111.812C223.902 112.248 224.268 112.837 224.408 113.58ZM230.155 120.17C229.28 120.17 228.524 119.989 227.888 119.625C227.255 119.258 226.768 118.739 226.428 118.068C226.087 117.394 225.916 116.6 225.916 115.688C225.916 114.79 226.087 114.002 226.428 113.324C226.772 112.642 227.253 112.112 227.871 111.733C228.488 111.35 229.214 111.159 230.047 111.159C230.585 111.159 231.092 111.246 231.57 111.42C232.051 111.591 232.475 111.856 232.842 112.216C233.214 112.576 233.505 113.034 233.717 113.591C233.929 114.144 234.036 114.803 234.036 115.568V116.199H226.882V114.812H232.064C232.06 114.419 231.975 114.068 231.808 113.761C231.642 113.451 231.409 113.206 231.109 113.028C230.814 112.85 230.469 112.761 230.075 112.761C229.655 112.761 229.286 112.864 228.967 113.068C228.649 113.269 228.401 113.534 228.223 113.864C228.049 114.189 227.96 114.547 227.956 114.938V116.148C227.956 116.655 228.049 117.091 228.234 117.455C228.42 117.814 228.679 118.091 229.013 118.284C229.346 118.473 229.736 118.568 230.183 118.568C230.482 118.568 230.753 118.527 230.996 118.443C231.238 118.356 231.448 118.229 231.626 118.062C231.804 117.896 231.939 117.689 232.03 117.443L233.95 117.659C233.829 118.167 233.598 118.61 233.257 118.989C232.92 119.364 232.488 119.655 231.962 119.864C231.435 120.068 230.833 120.17 230.155 120.17Z" fill="#404968"/>
</g>
<defs>
<filter id="filter0_d_5504_60183" x="-8" y="-71.1543" width="312" height="198.577" filterUnits="userSpaceOnUse" color-interpolation-filters="sRGB">
<feFlood flood-opacity="0" result="BackgroundImageFix"/>
<feColorMatrix in="SourceAlpha" type="matrix" values="0 0 0 0 0 0 0 0 0 0 0 0 0 0 0 0 0 0 127 0" result="hardAlpha"/>
<feOffset dy="8"/>
<feGaussianBlur stdDeviation="16"/>
<feColorMatrix type="matrix" values="0 0 0 0 0.679861 0 0 0 0 0.688102 0 0 0 0 0.741667 0 0 0 0.15 0"/>
<feBlend mode="normal" in2="BackgroundImageFix" result="effect1_dropShadow_5504_60183"/>
<feBlend mode="normal" in="SourceGraphic" in2="effect1_dropShadow_5504_60183" result="shape"/>
</filter>
<filter id="filter1_d_5504_60183" x="0" y="78" width="84" height="84" filterUnits="userSpaceOnUse" color-interpolation-filters="sRGB">
<feFlood flood-opacity="0" result="BackgroundImageFix"/>
<feColorMatrix in="SourceAlpha" type="matrix" values="0 0 0 0 0 0 0 0 0 0 0 0 0 0 0 0 0 0 127 0" result="hardAlpha"/>
<feOffset dx="6" dy="6"/>
<feGaussianBlur stdDeviation="15"/>
<feComposite in2="hardAlpha" operator="out"/>
<feColorMatrix type="matrix" values="0 0 0 0 0.490196 0 0 0 0 0.537255 0 0 0 0 0.690196 0 0 0 0.3 0"/>
<feBlend mode="normal" in2="BackgroundImageFix" result="effect1_dropShadow_5504_60183"/>
<feBlend mode="normal" in="SourceGraphic" in2="effect1_dropShadow_5504_60183" result="shape"/>
</filter>
<clipPath id="clip0_5504_60183">
<rect width="298" height="142" rx="16" fill="white"/>
</clipPath>
</defs>
</svg>
