<svg width="298" height="142" viewBox="0 0 298 142" fill="none" xmlns="http://www.w3.org/2000/svg">
<g clip-path="url(#clip0_5504_60336)">
<g filter="url(#filter0_d_5504_60336)">
<rect x="24" y="16" width="250" height="70" rx="16" fill="white"/>
<path d="M45.904 46C45.528 46 45.244 45.904 45.052 45.712C44.868 45.52 44.756 45.268 44.716 44.956H44.656C44.536 45.332 44.316 45.624 43.996 45.832C43.684 46.04 43.284 46.144 42.796 46.144C42.164 46.144 41.66 45.98 41.284 45.652C40.908 45.316 40.72 44.856 40.72 44.272C40.72 43.672 40.94 43.216 41.38 42.904C41.828 42.584 42.512 42.424 43.432 42.424H44.62V41.944C44.62 41.104 44.176 40.684 43.288 40.684C42.888 40.684 42.564 40.764 42.316 40.924C42.068 41.076 41.86 41.28 41.692 41.536L40.912 40.9C41.088 40.564 41.384 40.276 41.8 40.036C42.216 39.788 42.752 39.664 43.408 39.664C44.192 39.664 44.808 39.852 45.256 40.228C45.704 40.604 45.928 41.148 45.928 41.86V44.968H46.708V46H45.904ZM43.168 45.184C43.592 45.184 43.94 45.088 44.212 44.896C44.484 44.704 44.62 44.456 44.62 44.152V43.252H43.456C42.512 43.252 42.04 43.536 42.04 44.104V44.344C42.04 44.624 42.14 44.836 42.34 44.98C42.54 45.116 42.816 45.184 43.168 45.184ZM48.2033 37.12H49.5113V40.864H49.5713C49.6353 40.704 49.7153 40.552 49.8113 40.408C49.9153 40.256 50.0393 40.128 50.1833 40.024C50.3273 39.912 50.4953 39.824 50.6873 39.76C50.8793 39.696 51.1033 39.664 51.3593 39.664C51.9833 39.664 52.4873 39.868 52.8713 40.276C53.2553 40.684 53.4473 41.264 53.4473 42.016V46H52.1393V42.208C52.1393 41.224 51.7113 40.732 50.8553 40.732C50.6873 40.732 50.5233 40.756 50.3633 40.804C50.2033 40.844 50.0593 40.908 49.9313 40.996C49.8033 41.084 49.6993 41.196 49.6193 41.332C49.5473 41.468 49.5113 41.624 49.5113 41.8V46H48.2033V37.12ZM58.0026 46.144C57.3306 46.144 56.7506 46.036 56.2626 45.82C55.7826 45.604 55.3946 45.316 55.0986 44.956L55.9026 44.236C56.1746 44.532 56.4786 44.76 56.8146 44.92C57.1586 45.072 57.5626 45.148 58.0266 45.148C58.4506 45.148 58.7906 45.076 59.0466 44.932C59.3106 44.788 59.4426 44.564 59.4426 44.26C59.4426 44.132 59.4186 44.024 59.3706 43.936C59.3226 43.848 59.2546 43.776 59.1666 43.72C59.0786 43.664 58.9746 43.62 58.8546 43.588C58.7426 43.556 58.6226 43.532 58.4946 43.516L57.5106 43.36C57.2706 43.328 57.0266 43.276 56.7786 43.204C56.5306 43.132 56.3066 43.032 56.1066 42.904C55.9146 42.768 55.7546 42.596 55.6266 42.388C55.5066 42.18 55.4466 41.916 55.4466 41.596C55.4466 40.964 55.6866 40.484 56.1666 40.156C56.6546 39.828 57.2946 39.664 58.0866 39.664C58.6626 39.664 59.1586 39.752 59.5746 39.928C59.9986 40.096 60.3506 40.332 60.6306 40.636L59.8986 41.404C59.7386 41.22 59.5106 41.052 59.2146 40.9C58.9186 40.74 58.5266 40.66 58.0386 40.66C57.1666 40.66 56.7306 40.936 56.7306 41.488C56.7306 41.752 56.8226 41.936 57.0066 42.04C57.1986 42.136 57.4226 42.2 57.6786 42.232L58.6626 42.388C58.9106 42.428 59.1546 42.48 59.3946 42.544C59.6426 42.608 59.8626 42.708 60.0546 42.844C60.2546 42.972 60.4146 43.14 60.5346 43.348C60.6626 43.556 60.7266 43.82 60.7266 44.14C60.7266 44.764 60.4826 45.256 59.9946 45.616C59.5146 45.968 58.8506 46.144 58.0026 46.144ZM66.5299 44.944H66.4579C66.2739 45.32 66.0299 45.616 65.7259 45.832C65.4219 46.04 65.0419 46.144 64.5859 46.144C63.8579 46.144 63.2779 45.872 62.8459 45.328C62.4139 44.784 62.1979 43.976 62.1979 42.904C62.1979 41.832 62.4139 41.024 62.8459 40.48C63.2779 39.936 63.8579 39.664 64.5859 39.664C65.0419 39.664 65.4219 39.772 65.7259 39.988C66.0299 40.196 66.2739 40.488 66.4579 40.864H66.5299V37.12H67.8379V46H66.5299V44.944ZM65.1259 45.076C65.3179 45.076 65.4979 45.052 65.6659 45.004C65.8339 44.956 65.9819 44.884 66.1099 44.788C66.2379 44.692 66.3379 44.576 66.4099 44.44C66.4899 44.296 66.5299 44.128 66.5299 43.936V41.872C66.5299 41.68 66.4899 41.516 66.4099 41.38C66.3379 41.236 66.2379 41.116 66.1099 41.02C65.9819 40.924 65.8339 40.852 65.6659 40.804C65.4979 40.756 65.3179 40.732 65.1259 40.732C64.6299 40.732 64.2459 40.884 63.9739 41.188C63.7099 41.492 63.5779 41.896 63.5779 42.4V43.408C63.5779 43.912 63.7099 44.316 63.9739 44.62C64.2459 44.924 64.6299 45.076 65.1259 45.076ZM72.3813 46.144C71.9253 46.144 71.5133 46.068 71.1453 45.916C70.7853 45.764 70.4773 45.548 70.2213 45.268C69.9733 44.988 69.7813 44.648 69.6453 44.248C69.5093 43.848 69.4413 43.4 69.4413 42.904C69.4413 42.408 69.5093 41.96 69.6453 41.56C69.7813 41.16 69.9733 40.82 70.2213 40.54C70.4773 40.26 70.7853 40.044 71.1453 39.892C71.5133 39.74 71.9253 39.664 72.3813 39.664C72.8373 39.664 73.2453 39.74 73.6053 39.892C73.9733 40.044 74.2813 40.26 74.5293 40.54C74.7853 40.82 74.9813 41.16 75.1172 41.56C75.2533 41.96 75.3213 42.408 75.3213 42.904C75.3213 43.4 75.2533 43.848 75.1172 44.248C74.9813 44.648 74.7853 44.988 74.5293 45.268C74.2813 45.548 73.9733 45.764 73.6053 45.916C73.2453 46.068 72.8373 46.144 72.3813 46.144ZM72.3813 45.112C72.8613 45.112 73.2413 44.968 73.5213 44.68C73.8093 44.384 73.9533 43.948 73.9533 43.372V42.436C73.9533 41.86 73.8093 41.428 73.5213 41.14C73.2413 40.844 72.8613 40.696 72.3813 40.696C71.9013 40.696 71.5173 40.844 71.2293 41.14C70.9493 41.428 70.8093 41.86 70.8093 42.436V43.372C70.8093 43.948 70.9493 44.384 71.2293 44.68C71.5173 44.968 71.9013 45.112 72.3813 45.112ZM81.8806 46C81.5046 46 81.2206 45.904 81.0286 45.712C80.8446 45.52 80.7326 45.268 80.6926 44.956H80.6326C80.5126 45.332 80.2926 45.624 79.9726 45.832C79.6606 46.04 79.2606 46.144 78.7726 46.144C78.1406 46.144 77.6366 45.98 77.2606 45.652C76.8846 45.316 76.6966 44.856 76.6966 44.272C76.6966 43.672 76.9166 43.216 77.3566 42.904C77.8046 42.584 78.4886 42.424 79.4086 42.424H80.5966V41.944C80.5966 41.104 80.1526 40.684 79.2646 40.684C78.8646 40.684 78.5406 40.764 78.2926 40.924C78.0446 41.076 77.8366 41.28 77.6686 41.536L76.8886 40.9C77.0646 40.564 77.3606 40.276 77.7766 40.036C78.1926 39.788 78.7286 39.664 79.3846 39.664C80.1686 39.664 80.7846 39.852 81.2326 40.228C81.6806 40.604 81.9046 41.148 81.9046 41.86V44.968H82.6846V46H81.8806ZM79.1446 45.184C79.5686 45.184 79.9166 45.088 80.1886 44.896C80.4606 44.704 80.5966 44.456 80.5966 44.152V43.252H79.4326C78.4886 43.252 78.0166 43.536 78.0166 44.104V44.344C78.0166 44.624 78.1166 44.836 78.3166 44.98C78.5166 45.116 78.7926 45.184 79.1446 45.184ZM84.1799 37.12H85.4879V40.864H85.5479C85.6119 40.704 85.6919 40.552 85.7879 40.408C85.8919 40.256 86.0159 40.128 86.1599 40.024C86.3039 39.912 86.4719 39.824 86.6639 39.76C86.8559 39.696 87.0799 39.664 87.3359 39.664C87.9599 39.664 88.4639 39.868 88.8479 40.276C89.2319 40.684 89.4239 41.264 89.4239 42.016V46H88.1159V42.208C88.1159 41.224 87.6879 40.732 86.8319 40.732C86.6639 40.732 86.4999 40.756 86.3399 40.804C86.1799 40.844 86.0359 40.908 85.9079 40.996C85.7799 41.084 85.6759 41.196 85.5959 41.332C85.5239 41.468 85.4879 41.624 85.4879 41.8V46H84.1799V37.12ZM93.9792 46.144C93.3072 46.144 92.7272 46.036 92.2392 45.82C91.7592 45.604 91.3712 45.316 91.0752 44.956L91.8792 44.236C92.1512 44.532 92.4552 44.76 92.7912 44.92C93.1352 45.072 93.5392 45.148 94.0032 45.148C94.4272 45.148 94.7672 45.076 95.0232 44.932C95.2872 44.788 95.4192 44.564 95.4192 44.26C95.4192 44.132 95.3952 44.024 95.3472 43.936C95.2992 43.848 95.2312 43.776 95.1432 43.72C95.0552 43.664 94.9512 43.62 94.8312 43.588C94.7192 43.556 94.5992 43.532 94.4712 43.516L93.4872 43.36C93.2472 43.328 93.0032 43.276 92.7552 43.204C92.5072 43.132 92.2832 43.032 92.0832 42.904C91.8912 42.768 91.7312 42.596 91.6032 42.388C91.4832 42.18 91.4232 41.916 91.4232 41.596C91.4232 40.964 91.6632 40.484 92.1432 40.156C92.6312 39.828 93.2712 39.664 94.0632 39.664C94.6392 39.664 95.1352 39.752 95.5512 39.928C95.9752 40.096 96.3272 40.332 96.6072 40.636L95.8752 41.404C95.7152 41.22 95.4872 41.052 95.1912 40.9C94.8952 40.74 94.5032 40.66 94.0152 40.66C93.1432 40.66 92.7072 40.936 92.7072 41.488C92.7072 41.752 92.7992 41.936 92.9832 42.04C93.1752 42.136 93.3992 42.2 93.6552 42.232L94.6392 42.388C94.8872 42.428 95.1312 42.48 95.3712 42.544C95.6192 42.608 95.8392 42.708 96.0312 42.844C96.2312 42.972 96.3912 43.14 96.5112 43.348C96.6392 43.556 96.7032 43.82 96.7032 44.14C96.7032 44.764 96.4592 45.256 95.9712 45.616C95.4912 45.968 94.8272 46.144 93.9792 46.144ZM102.507 44.944H102.435C102.251 45.32 102.007 45.616 101.703 45.832C101.399 46.04 101.019 46.144 100.562 46.144C99.8345 46.144 99.2545 45.872 98.8225 45.328C98.3905 44.784 98.1745 43.976 98.1745 42.904C98.1745 41.832 98.3905 41.024 98.8225 40.48C99.2545 39.936 99.8345 39.664 100.562 39.664C101.019 39.664 101.399 39.772 101.703 39.988C102.007 40.196 102.251 40.488 102.435 40.864H102.507V37.12H103.815V46H102.507V44.944ZM101.103 45.076C101.295 45.076 101.475 45.052 101.643 45.004C101.811 44.956 101.959 44.884 102.087 44.788C102.215 44.692 102.315 44.576 102.387 44.44C102.467 44.296 102.507 44.128 102.507 43.936V41.872C102.507 41.68 102.467 41.516 102.387 41.38C102.315 41.236 102.215 41.116 102.087 41.02C101.959 40.924 101.811 40.852 101.643 40.804C101.475 40.756 101.295 40.732 101.103 40.732C100.607 40.732 100.223 40.884 99.9505 41.188C99.6865 41.492 99.5545 41.896 99.5545 42.4V43.408C99.5545 43.912 99.6865 44.316 99.9505 44.62C100.223 44.924 100.607 45.076 101.103 45.076ZM108.742 38.68C108.406 38.68 108.17 38.612 108.034 38.476C107.906 38.34 107.842 38.172 107.842 37.972V37.72C107.842 37.52 107.906 37.352 108.034 37.216C108.17 37.08 108.402 37.012 108.73 37.012C109.066 37.012 109.298 37.08 109.426 37.216C109.562 37.352 109.63 37.52 109.63 37.72V37.972C109.63 38.172 109.562 38.34 109.426 38.476C109.298 38.612 109.07 38.68 108.742 38.68ZM105.97 44.944H108.082V40.864H105.97V39.808H109.39V44.944H111.37V46H105.97V44.944ZM115.553 46.144C115.097 46.144 114.685 46.068 114.317 45.916C113.957 45.764 113.649 45.548 113.393 45.268C113.145 44.988 112.953 44.648 112.817 44.248C112.681 43.848 112.613 43.4 112.613 42.904C112.613 42.408 112.681 41.96 112.817 41.56C112.953 41.16 113.145 40.82 113.393 40.54C113.649 40.26 113.957 40.044 114.317 39.892C114.685 39.74 115.097 39.664 115.553 39.664C116.009 39.664 116.417 39.74 116.777 39.892C117.145 40.044 117.453 40.26 117.701 40.54C117.957 40.82 118.153 41.16 118.289 41.56C118.425 41.96 118.493 42.408 118.493 42.904C118.493 43.4 118.425 43.848 118.289 44.248C118.153 44.648 117.957 44.988 117.701 45.268C117.453 45.548 117.145 45.764 116.777 45.916C116.417 46.068 116.009 46.144 115.553 46.144ZM115.553 45.112C116.033 45.112 116.413 44.968 116.693 44.68C116.981 44.384 117.125 43.948 117.125 43.372V42.436C117.125 41.86 116.981 41.428 116.693 41.14C116.413 40.844 116.033 40.696 115.553 40.696C115.073 40.696 114.689 40.844 114.401 41.14C114.121 41.428 113.981 41.86 113.981 42.436V43.372C113.981 43.948 114.121 44.384 114.401 44.68C114.689 44.968 115.073 45.112 115.553 45.112ZM120.156 37.12H121.464V40.864H121.524C121.588 40.704 121.668 40.552 121.764 40.408C121.868 40.256 121.992 40.128 122.136 40.024C122.28 39.912 122.448 39.824 122.64 39.76C122.832 39.696 123.056 39.664 123.312 39.664C123.936 39.664 124.44 39.868 124.824 40.276C125.208 40.684 125.4 41.264 125.4 42.016V46H124.092V42.208C124.092 41.224 123.664 40.732 122.808 40.732C122.64 40.732 122.476 40.756 122.316 40.804C122.156 40.844 122.012 40.908 121.884 40.996C121.756 41.084 121.652 41.196 121.572 41.332C121.5 41.468 121.464 41.624 121.464 41.8V46H120.156V37.12ZM132.248 46C131.872 46 131.588 45.904 131.396 45.712C131.212 45.52 131.1 45.268 131.06 44.956H131C130.88 45.332 130.66 45.624 130.34 45.832C130.028 46.04 129.628 46.144 129.14 46.144C128.508 46.144 128.004 45.98 127.628 45.652C127.252 45.316 127.064 44.856 127.064 44.272C127.064 43.672 127.284 43.216 127.724 42.904C128.172 42.584 128.856 42.424 129.776 42.424H130.964V41.944C130.964 41.104 130.52 40.684 129.632 40.684C129.232 40.684 128.908 40.764 128.66 40.924C128.412 41.076 128.204 41.28 128.036 41.536L127.256 40.9C127.432 40.564 127.728 40.276 128.144 40.036C128.56 39.788 129.096 39.664 129.752 39.664C130.536 39.664 131.152 39.852 131.6 40.228C132.048 40.604 132.272 41.148 132.272 41.86V44.968H133.052V46H132.248ZM129.512 45.184C129.936 45.184 130.284 45.088 130.556 44.896C130.828 44.704 130.964 44.456 130.964 44.152V43.252H129.8C128.856 43.252 128.384 43.536 128.384 44.104V44.344C128.384 44.624 128.484 44.836 128.684 44.98C128.884 45.116 129.16 45.184 129.512 45.184ZM137.523 38.68C137.187 38.68 136.951 38.612 136.815 38.476C136.687 38.34 136.623 38.172 136.623 37.972V37.72C136.623 37.52 136.687 37.352 136.815 37.216C136.951 37.08 137.183 37.012 137.511 37.012C137.847 37.012 138.079 37.08 138.207 37.216C138.343 37.352 138.411 37.52 138.411 37.72V37.972C138.411 38.172 138.343 38.34 138.207 38.476C138.079 38.612 137.851 38.68 137.523 38.68ZM134.751 44.944H136.863V40.864H134.751V39.808H138.171V44.944H140.151V46H134.751V44.944ZM144.346 46.144C143.674 46.144 143.094 46.036 142.606 45.82C142.126 45.604 141.738 45.316 141.442 44.956L142.246 44.236C142.518 44.532 142.822 44.76 143.158 44.92C143.502 45.072 143.906 45.148 144.37 45.148C144.794 45.148 145.134 45.076 145.39 44.932C145.654 44.788 145.786 44.564 145.786 44.26C145.786 44.132 145.762 44.024 145.714 43.936C145.666 43.848 145.598 43.776 145.51 43.72C145.422 43.664 145.318 43.62 145.198 43.588C145.086 43.556 144.966 43.532 144.838 43.516L143.854 43.36C143.614 43.328 143.37 43.276 143.122 43.204C142.874 43.132 142.65 43.032 142.45 42.904C142.258 42.768 142.098 42.596 141.97 42.388C141.85 42.18 141.79 41.916 141.79 41.596C141.79 40.964 142.03 40.484 142.51 40.156C142.998 39.828 143.638 39.664 144.43 39.664C145.006 39.664 145.502 39.752 145.918 39.928C146.342 40.096 146.694 40.332 146.974 40.636L146.242 41.404C146.082 41.22 145.854 41.052 145.558 40.9C145.262 40.74 144.87 40.66 144.382 40.66C143.51 40.66 143.074 40.936 143.074 41.488C143.074 41.752 143.166 41.936 143.35 42.04C143.542 42.136 143.766 42.2 144.022 42.232L145.006 42.388C145.254 42.428 145.498 42.48 145.738 42.544C145.986 42.608 146.206 42.708 146.398 42.844C146.598 42.972 146.758 43.14 146.878 43.348C147.006 43.556 147.07 43.82 147.07 44.14C147.07 44.764 146.826 45.256 146.338 45.616C145.858 45.968 145.194 46.144 144.346 46.144ZM151.53 46.144C151.074 46.144 150.662 46.068 150.294 45.916C149.934 45.764 149.626 45.548 149.37 45.268C149.122 44.988 148.93 44.648 148.794 44.248C148.658 43.848 148.59 43.4 148.59 42.904C148.59 42.408 148.658 41.96 148.794 41.56C148.93 41.16 149.122 40.82 149.37 40.54C149.626 40.26 149.934 40.044 150.294 39.892C150.662 39.74 151.074 39.664 151.53 39.664C151.986 39.664 152.394 39.74 152.754 39.892C153.122 40.044 153.43 40.26 153.678 40.54C153.934 40.82 154.13 41.16 154.266 41.56C154.402 41.96 154.47 42.408 154.47 42.904C154.47 43.4 154.402 43.848 154.266 44.248C154.13 44.648 153.934 44.988 153.678 45.268C153.43 45.548 153.122 45.764 152.754 45.916C152.394 46.068 151.986 46.144 151.53 46.144ZM151.53 45.112C152.01 45.112 152.39 44.968 152.67 44.68C152.958 44.384 153.102 43.948 153.102 43.372V42.436C153.102 41.86 152.958 41.428 152.67 41.14C152.39 40.844 152.01 40.696 151.53 40.696C151.05 40.696 150.666 40.844 150.378 41.14C150.098 41.428 149.958 41.86 149.958 42.436V43.372C149.958 43.948 150.098 44.384 150.378 44.68C150.666 44.968 151.05 45.112 151.53 45.112ZM160.069 44.944H159.997C159.813 45.32 159.569 45.616 159.265 45.832C158.961 46.04 158.581 46.144 158.125 46.144C157.397 46.144 156.817 45.872 156.385 45.328C155.953 44.784 155.737 43.976 155.737 42.904C155.737 41.832 155.953 41.024 156.385 40.48C156.817 39.936 157.397 39.664 158.125 39.664C158.581 39.664 158.961 39.772 159.265 39.988C159.569 40.196 159.813 40.488 159.997 40.864H160.069V37.12H161.377V46H160.069V44.944ZM158.665 45.076C158.857 45.076 159.037 45.052 159.205 45.004C159.373 44.956 159.521 44.884 159.649 44.788C159.777 44.692 159.877 44.576 159.949 44.44C160.029 44.296 160.069 44.128 160.069 43.936V41.872C160.069 41.68 160.029 41.516 159.949 41.38C159.877 41.236 159.777 41.116 159.649 41.02C159.521 40.924 159.373 40.852 159.205 40.804C159.037 40.756 158.857 40.732 158.665 40.732C158.169 40.732 157.785 40.884 157.513 41.188C157.249 41.492 157.117 41.896 157.117 42.4V43.408C157.117 43.912 157.249 44.316 157.513 44.62C157.785 44.924 158.169 45.076 158.665 45.076ZM163.328 37.12H164.636V40.864H164.696C164.76 40.704 164.84 40.552 164.936 40.408C165.04 40.256 165.164 40.128 165.308 40.024C165.452 39.912 165.62 39.824 165.812 39.76C166.004 39.696 166.228 39.664 166.484 39.664C167.108 39.664 167.612 39.868 167.996 40.276C168.38 40.684 168.572 41.264 168.572 42.016V46H167.264V42.208C167.264 41.224 166.836 40.732 165.98 40.732C165.812 40.732 165.648 40.756 165.488 40.804C165.328 40.844 165.184 40.908 165.056 40.996C164.928 41.084 164.824 41.196 164.744 41.332C164.672 41.468 164.636 41.624 164.636 41.8V46H163.328V37.12ZM175.42 46C175.044 46 174.76 45.904 174.568 45.712C174.384 45.52 174.272 45.268 174.232 44.956H174.172C174.052 45.332 173.832 45.624 173.512 45.832C173.2 46.04 172.8 46.144 172.312 46.144C171.68 46.144 171.176 45.98 170.8 45.652C170.424 45.316 170.236 44.856 170.236 44.272C170.236 43.672 170.456 43.216 170.896 42.904C171.344 42.584 172.028 42.424 172.948 42.424H174.136V41.944C174.136 41.104 173.692 40.684 172.804 40.684C172.404 40.684 172.08 40.764 171.832 40.924C171.584 41.076 171.376 41.28 171.208 41.536L170.428 40.9C170.604 40.564 170.9 40.276 171.316 40.036C171.732 39.788 172.268 39.664 172.924 39.664C173.708 39.664 174.324 39.852 174.772 40.228C175.22 40.604 175.444 41.148 175.444 41.86V44.968H176.224V46H175.42ZM172.684 45.184C173.108 45.184 173.456 45.088 173.728 44.896C174 44.704 174.136 44.456 174.136 44.152V43.252H172.972C172.028 43.252 171.556 43.536 171.556 44.104V44.344C171.556 44.624 171.656 44.836 171.856 44.98C172.056 45.116 172.332 45.184 172.684 45.184ZM180.311 46.144C179.855 46.144 179.443 46.068 179.075 45.916C178.715 45.764 178.407 45.548 178.151 45.268C177.903 44.988 177.711 44.648 177.575 44.248C177.439 43.848 177.371 43.4 177.371 42.904C177.371 42.408 177.439 41.96 177.575 41.56C177.711 41.16 177.903 40.82 178.151 40.54C178.407 40.26 178.715 40.044 179.075 39.892C179.443 39.74 179.855 39.664 180.311 39.664C180.767 39.664 181.175 39.74 181.535 39.892C181.903 40.044 182.211 40.26 182.459 40.54C182.715 40.82 182.911 41.16 183.047 41.56C183.183 41.96 183.251 42.408 183.251 42.904C183.251 43.4 183.183 43.848 183.047 44.248C182.911 44.648 182.715 44.988 182.459 45.268C182.211 45.548 181.903 45.764 181.535 45.916C181.175 46.068 180.767 46.144 180.311 46.144ZM180.311 45.112C180.791 45.112 181.171 44.968 181.451 44.68C181.739 44.384 181.883 43.948 181.883 43.372V42.436C181.883 41.86 181.739 41.428 181.451 41.14C181.171 40.844 180.791 40.696 180.311 40.696C179.831 40.696 179.447 40.844 179.159 41.14C178.879 41.428 178.739 41.86 178.739 42.436V43.372C178.739 43.948 178.879 44.384 179.159 44.68C179.447 44.968 179.831 45.112 180.311 45.112ZM187.89 38.68C187.554 38.68 187.318 38.612 187.182 38.476C187.054 38.34 186.99 38.172 186.99 37.972V37.72C186.99 37.52 187.054 37.352 187.182 37.216C187.318 37.08 187.55 37.012 187.878 37.012C188.214 37.012 188.446 37.08 188.574 37.216C188.71 37.352 188.778 37.52 188.778 37.72V37.972C188.778 38.172 188.71 38.34 188.574 38.476C188.446 38.612 188.218 38.68 187.89 38.68ZM185.118 44.944H187.23V40.864H185.118V39.808H188.538V44.944H190.518V46H185.118V44.944ZM194.714 46.144C194.042 46.144 193.462 46.036 192.974 45.82C192.494 45.604 192.106 45.316 191.81 44.956L192.614 44.236C192.886 44.532 193.19 44.76 193.526 44.92C193.87 45.072 194.274 45.148 194.738 45.148C195.162 45.148 195.502 45.076 195.758 44.932C196.022 44.788 196.154 44.564 196.154 44.26C196.154 44.132 196.13 44.024 196.082 43.936C196.034 43.848 195.966 43.776 195.878 43.72C195.79 43.664 195.686 43.62 195.566 43.588C195.454 43.556 195.334 43.532 195.206 43.516L194.222 43.36C193.982 43.328 193.738 43.276 193.49 43.204C193.242 43.132 193.018 43.032 192.818 42.904C192.626 42.768 192.466 42.596 192.338 42.388C192.218 42.18 192.158 41.916 192.158 41.596C192.158 40.964 192.398 40.484 192.878 40.156C193.366 39.828 194.006 39.664 194.798 39.664C195.374 39.664 195.87 39.752 196.286 39.928C196.71 40.096 197.062 40.332 197.342 40.636L196.61 41.404C196.45 41.22 196.222 41.052 195.926 40.9C195.63 40.74 195.238 40.66 194.75 40.66C193.878 40.66 193.442 40.936 193.442 41.488C193.442 41.752 193.534 41.936 193.718 42.04C193.91 42.136 194.134 42.2 194.39 42.232L195.374 42.388C195.622 42.428 195.866 42.48 196.106 42.544C196.354 42.608 196.574 42.708 196.766 42.844C196.966 42.972 197.126 43.14 197.246 43.348C197.374 43.556 197.438 43.82 197.438 44.14C197.438 44.764 197.194 45.256 196.706 45.616C196.226 45.968 195.562 46.144 194.714 46.144ZM199.305 37.12H200.613V40.864H200.673C200.737 40.704 200.817 40.552 200.913 40.408C201.017 40.256 201.141 40.128 201.285 40.024C201.429 39.912 201.597 39.824 201.789 39.76C201.981 39.696 202.205 39.664 202.461 39.664C203.085 39.664 203.589 39.868 203.973 40.276C204.357 40.684 204.549 41.264 204.549 42.016V46H203.241V42.208C203.241 41.224 202.813 40.732 201.957 40.732C201.789 40.732 201.625 40.756 201.465 40.804C201.305 40.844 201.161 40.908 201.033 40.996C200.905 41.084 200.801 41.196 200.721 41.332C200.649 41.468 200.613 41.624 200.613 41.8V46H199.305V37.12ZM210.436 44.944H210.364C210.18 45.32 209.936 45.616 209.632 45.832C209.328 46.04 208.948 46.144 208.492 46.144C207.764 46.144 207.184 45.872 206.752 45.328C206.32 44.784 206.104 43.976 206.104 42.904C206.104 41.832 206.32 41.024 206.752 40.48C207.184 39.936 207.764 39.664 208.492 39.664C208.948 39.664 209.328 39.772 209.632 39.988C209.936 40.196 210.18 40.488 210.364 40.864H210.436V37.12H211.744V46H210.436V44.944ZM209.032 45.076C209.224 45.076 209.404 45.052 209.572 45.004C209.74 44.956 209.888 44.884 210.016 44.788C210.144 44.692 210.244 44.576 210.316 44.44C210.396 44.296 210.436 44.128 210.436 43.936V41.872C210.436 41.68 210.396 41.516 210.316 41.38C210.244 41.236 210.144 41.116 210.016 41.02C209.888 40.924 209.74 40.852 209.572 40.804C209.404 40.756 209.224 40.732 209.032 40.732C208.536 40.732 208.152 40.884 207.88 41.188C207.616 41.492 207.484 41.896 207.484 42.4V43.408C207.484 43.912 207.616 44.316 207.88 44.62C208.152 44.924 208.536 45.076 209.032 45.076ZM216.672 38.68C216.336 38.68 216.1 38.612 215.964 38.476C215.836 38.34 215.771 38.172 215.771 37.972V37.72C215.771 37.52 215.836 37.352 215.964 37.216C216.1 37.08 216.332 37.012 216.66 37.012C216.996 37.012 217.228 37.08 217.356 37.216C217.492 37.352 217.56 37.52 217.56 37.72V37.972C217.56 38.172 217.492 38.34 217.356 38.476C217.228 38.612 217 38.68 216.672 38.68ZM213.9 44.944H216.012V40.864H213.9V39.808H217.32V44.944H219.299V46H213.9V44.944ZM225.787 46C225.411 46 225.127 45.904 224.935 45.712C224.751 45.52 224.639 45.268 224.599 44.956H224.539C224.419 45.332 224.199 45.624 223.879 45.832C223.567 46.04 223.167 46.144 222.679 46.144C222.047 46.144 221.543 45.98 221.167 45.652C220.791 45.316 220.603 44.856 220.603 44.272C220.603 43.672 220.823 43.216 221.263 42.904C221.711 42.584 222.395 42.424 223.315 42.424H224.503V41.944C224.503 41.104 224.059 40.684 223.171 40.684C222.771 40.684 222.447 40.764 222.199 40.924C221.951 41.076 221.743 41.28 221.575 41.536L220.795 40.9C220.971 40.564 221.267 40.276 221.683 40.036C222.099 39.788 222.635 39.664 223.291 39.664C224.075 39.664 224.691 39.852 225.139 40.228C225.587 40.604 225.811 41.148 225.811 41.86V44.968H226.591V46H225.787ZM223.051 45.184C223.475 45.184 223.823 45.088 224.095 44.896C224.367 44.704 224.503 44.456 224.503 44.152V43.252H223.339C222.395 43.252 221.923 43.536 221.923 44.104V44.344C221.923 44.624 222.023 44.836 222.223 44.98C222.423 45.116 222.699 45.184 223.051 45.184ZM230.678 46.144C230.222 46.144 229.81 46.068 229.442 45.916C229.082 45.764 228.774 45.548 228.518 45.268C228.27 44.988 228.078 44.648 227.942 44.248C227.806 43.848 227.738 43.4 227.738 42.904C227.738 42.408 227.806 41.96 227.942 41.56C228.078 41.16 228.27 40.82 228.518 40.54C228.774 40.26 229.082 40.044 229.442 39.892C229.81 39.74 230.222 39.664 230.678 39.664C231.134 39.664 231.542 39.74 231.902 39.892C232.27 40.044 232.578 40.26 232.826 40.54C233.082 40.82 233.278 41.16 233.414 41.56C233.55 41.96 233.618 42.408 233.618 42.904C233.618 43.4 233.55 43.848 233.414 44.248C233.278 44.648 233.082 44.988 232.826 45.268C232.578 45.548 232.27 45.764 231.902 45.916C231.542 46.068 231.134 46.144 230.678 46.144ZM230.678 45.112C231.158 45.112 231.538 44.968 231.818 44.68C232.106 44.384 232.25 43.948 232.25 43.372V42.436C232.25 41.86 232.106 41.428 231.818 41.14C231.538 40.844 231.158 40.696 230.678 40.696C230.198 40.696 229.814 40.844 229.526 41.14C229.246 41.428 229.106 41.86 229.106 42.436V43.372C229.106 43.948 229.246 44.384 229.526 44.68C229.814 44.968 230.198 45.112 230.678 45.112ZM235.281 37.12H236.589V40.864H236.649C236.713 40.704 236.793 40.552 236.889 40.408C236.993 40.256 237.117 40.128 237.261 40.024C237.405 39.912 237.573 39.824 237.765 39.76C237.957 39.696 238.181 39.664 238.437 39.664C239.061 39.664 239.565 39.868 239.949 40.276C240.333 40.684 240.525 41.264 240.525 42.016V46H239.217V42.208C239.217 41.224 238.789 40.732 237.933 40.732C237.765 40.732 237.601 40.756 237.441 40.804C237.281 40.844 237.137 40.908 237.009 40.996C236.881 41.084 236.777 41.196 236.697 41.332C236.625 41.468 236.589 41.624 236.589 41.8V46H235.281V37.12ZM245.453 38.68C245.117 38.68 244.881 38.612 244.745 38.476C244.617 38.34 244.553 38.172 244.553 37.972V37.72C244.553 37.52 244.617 37.352 244.745 37.216C244.881 37.08 245.113 37.012 245.441 37.012C245.777 37.012 246.009 37.08 246.137 37.216C246.273 37.352 246.341 37.52 246.341 37.72V37.972C246.341 38.172 246.273 38.34 246.137 38.476C246.009 38.612 245.781 38.68 245.453 38.68ZM242.681 44.944H244.793V40.864H242.681V39.808H246.101V44.944H248.081V46H242.681V44.944ZM252.264 46.144C251.808 46.144 251.396 46.068 251.028 45.916C250.668 45.764 250.36 45.548 250.104 45.268C249.856 44.988 249.664 44.648 249.528 44.248C249.392 43.848 249.324 43.4 249.324 42.904C249.324 42.408 249.392 41.96 249.528 41.56C249.664 41.16 249.856 40.82 250.104 40.54C250.36 40.26 250.668 40.044 251.028 39.892C251.396 39.74 251.808 39.664 252.264 39.664C252.72 39.664 253.128 39.74 253.488 39.892C253.856 40.044 254.164 40.26 254.412 40.54C254.668 40.82 254.864 41.16 255 41.56C255.136 41.96 255.204 42.408 255.204 42.904C255.204 43.4 255.136 43.848 255 44.248C254.864 44.648 254.668 44.988 254.412 45.268C254.164 45.548 253.856 45.764 253.488 45.916C253.128 46.068 252.72 46.144 252.264 46.144ZM252.264 45.112C252.744 45.112 253.124 44.968 253.404 44.68C253.692 44.384 253.836 43.948 253.836 43.372V42.436C253.836 41.86 253.692 41.428 253.404 41.14C253.124 40.844 252.744 40.696 252.264 40.696C251.784 40.696 251.4 40.844 251.112 41.14C250.832 41.428 250.692 41.86 250.692 42.436V43.372C250.692 43.948 250.832 44.384 251.112 44.68C251.4 44.968 251.784 45.112 252.264 45.112ZM45.904 66C45.528 66 45.244 65.904 45.052 65.712C44.868 65.52 44.756 65.268 44.716 64.956H44.656C44.536 65.332 44.316 65.624 43.996 65.832C43.684 66.04 43.284 66.144 42.796 66.144C42.164 66.144 41.66 65.98 41.284 65.652C40.908 65.316 40.72 64.856 40.72 64.272C40.72 63.672 40.94 63.216 41.38 62.904C41.828 62.584 42.512 62.424 43.432 62.424H44.62V61.944C44.62 61.104 44.176 60.684 43.288 60.684C42.888 60.684 42.564 60.764 42.316 60.924C42.068 61.076 41.86 61.28 41.692 61.536L40.912 60.9C41.088 60.564 41.384 60.276 41.8 60.036C42.216 59.788 42.752 59.664 43.408 59.664C44.192 59.664 44.808 59.852 45.256 60.228C45.704 60.604 45.928 61.148 45.928 61.86V64.968H46.708V66H45.904ZM43.168 65.184C43.592 65.184 43.94 65.088 44.212 64.896C44.484 64.704 44.62 64.456 44.62 64.152V63.252H43.456C42.512 63.252 42.04 63.536 42.04 64.104V64.344C42.04 64.624 42.14 64.836 42.34 64.98C42.54 65.116 42.816 65.184 43.168 65.184ZM50.7953 66.144C50.3393 66.144 49.9273 66.068 49.5593 65.916C49.1993 65.764 48.8913 65.548 48.6353 65.268C48.3873 64.988 48.1953 64.648 48.0593 64.248C47.9233 63.848 47.8553 63.4 47.8553 62.904C47.8553 62.408 47.9233 61.96 48.0593 61.56C48.1953 61.16 48.3873 60.82 48.6353 60.54C48.8913 60.26 49.1993 60.044 49.5593 59.892C49.9273 59.74 50.3393 59.664 50.7953 59.664C51.2513 59.664 51.6593 59.74 52.0193 59.892C52.3873 60.044 52.6953 60.26 52.9433 60.54C53.1993 60.82 53.3953 61.16 53.5313 61.56C53.6673 61.96 53.7353 62.408 53.7353 62.904C53.7353 63.4 53.6673 63.848 53.5313 64.248C53.3953 64.648 53.1993 64.988 52.9433 65.268C52.6953 65.548 52.3873 65.764 52.0193 65.916C51.6593 66.068 51.2513 66.144 50.7953 66.144ZM50.7953 65.112C51.2753 65.112 51.6553 64.968 51.9353 64.68C52.2233 64.384 52.3673 63.948 52.3673 63.372V62.436C52.3673 61.86 52.2233 61.428 51.9353 61.14C51.6553 60.844 51.2753 60.696 50.7953 60.696C50.3153 60.696 49.9313 60.844 49.6433 61.14C49.3633 61.428 49.2233 61.86 49.2233 62.436V63.372C49.2233 63.948 49.3633 64.384 49.6433 64.68C49.9313 64.968 50.3153 65.112 50.7953 65.112ZM58.3746 58.68C58.0386 58.68 57.8026 58.612 57.6666 58.476C57.5386 58.34 57.4746 58.172 57.4746 57.972V57.72C57.4746 57.52 57.5386 57.352 57.6666 57.216C57.8026 57.08 58.0346 57.012 58.3626 57.012C58.6986 57.012 58.9306 57.08 59.0586 57.216C59.1946 57.352 59.2626 57.52 59.2626 57.72V57.972C59.2626 58.172 59.1946 58.34 59.0586 58.476C58.9306 58.612 58.7026 58.68 58.3746 58.68ZM55.6026 64.944H57.7146V60.864H55.6026V59.808H59.0226V64.944H61.0026V66H55.6026V64.944ZM65.1979 66.144C64.5259 66.144 63.9459 66.036 63.4579 65.82C62.9779 65.604 62.5899 65.316 62.2939 64.956L63.0979 64.236C63.3699 64.532 63.6739 64.76 64.0099 64.92C64.3539 65.072 64.7579 65.148 65.2219 65.148C65.6459 65.148 65.9859 65.076 66.2419 64.932C66.5059 64.788 66.6379 64.564 66.6379 64.26C66.6379 64.132 66.6139 64.024 66.5659 63.936C66.5179 63.848 66.4499 63.776 66.3619 63.72C66.2739 63.664 66.1699 63.62 66.0499 63.588C65.9379 63.556 65.8179 63.532 65.6899 63.516L64.7059 63.36C64.4659 63.328 64.2219 63.276 63.9739 63.204C63.7259 63.132 63.5019 63.032 63.3019 62.904C63.1099 62.768 62.9499 62.596 62.8219 62.388C62.7019 62.18 62.6419 61.916 62.6419 61.596C62.6419 60.964 62.8819 60.484 63.3619 60.156C63.8499 59.828 64.4899 59.664 65.2819 59.664C65.8579 59.664 66.3539 59.752 66.7699 59.928C67.1939 60.096 67.5459 60.332 67.8259 60.636L67.0939 61.404C66.9339 61.22 66.7059 61.052 66.4099 60.9C66.1139 60.74 65.7219 60.66 65.2339 60.66C64.3619 60.66 63.9259 60.936 63.9259 61.488C63.9259 61.752 64.0179 61.936 64.2019 62.04C64.3939 62.136 64.6179 62.2 64.8739 62.232L65.8579 62.388C66.1059 62.428 66.3499 62.48 66.5899 62.544C66.8379 62.608 67.0579 62.708 67.2499 62.844C67.4499 62.972 67.6099 63.14 67.7299 63.348C67.8579 63.556 67.9219 63.82 67.9219 64.14C67.9219 64.764 67.6779 65.256 67.1899 65.616C66.7099 65.968 66.0459 66.144 65.1979 66.144ZM72.3813 66.144C71.9253 66.144 71.5133 66.068 71.1453 65.916C70.7853 65.764 70.4773 65.548 70.2213 65.268C69.9733 64.988 69.7813 64.648 69.6453 64.248C69.5093 63.848 69.4413 63.4 69.4413 62.904C69.4413 62.408 69.5093 61.96 69.6453 61.56C69.7813 61.16 69.9733 60.82 70.2213 60.54C70.4773 60.26 70.7853 60.044 71.1453 59.892C71.5133 59.74 71.9253 59.664 72.3813 59.664C72.8373 59.664 73.2453 59.74 73.6053 59.892C73.9733 60.044 74.2813 60.26 74.5293 60.54C74.7853 60.82 74.9813 61.16 75.1172 61.56C75.2533 61.96 75.3213 62.408 75.3213 62.904C75.3213 63.4 75.2533 63.848 75.1172 64.248C74.9813 64.648 74.7853 64.988 74.5293 65.268C74.2813 65.548 73.9733 65.764 73.6053 65.916C73.2453 66.068 72.8373 66.144 72.3813 66.144ZM72.3813 65.112C72.8613 65.112 73.2413 64.968 73.5213 64.68C73.8093 64.384 73.9533 63.948 73.9533 63.372V62.436C73.9533 61.86 73.8093 61.428 73.5213 61.14C73.2413 60.844 72.8613 60.696 72.3813 60.696C71.9013 60.696 71.5173 60.844 71.2293 61.14C70.9493 61.428 70.8093 61.86 70.8093 62.436V63.372C70.8093 63.948 70.9493 64.384 71.2293 64.68C71.5173 64.968 71.9013 65.112 72.3813 65.112ZM80.9206 64.944H80.8486C80.6646 65.32 80.4206 65.616 80.1166 65.832C79.8126 66.04 79.4326 66.144 78.9766 66.144C78.2486 66.144 77.6686 65.872 77.2366 65.328C76.8046 64.784 76.5886 63.976 76.5886 62.904C76.5886 61.832 76.8046 61.024 77.2366 60.48C77.6686 59.936 78.2486 59.664 78.9766 59.664C79.4326 59.664 79.8126 59.772 80.1166 59.988C80.4206 60.196 80.6646 60.488 80.8486 60.864H80.9206V57.12H82.2286V66H80.9206V64.944ZM79.5166 65.076C79.7086 65.076 79.8886 65.052 80.0566 65.004C80.2246 64.956 80.3726 64.884 80.5006 64.788C80.6286 64.692 80.7286 64.576 80.8006 64.44C80.8806 64.296 80.9206 64.128 80.9206 63.936V61.872C80.9206 61.68 80.8806 61.516 80.8006 61.38C80.7286 61.236 80.6286 61.116 80.5006 61.02C80.3726 60.924 80.2246 60.852 80.0566 60.804C79.8886 60.756 79.7086 60.732 79.5166 60.732C79.0206 60.732 78.6366 60.884 78.3646 61.188C78.1006 61.492 77.9686 61.896 77.9686 62.4V63.408C77.9686 63.912 78.1006 64.316 78.3646 64.62C78.6366 64.924 79.0206 65.076 79.5166 65.076ZM88.1159 64.944H88.0439C87.8599 65.32 87.6159 65.616 87.3119 65.832C87.0079 66.04 86.6279 66.144 86.1719 66.144C85.4439 66.144 84.8639 65.872 84.4319 65.328C83.9999 64.784 83.7839 63.976 83.7839 62.904C83.7839 61.832 83.9999 61.024 84.4319 60.48C84.8639 59.936 85.4439 59.664 86.1719 59.664C86.6279 59.664 87.0079 59.772 87.3119 59.988C87.6159 60.196 87.8599 60.488 88.0439 60.864H88.1159V57.12H89.4239V66H88.1159V64.944ZM86.7119 65.076C86.9039 65.076 87.0839 65.052 87.2519 65.004C87.4199 64.956 87.5679 64.884 87.6959 64.788C87.8239 64.692 87.9239 64.576 87.9959 64.44C88.0759 64.296 88.1159 64.128 88.1159 63.936V61.872C88.1159 61.68 88.0759 61.516 87.9959 61.38C87.9239 61.236 87.8239 61.116 87.6959 61.02C87.5679 60.924 87.4199 60.852 87.2519 60.804C87.0839 60.756 86.9039 60.732 86.7119 60.732C86.2159 60.732 85.8319 60.884 85.5599 61.188C85.2959 61.492 85.1639 61.896 85.1639 62.4V63.408C85.1639 63.912 85.2959 64.316 85.5599 64.62C85.8319 64.924 86.2159 65.076 86.7119 65.076ZM93.9792 66.144C93.3072 66.144 92.7272 66.036 92.2392 65.82C91.7592 65.604 91.3712 65.316 91.0752 64.956L91.8792 64.236C92.1512 64.532 92.4552 64.76 92.7912 64.92C93.1352 65.072 93.5392 65.148 94.0032 65.148C94.4272 65.148 94.7672 65.076 95.0232 64.932C95.2872 64.788 95.4192 64.564 95.4192 64.26C95.4192 64.132 95.3952 64.024 95.3472 63.936C95.2992 63.848 95.2312 63.776 95.1432 63.72C95.0552 63.664 94.9512 63.62 94.8312 63.588C94.7192 63.556 94.5992 63.532 94.4712 63.516L93.4872 63.36C93.2472 63.328 93.0032 63.276 92.7552 63.204C92.5072 63.132 92.2832 63.032 92.0832 62.904C91.8912 62.768 91.7312 62.596 91.6032 62.388C91.4832 62.18 91.4232 61.916 91.4232 61.596C91.4232 60.964 91.6632 60.484 92.1432 60.156C92.6312 59.828 93.2712 59.664 94.0632 59.664C94.6392 59.664 95.1352 59.752 95.5512 59.928C95.9752 60.096 96.3272 60.332 96.6072 60.636L95.8752 61.404C95.7152 61.22 95.4872 61.052 95.1912 60.9C94.8952 60.74 94.5032 60.66 94.0152 60.66C93.1432 60.66 92.7072 60.936 92.7072 61.488C92.7072 61.752 92.7992 61.936 92.9832 62.04C93.1752 62.136 93.3992 62.2 93.6552 62.232L94.6392 62.388C94.8872 62.428 95.1312 62.48 95.3712 62.544C95.6192 62.608 95.8392 62.708 96.0312 62.844C96.2312 62.972 96.3912 63.14 96.5112 63.348C96.6392 63.556 96.7032 63.82 96.7032 64.14C96.7032 64.764 96.4592 65.256 95.9712 65.616C95.4912 65.968 94.8272 66.144 93.9792 66.144ZM98.5705 57.12H99.8785V60.864H99.9385C100.003 60.704 100.083 60.552 100.179 60.408C100.283 60.256 100.407 60.128 100.551 60.024C100.695 59.912 100.863 59.824 101.055 59.76C101.247 59.696 101.471 59.664 101.727 59.664C102.351 59.664 102.855 59.868 103.239 60.276C103.623 60.684 103.815 61.264 103.815 62.016V66H102.507V62.208C102.507 61.224 102.079 60.732 101.223 60.732C101.055 60.732 100.891 60.756 100.73 60.804C100.571 60.844 100.427 60.908 100.299 60.996C100.171 61.084 100.067 61.196 99.9865 61.332C99.9145 61.468 99.8785 61.624 99.8785 61.8V66H98.5705V57.12ZM110.662 66C110.286 66 110.002 65.904 109.81 65.712C109.626 65.52 109.514 65.268 109.474 64.956H109.414C109.294 65.332 109.074 65.624 108.754 65.832C108.442 66.04 108.042 66.144 107.554 66.144C106.922 66.144 106.418 65.98 106.042 65.652C105.666 65.316 105.478 64.856 105.478 64.272C105.478 63.672 105.698 63.216 106.138 62.904C106.586 62.584 107.27 62.424 108.19 62.424H109.378V61.944C109.378 61.104 108.934 60.684 108.046 60.684C107.646 60.684 107.322 60.764 107.074 60.924C106.826 61.076 106.618 61.28 106.45 61.536L105.67 60.9C105.846 60.564 106.142 60.276 106.558 60.036C106.974 59.788 107.51 59.664 108.166 59.664C108.95 59.664 109.566 59.852 110.014 60.228C110.462 60.604 110.686 61.148 110.686 61.86V64.968H111.466V66H110.662ZM107.926 65.184C108.35 65.184 108.698 65.088 108.97 64.896C109.242 64.704 109.378 64.456 109.378 64.152V63.252H108.214C107.27 63.252 106.798 63.536 106.798 64.104V64.344C106.798 64.624 106.898 64.836 107.098 64.98C107.298 65.116 107.574 65.184 107.926 65.184ZM115.937 58.68C115.601 58.68 115.365 58.612 115.229 58.476C115.101 58.34 115.037 58.172 115.037 57.972V57.72C115.037 57.52 115.101 57.352 115.229 57.216C115.365 57.08 115.597 57.012 115.925 57.012C116.261 57.012 116.493 57.08 116.621 57.216C116.757 57.352 116.825 57.52 116.825 57.72V57.972C116.825 58.172 116.757 58.34 116.621 58.476C116.493 58.612 116.265 58.68 115.937 58.68ZM113.165 64.944H115.277V60.864H113.165V59.808H116.585V64.944H118.565V66H113.165V64.944ZM122.748 66.144C122.292 66.144 121.88 66.068 121.512 65.916C121.152 65.764 120.844 65.548 120.588 65.268C120.34 64.988 120.148 64.648 120.012 64.248C119.876 63.848 119.808 63.4 119.808 62.904C119.808 62.408 119.876 61.96 120.012 61.56C120.148 61.16 120.34 60.82 120.588 60.54C120.844 60.26 121.152 60.044 121.512 59.892C121.88 59.74 122.292 59.664 122.748 59.664C123.204 59.664 123.612 59.74 123.972 59.892C124.34 60.044 124.648 60.26 124.896 60.54C125.152 60.82 125.348 61.16 125.484 61.56C125.62 61.96 125.688 62.408 125.688 62.904C125.688 63.4 125.62 63.848 125.484 64.248C125.348 64.648 125.152 64.988 124.896 65.268C124.648 65.548 124.34 65.764 123.972 65.916C123.612 66.068 123.204 66.144 122.748 66.144ZM122.748 65.112C123.228 65.112 123.608 64.968 123.888 64.68C124.176 64.384 124.32 63.948 124.32 63.372V62.436C124.32 61.86 124.176 61.428 123.888 61.14C123.608 60.844 123.228 60.696 122.748 60.696C122.268 60.696 121.884 60.844 121.596 61.14C121.316 61.428 121.176 61.86 121.176 62.436V63.372C121.176 63.948 121.316 64.384 121.596 64.68C121.884 64.968 122.268 65.112 122.748 65.112ZM129.956 66.144C129.284 66.144 128.704 66.036 128.216 65.82C127.736 65.604 127.348 65.316 127.052 64.956L127.856 64.236C128.128 64.532 128.432 64.76 128.768 64.92C129.112 65.072 129.516 65.148 129.98 65.148C130.404 65.148 130.744 65.076 131 64.932C131.264 64.788 131.396 64.564 131.396 64.26C131.396 64.132 131.372 64.024 131.324 63.936C131.276 63.848 131.208 63.776 131.12 63.72C131.032 63.664 130.928 63.62 130.808 63.588C130.696 63.556 130.576 63.532 130.448 63.516L129.464 63.36C129.224 63.328 128.98 63.276 128.732 63.204C128.484 63.132 128.26 63.032 128.06 62.904C127.868 62.768 127.708 62.596 127.58 62.388C127.46 62.18 127.4 61.916 127.4 61.596C127.4 60.964 127.64 60.484 128.12 60.156C128.608 59.828 129.248 59.664 130.04 59.664C130.616 59.664 131.112 59.752 131.528 59.928C131.952 60.096 132.304 60.332 132.584 60.636L131.852 61.404C131.692 61.22 131.464 61.052 131.168 60.9C130.872 60.74 130.48 60.66 129.992 60.66C129.12 60.66 128.684 60.936 128.684 61.488C128.684 61.752 128.776 61.936 128.96 62.04C129.152 62.136 129.376 62.2 129.632 62.232L130.616 62.388C130.864 62.428 131.108 62.48 131.348 62.544C131.596 62.608 131.816 62.708 132.008 62.844C132.208 62.972 132.368 63.14 132.488 63.348C132.616 63.556 132.68 63.82 132.68 64.14C132.68 64.764 132.436 65.256 131.948 65.616C131.468 65.968 130.804 66.144 129.956 66.144ZM138.483 64.944H138.411C138.227 65.32 137.983 65.616 137.679 65.832C137.375 66.04 136.995 66.144 136.539 66.144C135.811 66.144 135.231 65.872 134.799 65.328C134.367 64.784 134.151 63.976 134.151 62.904C134.151 61.832 134.367 61.024 134.799 60.48C135.231 59.936 135.811 59.664 136.539 59.664C136.995 59.664 137.375 59.772 137.679 59.988C137.983 60.196 138.227 60.488 138.411 60.864H138.483V57.12H139.791V66H138.483V64.944ZM137.079 65.076C137.271 65.076 137.451 65.052 137.619 65.004C137.787 64.956 137.935 64.884 138.063 64.788C138.191 64.692 138.291 64.576 138.363 64.44C138.443 64.296 138.483 64.128 138.483 63.936V61.872C138.483 61.68 138.443 61.516 138.363 61.38C138.291 61.236 138.191 61.116 138.063 61.02C137.935 60.924 137.787 60.852 137.619 60.804C137.451 60.756 137.271 60.732 137.079 60.732C136.583 60.732 136.199 60.884 135.927 61.188C135.663 61.492 135.531 61.896 135.531 62.4V63.408C135.531 63.912 135.663 64.316 135.927 64.62C136.199 64.924 136.583 65.076 137.079 65.076ZM141.742 57.12H143.05V60.864H143.11C143.174 60.704 143.254 60.552 143.35 60.408C143.454 60.256 143.578 60.128 143.722 60.024C143.866 59.912 144.034 59.824 144.226 59.76C144.418 59.696 144.642 59.664 144.898 59.664C145.522 59.664 146.026 59.868 146.41 60.276C146.794 60.684 146.986 61.264 146.986 62.016V66H145.678V62.208C145.678 61.224 145.25 60.732 144.394 60.732C144.226 60.732 144.062 60.756 143.902 60.804C143.742 60.844 143.598 60.908 143.47 60.996C143.342 61.084 143.238 61.196 143.158 61.332C143.086 61.468 143.05 61.624 143.05 61.8V66H141.742V57.12ZM151.53 66.144C151.074 66.144 150.662 66.068 150.294 65.916C149.934 65.764 149.626 65.548 149.37 65.268C149.122 64.988 148.93 64.648 148.794 64.248C148.658 63.848 148.59 63.4 148.59 62.904C148.59 62.408 148.658 61.96 148.794 61.56C148.93 61.16 149.122 60.82 149.37 60.54C149.626 60.26 149.934 60.044 150.294 59.892C150.662 59.74 151.074 59.664 151.53 59.664C151.986 59.664 152.394 59.74 152.754 59.892C153.122 60.044 153.43 60.26 153.678 60.54C153.934 60.82 154.13 61.16 154.266 61.56C154.402 61.96 154.47 62.408 154.47 62.904C154.47 63.4 154.402 63.848 154.266 64.248C154.13 64.648 153.934 64.988 153.678 65.268C153.43 65.548 153.122 65.764 152.754 65.916C152.394 66.068 151.986 66.144 151.53 66.144ZM151.53 65.112C152.01 65.112 152.39 64.968 152.67 64.68C152.958 64.384 153.102 63.948 153.102 63.372V62.436C153.102 61.86 152.958 61.428 152.67 61.14C152.39 60.844 152.01 60.696 151.53 60.696C151.05 60.696 150.666 60.844 150.378 61.14C150.098 61.428 149.958 61.86 149.958 62.436V63.372C149.958 63.948 150.098 64.384 150.378 64.68C150.666 64.968 151.05 65.112 151.53 65.112ZM161.029 66C160.653 66 160.369 65.904 160.177 65.712C159.993 65.52 159.881 65.268 159.841 64.956H159.781C159.661 65.332 159.441 65.624 159.121 65.832C158.809 66.04 158.409 66.144 157.921 66.144C157.289 66.144 156.785 65.98 156.409 65.652C156.033 65.316 155.845 64.856 155.845 64.272C155.845 63.672 156.065 63.216 156.505 62.904C156.953 62.584 157.637 62.424 158.557 62.424H159.745V61.944C159.745 61.104 159.301 60.684 158.413 60.684C158.013 60.684 157.689 60.764 157.441 60.924C157.193 61.076 156.985 61.28 156.817 61.536L156.037 60.9C156.213 60.564 156.509 60.276 156.925 60.036C157.341 59.788 157.877 59.664 158.533 59.664C159.317 59.664 159.933 59.852 160.381 60.228C160.829 60.604 161.053 61.148 161.053 61.86V64.968H161.833V66H161.029ZM158.293 65.184C158.717 65.184 159.065 65.088 159.337 64.896C159.609 64.704 159.745 64.456 159.745 64.152V63.252H158.581C157.637 63.252 157.165 63.536 157.165 64.104V64.344C157.165 64.624 157.265 64.836 157.465 64.98C157.665 65.116 157.941 65.184 158.293 65.184ZM165.932 66.144C165.26 66.144 164.68 66.036 164.192 65.82C163.712 65.604 163.324 65.316 163.028 64.956L163.832 64.236C164.104 64.532 164.408 64.76 164.744 64.92C165.088 65.072 165.492 65.148 165.956 65.148C166.38 65.148 166.72 65.076 166.976 64.932C167.24 64.788 167.372 64.564 167.372 64.26C167.372 64.132 167.348 64.024 167.3 63.936C167.252 63.848 167.184 63.776 167.096 63.72C167.008 63.664 166.904 63.62 166.784 63.588C166.672 63.556 166.552 63.532 166.424 63.516L165.44 63.36C165.2 63.328 164.956 63.276 164.708 63.204C164.46 63.132 164.236 63.032 164.036 62.904C163.844 62.768 163.684 62.596 163.556 62.388C163.436 62.18 163.376 61.916 163.376 61.596C163.376 60.964 163.616 60.484 164.096 60.156C164.584 59.828 165.224 59.664 166.016 59.664C166.592 59.664 167.088 59.752 167.504 59.928C167.928 60.096 168.28 60.332 168.56 60.636L167.828 61.404C167.668 61.22 167.44 61.052 167.144 60.9C166.848 60.74 166.456 60.66 165.968 60.66C165.096 60.66 164.66 60.936 164.66 61.488C164.66 61.752 164.752 61.936 164.936 62.04C165.128 62.136 165.352 62.2 165.608 62.232L166.592 62.388C166.84 62.428 167.084 62.48 167.324 62.544C167.572 62.608 167.792 62.708 167.984 62.844C168.184 62.972 168.344 63.14 168.464 63.348C168.592 63.556 168.656 63.82 168.656 64.14C168.656 64.764 168.412 65.256 167.924 65.616C167.444 65.968 166.78 66.144 165.932 66.144ZM170.524 57.12H171.832V60.864H171.892C171.956 60.704 172.036 60.552 172.132 60.408C172.236 60.256 172.36 60.128 172.504 60.024C172.648 59.912 172.816 59.824 173.008 59.76C173.2 59.696 173.424 59.664 173.68 59.664C174.304 59.664 174.808 59.868 175.192 60.276C175.576 60.684 175.768 61.264 175.768 62.016V66H174.46V62.208C174.46 61.224 174.032 60.732 173.176 60.732C173.008 60.732 172.844 60.756 172.684 60.804C172.524 60.844 172.38 60.908 172.252 60.996C172.124 61.084 172.02 61.196 171.94 61.332C171.868 61.468 171.832 61.624 171.832 61.8V66H170.524V57.12ZM181.655 64.944H181.583C181.399 65.32 181.155 65.616 180.851 65.832C180.547 66.04 180.167 66.144 179.711 66.144C178.983 66.144 178.403 65.872 177.971 65.328C177.539 64.784 177.323 63.976 177.323 62.904C177.323 61.832 177.539 61.024 177.971 60.48C178.403 59.936 178.983 59.664 179.711 59.664C180.167 59.664 180.547 59.772 180.851 59.988C181.155 60.196 181.399 60.488 181.583 60.864H181.655V57.12H182.963V66H181.655V64.944ZM180.251 65.076C180.443 65.076 180.623 65.052 180.791 65.004C180.959 64.956 181.107 64.884 181.235 64.788C181.363 64.692 181.463 64.576 181.535 64.44C181.615 64.296 181.655 64.128 181.655 63.936V61.872C181.655 61.68 181.615 61.516 181.535 61.38C181.463 61.236 181.363 61.116 181.235 61.02C181.107 60.924 180.959 60.852 180.791 60.804C180.623 60.756 180.443 60.732 180.251 60.732C179.755 60.732 179.371 60.884 179.099 61.188C178.835 61.492 178.703 61.896 178.703 62.4V63.408C178.703 63.912 178.835 64.316 179.099 64.62C179.371 64.924 179.755 65.076 180.251 65.076ZM187.89 58.68C187.554 58.68 187.318 58.612 187.182 58.476C187.054 58.34 186.99 58.172 186.99 57.972V57.72C186.99 57.52 187.054 57.352 187.182 57.216C187.318 57.08 187.55 57.012 187.878 57.012C188.214 57.012 188.446 57.08 188.574 57.216C188.71 57.352 188.778 57.52 188.778 57.72V57.972C188.778 58.172 188.71 58.34 188.574 58.476C188.446 58.612 188.218 58.68 187.89 58.68ZM185.118 64.944H187.23V60.864H185.118V59.808H188.538V64.944H190.518V66H185.118V64.944ZM194.702 66.144C194.246 66.144 193.834 66.068 193.466 65.916C193.106 65.764 192.798 65.548 192.542 65.268C192.294 64.988 192.102 64.648 191.966 64.248C191.83 63.848 191.762 63.4 191.762 62.904C191.762 62.408 191.83 61.96 191.966 61.56C192.102 61.16 192.294 60.82 192.542 60.54C192.798 60.26 193.106 60.044 193.466 59.892C193.834 59.74 194.246 59.664 194.702 59.664C195.158 59.664 195.566 59.74 195.926 59.892C196.294 60.044 196.602 60.26 196.85 60.54C197.106 60.82 197.302 61.16 197.438 61.56C197.574 61.96 197.642 62.408 197.642 62.904C197.642 63.4 197.574 63.848 197.438 64.248C197.302 64.648 197.106 64.988 196.85 65.268C196.602 65.548 196.294 65.764 195.926 65.916C195.566 66.068 195.158 66.144 194.702 66.144ZM194.702 65.112C195.182 65.112 195.562 64.968 195.842 64.68C196.13 64.384 196.274 63.948 196.274 63.372V62.436C196.274 61.86 196.13 61.428 195.842 61.14C195.562 60.844 195.182 60.696 194.702 60.696C194.222 60.696 193.838 60.844 193.55 61.14C193.27 61.428 193.13 61.86 193.13 62.436V63.372C193.13 63.948 193.27 64.384 193.55 64.68C193.838 64.968 194.222 65.112 194.702 65.112ZM204.201 66C203.825 66 203.541 65.904 203.349 65.712C203.165 65.52 203.053 65.268 203.013 64.956H202.953C202.833 65.332 202.613 65.624 202.293 65.832C201.981 66.04 201.581 66.144 201.093 66.144C200.461 66.144 199.957 65.98 199.581 65.652C199.205 65.316 199.017 64.856 199.017 64.272C199.017 63.672 199.237 63.216 199.677 62.904C200.125 62.584 200.809 62.424 201.729 62.424H202.917V61.944C202.917 61.104 202.473 60.684 201.585 60.684C201.185 60.684 200.861 60.764 200.613 60.924C200.365 61.076 200.157 61.28 199.989 61.536L199.209 60.9C199.385 60.564 199.681 60.276 200.097 60.036C200.513 59.788 201.049 59.664 201.705 59.664C202.489 59.664 203.105 59.852 203.553 60.228C204.001 60.604 204.225 61.148 204.225 61.86V64.968H205.005V66H204.201ZM201.465 65.184C201.889 65.184 202.237 65.088 202.509 64.896C202.781 64.704 202.917 64.456 202.917 64.152V63.252H201.753C200.809 63.252 200.337 63.536 200.337 64.104V64.344C200.337 64.624 200.437 64.836 200.637 64.98C200.837 65.116 201.113 65.184 201.465 65.184ZM209.476 58.68C209.14 58.68 208.904 58.612 208.768 58.476C208.64 58.34 208.576 58.172 208.576 57.972V57.72C208.576 57.52 208.64 57.352 208.768 57.216C208.904 57.08 209.136 57.012 209.464 57.012C209.8 57.012 210.032 57.08 210.16 57.216C210.296 57.352 210.364 57.52 210.364 57.72V57.972C210.364 58.172 210.296 58.34 210.16 58.476C210.032 58.612 209.804 58.68 209.476 58.68ZM206.704 64.944H208.816V60.864H206.704V59.808H210.124V64.944H212.104V66H206.704V64.944ZM216.288 66.144C215.832 66.144 215.42 66.068 215.052 65.916C214.692 65.764 214.384 65.548 214.128 65.268C213.88 64.988 213.688 64.648 213.552 64.248C213.416 63.848 213.348 63.4 213.348 62.904C213.348 62.408 213.416 61.96 213.552 61.56C213.688 61.16 213.88 60.82 214.128 60.54C214.384 60.26 214.692 60.044 215.052 59.892C215.42 59.74 215.832 59.664 216.288 59.664C216.744 59.664 217.152 59.74 217.512 59.892C217.88 60.044 218.188 60.26 218.436 60.54C218.692 60.82 218.888 61.16 219.023 61.56C219.16 61.96 219.228 62.408 219.228 62.904C219.228 63.4 219.16 63.848 219.023 64.248C218.888 64.648 218.692 64.988 218.436 65.268C218.188 65.548 217.88 65.764 217.512 65.916C217.152 66.068 216.744 66.144 216.288 66.144ZM216.288 65.112C216.768 65.112 217.148 64.968 217.428 64.68C217.716 64.384 217.86 63.948 217.86 63.372V62.436C217.86 61.86 217.716 61.428 217.428 61.14C217.148 60.844 216.768 60.696 216.288 60.696C215.808 60.696 215.424 60.844 215.136 61.14C214.856 61.428 214.716 61.86 214.716 62.436V63.372C214.716 63.948 214.856 64.384 215.136 64.68C215.424 64.968 215.808 65.112 216.288 65.112ZM223.495 66.144C222.823 66.144 222.243 66.036 221.755 65.82C221.275 65.604 220.887 65.316 220.591 64.956L221.395 64.236C221.667 64.532 221.971 64.76 222.307 64.92C222.651 65.072 223.055 65.148 223.519 65.148C223.943 65.148 224.283 65.076 224.539 64.932C224.803 64.788 224.935 64.564 224.935 64.26C224.935 64.132 224.911 64.024 224.863 63.936C224.815 63.848 224.747 63.776 224.659 63.72C224.571 63.664 224.467 63.62 224.347 63.588C224.235 63.556 224.115 63.532 223.987 63.516L223.003 63.36C222.763 63.328 222.519 63.276 222.271 63.204C222.023 63.132 221.799 63.032 221.599 62.904C221.407 62.768 221.247 62.596 221.119 62.388C220.999 62.18 220.939 61.916 220.939 61.596C220.939 60.964 221.179 60.484 221.659 60.156C222.147 59.828 222.787 59.664 223.579 59.664C224.155 59.664 224.651 59.752 225.067 59.928C225.491 60.096 225.843 60.332 226.123 60.636L225.391 61.404C225.231 61.22 225.003 61.052 224.707 60.9C224.411 60.74 224.019 60.66 223.531 60.66C222.659 60.66 222.223 60.936 222.223 61.488C222.223 61.752 222.315 61.936 222.499 62.04C222.691 62.136 222.915 62.2 223.171 62.232L224.155 62.388C224.403 62.428 224.647 62.48 224.887 62.544C225.135 62.608 225.355 62.708 225.547 62.844C225.747 62.972 225.907 63.14 226.027 63.348C226.155 63.556 226.219 63.82 226.219 64.14C226.219 64.764 225.975 65.256 225.487 65.616C225.007 65.968 224.343 66.144 223.495 66.144ZM232.022 64.944H231.95C231.766 65.32 231.522 65.616 231.218 65.832C230.914 66.04 230.534 66.144 230.078 66.144C229.35 66.144 228.77 65.872 228.338 65.328C227.906 64.784 227.69 63.976 227.69 62.904C227.69 61.832 227.906 61.024 228.338 60.48C228.77 59.936 229.35 59.664 230.078 59.664C230.534 59.664 230.914 59.772 231.218 59.988C231.522 60.196 231.766 60.488 231.95 60.864H232.022V57.12H233.33V66H232.022V64.944ZM230.618 65.076C230.81 65.076 230.99 65.052 231.158 65.004C231.326 64.956 231.474 64.884 231.602 64.788C231.73 64.692 231.83 64.576 231.902 64.44C231.982 64.296 232.022 64.128 232.022 63.936V61.872C232.022 61.68 231.982 61.516 231.902 61.38C231.83 61.236 231.73 61.116 231.602 61.02C231.474 60.924 231.326 60.852 231.158 60.804C230.99 60.756 230.81 60.732 230.618 60.732C230.122 60.732 229.738 60.884 229.466 61.188C229.202 61.492 229.07 61.896 229.07 62.4V63.408C229.07 63.912 229.202 64.316 229.466 64.62C229.738 64.924 230.122 65.076 230.618 65.076ZM235.281 57.12H236.589V60.864H236.649C236.713 60.704 236.793 60.552 236.889 60.408C236.993 60.256 237.117 60.128 237.261 60.024C237.405 59.912 237.573 59.824 237.765 59.76C237.957 59.696 238.181 59.664 238.437 59.664C239.061 59.664 239.565 59.868 239.949 60.276C240.333 60.684 240.525 61.264 240.525 62.016V66H239.217V62.208C239.217 61.224 238.789 60.732 237.933 60.732C237.765 60.732 237.601 60.756 237.441 60.804C237.281 60.844 237.137 60.908 237.009 60.996C236.881 61.084 236.777 61.196 236.697 61.332C236.625 61.468 236.589 61.624 236.589 61.8V66H235.281V57.12Z" fill="#404968"/>
</g>
<g filter="url(#filter1_d_5504_60336)">
<rect x="24" y="102" width="24" height="24" rx="12" fill="#875BF7" shape-rendering="crispEdges"/>
<path d="M39.125 112.125C39.125 111.805 39.003 111.485 38.7589 111.241C38.5148 110.997 38.1949 110.875 37.875 110.875M37.875 115.875C39.9461 115.875 41.625 114.196 41.625 112.125C41.625 110.054 39.9461 108.375 37.875 108.375C35.8039 108.375 34.125 110.054 34.125 112.125C34.125 112.296 34.1365 112.464 34.1586 112.629C34.1951 112.901 34.2134 113.036 34.2011 113.122C34.1883 113.212 34.172 113.26 34.1279 113.339C34.0856 113.414 34.0111 113.489 33.862 113.638L30.6679 116.832C30.5598 116.94 30.5058 116.994 30.4671 117.057C30.4328 117.113 30.4076 117.174 30.3923 117.238C30.375 117.31 30.375 117.386 30.375 117.539V118.625C30.375 118.975 30.375 119.15 30.4431 119.284C30.503 119.401 30.5987 119.497 30.7163 119.557C30.85 119.625 31.025 119.625 31.375 119.625H32.875V118.375H34.125V117.125H35.375L36.362 116.138C36.5111 115.989 36.5856 115.914 36.6613 115.872C36.7402 115.828 36.7883 115.812 36.8778 115.799C36.9636 115.787 37.0993 115.805 37.3706 115.841C37.5356 115.864 37.704 115.875 37.875 115.875Z" stroke="white" stroke-width="1.5" stroke-linecap="round" stroke-linejoin="round"/>
</g>
<path d="M67.5966 120L64.3125 108.364H66.5795L68.6761 116.915H68.7841L71.0227 108.364H73.0852L75.3295 116.92H75.4318L77.5284 108.364H79.7955L76.5114 120H74.4318L72.1023 111.835H72.0114L69.6761 120H67.5966ZM81.1662 120V111.273H83.223V120H81.1662ZM82.2003 110.034C81.8745 110.034 81.5942 109.926 81.3594 109.71C81.1245 109.491 81.0071 109.227 81.0071 108.92C81.0071 108.61 81.1245 108.347 81.3594 108.131C81.5942 107.911 81.8745 107.801 82.2003 107.801C82.5298 107.801 82.8101 107.911 83.0412 108.131C83.276 108.347 83.3935 108.61 83.3935 108.92C83.3935 109.227 83.276 109.491 83.0412 109.71C82.8101 109.926 82.5298 110.034 82.2003 110.034ZM89.696 111.273V112.864H84.679V111.273H89.696ZM85.9176 109.182H87.9744V117.375C87.9744 117.652 88.0161 117.864 88.0994 118.011C88.1866 118.155 88.3002 118.254 88.4403 118.307C88.5805 118.36 88.7358 118.386 88.9062 118.386C89.035 118.386 89.1525 118.377 89.2585 118.358C89.3684 118.339 89.4517 118.322 89.5085 118.307L89.8551 119.915C89.7453 119.953 89.5881 119.994 89.3835 120.04C89.1828 120.085 88.9366 120.112 88.6449 120.119C88.1297 120.134 87.6657 120.057 87.2528 119.886C86.84 119.712 86.5123 119.443 86.2699 119.08C86.0313 118.716 85.9138 118.261 85.9176 117.716V109.182ZM93.6605 114.886V120H91.6037V108.364H93.6151V112.756H93.7173C93.9219 112.263 94.2382 111.875 94.6662 111.591C95.098 111.303 95.6473 111.159 96.3139 111.159C96.92 111.159 97.4484 111.286 97.8991 111.54C98.3499 111.794 98.6984 112.165 98.9446 112.653C99.1946 113.142 99.3196 113.739 99.3196 114.443V120H97.2628V114.761C97.2628 114.174 97.1113 113.718 96.8082 113.392C96.509 113.062 96.0885 112.898 95.5469 112.898C95.1832 112.898 94.8575 112.977 94.5696 113.136C94.2855 113.292 94.062 113.517 93.8991 113.812C93.7401 114.108 93.6605 114.466 93.6605 114.886ZM105.476 120V108.364H109.839C110.733 108.364 111.483 108.53 112.089 108.864C112.699 109.197 113.16 109.655 113.47 110.239C113.785 110.818 113.942 111.477 113.942 112.216C113.942 112.962 113.785 113.625 113.47 114.205C113.156 114.784 112.692 115.241 112.078 115.574C111.464 115.903 110.709 116.068 109.811 116.068H106.919V114.335H109.527C110.05 114.335 110.478 114.244 110.811 114.062C111.144 113.881 111.391 113.631 111.55 113.312C111.713 112.994 111.794 112.629 111.794 112.216C111.794 111.803 111.713 111.439 111.55 111.125C111.391 110.811 111.143 110.566 110.805 110.392C110.472 110.214 110.042 110.125 109.516 110.125H107.584V120H105.476ZM115.682 120V111.273H117.676V112.727H117.767C117.926 112.223 118.199 111.835 118.585 111.562C118.975 111.286 119.42 111.148 119.92 111.148C120.034 111.148 120.161 111.153 120.301 111.165C120.445 111.172 120.564 111.186 120.659 111.205V113.097C120.572 113.066 120.434 113.04 120.244 113.017C120.059 112.991 119.879 112.977 119.705 112.977C119.33 112.977 118.992 113.059 118.693 113.222C118.398 113.381 118.165 113.602 117.994 113.886C117.824 114.17 117.739 114.498 117.739 114.869V120H115.682ZM122.026 120V111.273H124.082V120H122.026ZM123.06 110.034C122.734 110.034 122.454 109.926 122.219 109.71C121.984 109.491 121.866 109.227 121.866 108.92C121.866 108.61 121.984 108.347 122.219 108.131C122.454 107.911 122.734 107.801 123.06 107.801C123.389 107.801 123.67 107.911 123.901 108.131C124.135 108.347 124.253 108.61 124.253 108.92C124.253 109.227 124.135 109.491 123.901 109.71C123.67 109.926 123.389 110.034 123.06 110.034ZM133.993 111.273L130.885 120H128.612L125.504 111.273H127.697L129.703 117.756H129.794L131.805 111.273H133.993ZM137.678 120.176C137.125 120.176 136.626 120.078 136.183 119.881C135.744 119.68 135.395 119.384 135.138 118.994C134.884 118.604 134.757 118.123 134.757 117.551C134.757 117.059 134.848 116.652 135.03 116.33C135.212 116.008 135.46 115.75 135.774 115.557C136.089 115.364 136.443 115.218 136.837 115.119C137.234 115.017 137.645 114.943 138.07 114.898C138.581 114.845 138.996 114.797 139.314 114.756C139.632 114.71 139.863 114.642 140.007 114.551C140.155 114.456 140.229 114.311 140.229 114.114V114.08C140.229 113.652 140.102 113.32 139.848 113.085C139.594 112.85 139.229 112.733 138.751 112.733C138.248 112.733 137.848 112.843 137.553 113.062C137.261 113.282 137.064 113.542 136.962 113.841L135.041 113.568C135.193 113.038 135.443 112.595 135.791 112.239C136.14 111.879 136.566 111.61 137.07 111.432C137.573 111.25 138.13 111.159 138.74 111.159C139.161 111.159 139.579 111.208 139.996 111.307C140.412 111.405 140.793 111.568 141.138 111.795C141.482 112.019 141.759 112.324 141.967 112.71C142.179 113.097 142.286 113.58 142.286 114.159V120H140.308V118.801H140.24C140.115 119.044 139.939 119.271 139.712 119.483C139.488 119.691 139.206 119.86 138.865 119.989C138.528 120.114 138.132 120.176 137.678 120.176ZM138.212 118.665C138.625 118.665 138.982 118.583 139.286 118.42C139.589 118.254 139.821 118.034 139.984 117.761C140.151 117.489 140.234 117.191 140.234 116.869V115.841C140.17 115.894 140.06 115.943 139.905 115.989C139.753 116.034 139.583 116.074 139.393 116.108C139.204 116.142 139.017 116.172 138.831 116.199C138.645 116.225 138.484 116.248 138.348 116.267C138.041 116.309 137.767 116.377 137.524 116.472C137.282 116.566 137.09 116.699 136.95 116.869C136.81 117.036 136.74 117.252 136.74 117.517C136.74 117.896 136.878 118.182 137.155 118.375C137.431 118.568 137.784 118.665 138.212 118.665ZM148.712 111.273V112.864H143.695V111.273H148.712ZM144.933 109.182H146.99V117.375C146.99 117.652 147.032 117.864 147.115 118.011C147.202 118.155 147.316 118.254 147.456 118.307C147.596 118.36 147.751 118.386 147.922 118.386C148.051 118.386 148.168 118.377 148.274 118.358C148.384 118.339 148.467 118.322 148.524 118.307L148.871 119.915C148.761 119.953 148.604 119.994 148.399 120.04C148.198 120.085 147.952 120.112 147.661 120.119C147.145 120.134 146.681 120.057 146.268 119.886C145.856 119.712 145.528 119.443 145.286 119.08C145.047 118.716 144.929 118.261 144.933 117.716V109.182ZM154.202 120.17C153.327 120.17 152.571 119.989 151.935 119.625C151.302 119.258 150.815 118.739 150.474 118.068C150.134 117.394 149.963 116.6 149.963 115.688C149.963 114.79 150.134 114.002 150.474 113.324C150.819 112.642 151.3 112.112 151.918 111.733C152.535 111.35 153.26 111.159 154.094 111.159C154.632 111.159 155.139 111.246 155.616 111.42C156.098 111.591 156.522 111.856 156.889 112.216C157.26 112.576 157.552 113.034 157.764 113.591C157.976 114.144 158.082 114.803 158.082 115.568V116.199H150.929V114.812H156.111C156.107 114.419 156.022 114.068 155.855 113.761C155.688 113.451 155.455 113.206 155.156 113.028C154.861 112.85 154.516 112.761 154.122 112.761C153.702 112.761 153.332 112.864 153.014 113.068C152.696 113.269 152.448 113.534 152.27 113.864C152.096 114.189 152.007 114.547 152.003 114.938V116.148C152.003 116.655 152.096 117.091 152.281 117.455C152.467 117.814 152.726 118.091 153.06 118.284C153.393 118.473 153.783 118.568 154.23 118.568C154.529 118.568 154.8 118.527 155.043 118.443C155.285 118.356 155.495 118.229 155.673 118.062C155.851 117.896 155.986 117.689 156.077 117.443L157.997 117.659C157.876 118.167 157.645 118.61 157.304 118.989C156.967 119.364 156.535 119.655 156.009 119.864C155.482 120.068 154.88 120.17 154.202 120.17ZM163.882 120V108.364H165.99V113.71H166.132L170.672 108.364H173.246L168.746 113.585L173.286 120H170.751L167.28 115.011L165.99 116.534V120H163.882ZM177.842 120.17C176.967 120.17 176.212 119.989 175.575 119.625C174.943 119.258 174.456 118.739 174.115 118.068C173.774 117.394 173.604 116.6 173.604 115.688C173.604 114.79 173.774 114.002 174.115 113.324C174.46 112.642 174.941 112.112 175.558 111.733C176.176 111.35 176.901 111.159 177.734 111.159C178.272 111.159 178.78 111.246 179.257 111.42C179.738 111.591 180.162 111.856 180.53 112.216C180.901 112.576 181.193 113.034 181.405 113.591C181.617 114.144 181.723 114.803 181.723 115.568V116.199H174.57V114.812H179.751C179.748 114.419 179.662 114.068 179.496 113.761C179.329 113.451 179.096 113.206 178.797 113.028C178.501 112.85 178.157 112.761 177.763 112.761C177.342 112.761 176.973 112.864 176.655 113.068C176.337 113.269 176.089 113.534 175.911 113.864C175.736 114.189 175.647 114.547 175.643 114.938V116.148C175.643 116.655 175.736 117.091 175.922 117.455C176.107 117.814 176.367 118.091 176.7 118.284C177.034 118.473 177.424 118.568 177.871 118.568C178.17 118.568 178.441 118.527 178.683 118.443C178.926 118.356 179.136 118.229 179.314 118.062C179.492 117.896 179.626 117.689 179.717 117.443L181.638 117.659C181.517 118.167 181.286 118.61 180.945 118.989C180.607 119.364 180.176 119.655 179.649 119.864C179.123 120.068 178.52 120.17 177.842 120.17ZM184.491 123.273C184.211 123.273 183.952 123.25 183.713 123.205C183.478 123.163 183.291 123.114 183.151 123.057L183.628 121.455C183.927 121.542 184.194 121.583 184.429 121.58C184.664 121.576 184.87 121.502 185.048 121.358C185.23 121.218 185.384 120.983 185.509 120.653L185.685 120.182L182.52 111.273H184.702L186.713 117.864H186.804L188.821 111.273H191.009L187.514 121.057C187.351 121.519 187.135 121.915 186.866 122.244C186.598 122.578 186.268 122.831 185.878 123.006C185.491 123.184 185.029 123.273 184.491 123.273Z" fill="#404968"/>
</g>
<defs>
<filter id="filter0_d_5504_60336" x="-8" y="-8" width="314" height="134" filterUnits="userSpaceOnUse" color-interpolation-filters="sRGB">
<feFlood flood-opacity="0" result="BackgroundImageFix"/>
<feColorMatrix in="SourceAlpha" type="matrix" values="0 0 0 0 0 0 0 0 0 0 0 0 0 0 0 0 0 0 127 0" result="hardAlpha"/>
<feOffset dy="8"/>
<feGaussianBlur stdDeviation="16"/>
<feColorMatrix type="matrix" values="0 0 0 0 0.679861 0 0 0 0 0.688102 0 0 0 0 0.741667 0 0 0 0.15 0"/>
<feBlend mode="normal" in2="BackgroundImageFix" result="effect1_dropShadow_5504_60336"/>
<feBlend mode="normal" in="SourceGraphic" in2="effect1_dropShadow_5504_60336" result="shape"/>
</filter>
<filter id="filter1_d_5504_60336" x="0" y="78" width="84" height="84" filterUnits="userSpaceOnUse" color-interpolation-filters="sRGB">
<feFlood flood-opacity="0" result="BackgroundImageFix"/>
<feColorMatrix in="SourceAlpha" type="matrix" values="0 0 0 0 0 0 0 0 0 0 0 0 0 0 0 0 0 0 127 0" result="hardAlpha"/>
<feOffset dx="6" dy="6"/>
<feGaussianBlur stdDeviation="15"/>
<feComposite in2="hardAlpha" operator="out"/>
<feColorMatrix type="matrix" values="0 0 0 0 0.490196 0 0 0 0 0.537255 0 0 0 0 0.690196 0 0 0 0.3 0"/>
<feBlend mode="normal" in2="BackgroundImageFix" result="effect1_dropShadow_5504_60336"/>
<feBlend mode="normal" in="SourceGraphic" in2="effect1_dropShadow_5504_60336" result="shape"/>
</filter>
<clipPath id="clip0_5504_60336">
<rect width="298" height="142" rx="16" fill="white"/>
</clipPath>
</defs>
</svg>
