<svg width="16" height="16" viewBox="0 0 16 16" fill="none" xmlns="http://www.w3.org/2000/svg">
<path fill-rule="evenodd" clip-rule="evenodd" d="M7.99954 14.6969C8.54248 15.3485 9.08536 16 10.1712 16C12.6707 16 13.3927 12.6755 13.3937 10.1725C13.3937 9.08672 14.0452 8.54384 14.6968 8.00096C15.3484 7.45804 16 6.91516 16 5.8294C16 3.32911 12.6707 2.60619 10.1721 2.60619C9.08632 2.60619 8.54336 1.95465 8.00048 1.3031C7.45755 0.651548 6.91464 0 5.82882 0C3.32838 0 2.60542 3.32911 2.60542 5.82756C2.60542 6.91332 1.95407 7.4562 1.30271 7.99908C0.651357 8.542 0 9.08488 0 10.1706C0 12.6709 3.32838 13.3938 5.8279 13.3938C6.91372 13.3938 7.45663 14.0454 7.99954 14.6969ZM8 10.96C9.6348 10.96 10.96 9.6348 10.96 8C10.96 6.36524 9.6348 5.04 8 5.04C6.36524 5.04 5.04 6.36524 5.04 8C5.04 9.6348 6.36524 10.96 8 10.96Z" fill="#1F5EB2"/>
</svg>
