<svg width="32" height="32" viewBox="0 0 32 32" fill="none" xmlns="http://www.w3.org/2000/svg">
<rect width="32" height="32" rx="16" fill="#D8F5FE"/>
<g clip-path="url(#clip0_562_11655)">
<path fill-rule="evenodd" clip-rule="evenodd" d="M15.9995 22.6969C16.5425 23.3485 17.0854 24 18.1712 24C20.6707 24 21.3927 20.6755 21.3937 18.1725C21.3937 17.0867 22.0452 16.5438 22.6968 16.001C23.3484 15.458 24 14.9152 24 13.8294C24 11.3291 20.6707 10.6062 18.1721 10.6062C17.0863 10.6062 16.5434 9.95465 16.0005 9.3031C15.4576 8.65155 14.9146 8 13.8288 8C11.3284 8 10.6054 11.3291 10.6054 13.8276C10.6054 14.9133 9.95407 15.4562 9.30271 15.9991C8.65136 16.542 8 17.0849 8 18.1706C8 20.6709 11.3284 21.3938 13.8279 21.3938C14.9137 21.3938 15.4566 22.0454 15.9995 22.6969ZM16 18.96C17.6348 18.96 18.96 17.6348 18.96 16C18.96 14.3652 17.6348 13.04 16 13.04C14.3652 13.04 13.04 14.3652 13.04 16C13.04 17.6348 14.3652 18.96 16 18.96Z" fill="#1F5EB2"/>
</g>
<defs>
<clipPath id="clip0_562_11655">
<rect width="16" height="16" fill="white" transform="translate(8 8)"/>
</clipPath>
</defs>
</svg>
