<svg width="13" height="12" viewBox="0 0 13 12" fill="none" xmlns="http://www.w3.org/2000/svg">
<path d="M2.7085 7.62516C2.20373 7.62516 1.95134 7.62516 1.75226 7.5427C1.48681 7.43275 1.27591 7.22185 1.16596 6.9564C1.0835 6.75732 1.0835 6.50493 1.0835 6.00016V2.31683C1.0835 1.71011 1.0835 1.40674 1.20157 1.17501C1.30544 0.971164 1.47116 0.805435 1.67501 0.701572C1.90674 0.583496 2.21011 0.583496 2.81683 0.583496H6.50016C7.00493 0.583496 7.25732 0.583496 7.4564 0.66596C7.72185 0.775912 7.93275 0.986809 8.0427 1.25226C8.12516 1.45134 8.12516 1.70373 8.12516 2.2085M6.6085 11.4168H10.1835C10.7902 11.4168 11.0936 11.4168 11.3253 11.2988C11.5292 11.1949 11.6949 11.0292 11.7988 10.8253C11.9168 10.5936 11.9168 10.2902 11.9168 9.6835V6.1085C11.9168 5.50177 11.9168 5.19841 11.7988 4.96667C11.6949 4.76283 11.5292 4.5971 11.3253 4.49324C11.0936 4.37516 10.7902 4.37516 10.1835 4.37516H6.6085C6.00177 4.37516 5.69841 4.37516 5.46667 4.49324C5.26283 4.5971 5.0971 4.76283 4.99324 4.96667C4.87516 5.19841 4.87516 5.50177 4.87516 6.1085V9.6835C4.87516 10.2902 4.87516 10.5936 4.99324 10.8253C5.0971 11.0292 5.26283 11.1949 5.46667 11.2988C5.69841 11.4168 6.00177 11.4168 6.6085 11.4168Z" stroke-linecap="round" stroke-linejoin="round"/>
</svg>
