<svg width="24" height="24" viewBox="0 0 24 24" fill="none" xmlns="http://www.w3.org/2000/svg">
<path d="M1.5 8.7C1.5 6.17976 1.5 4.91965 1.99047 3.95704C2.4219 3.11031 3.11031 2.4219 3.95704 1.99047C4.91965 1.5 6.17976 1.5 8.7 1.5H15.3C17.8202 1.5 19.0804 1.5 20.043 1.99047C20.8897 2.4219 21.5781 3.11031 22.0095 3.95704C22.5 4.91965 22.5 6.17976 22.5 8.7V15.3C22.5 17.8202 22.5 19.0804 22.0095 20.043C21.5781 20.8897 20.8897 21.5781 20.043 22.0095C19.0804 22.5 17.8202 22.5 15.3 22.5H8.7C6.17976 22.5 4.91965 22.5 3.95704 22.0095C3.11031 21.5781 2.4219 20.8897 1.99047 20.043C1.5 19.0804 1.5 17.8202 1.5 15.3V8.7Z" fill="url(#paint0_linear_2758_25605)"/>
<path d="M18.2064 7.52C17.0711 6.56 15.7087 6.08 14.2706 6L14.0436 6.24C15.3303 6.56 16.4656 7.2 17.5252 8.08C16.2385 7.36 14.8005 6.88 13.2867 6.72C12.8326 6.64 12.4541 6.64 12 6.64C11.5459 6.64 11.1674 6.64 10.7133 6.72C9.19954 6.88 7.76147 7.36 6.47477 8.08C7.5344 7.2 8.66972 6.56 9.95642 6.24L9.72936 6C8.29128 6.08 6.9289 6.56 5.79358 7.52C4.50688 10.08 3.82569 12.96 3.75 15.92C4.88532 17.2 6.47477 18 8.13991 18C8.13991 18 8.66972 17.36 9.04817 16.8C8.06422 16.56 7.15596 16 6.55046 15.12C7.08028 15.44 7.61009 15.76 8.13991 16C8.8211 16.32 9.50229 16.48 10.1835 16.64C10.789 16.72 11.3945 16.8 12 16.8C12.6055 16.8 13.211 16.72 13.8165 16.64C14.4977 16.48 15.1789 16.32 15.8601 16C16.3899 15.76 16.9197 15.44 17.4495 15.12C16.844 16 15.9358 16.56 14.9518 16.8C15.3303 17.36 15.8601 18 15.8601 18C17.5252 18 19.1147 17.2 20.25 15.92C20.1743 12.96 19.4931 10.08 18.2064 7.52ZM9.50229 14.48C8.74541 14.48 8.06422 13.76 8.06422 12.88C8.06422 12 8.74541 11.28 9.50229 11.28C10.2592 11.28 10.9404 12 10.9404 12.88C10.9404 13.76 10.2592 14.48 9.50229 14.48ZM14.4977 14.48C13.7408 14.48 13.0596 13.76 13.0596 12.88C13.0596 12 13.7408 11.28 14.4977 11.28C15.2546 11.28 15.9358 12 15.9358 12.88C15.9358 13.76 15.2546 14.48 14.4977 14.48Z" fill="white"/>
<defs>
<linearGradient id="paint0_linear_2758_25605" x1="12" y1="1.5" x2="12" y2="22.5" gradientUnits="userSpaceOnUse">
<stop stop-color="#687EC9"/>
<stop offset="1" stop-color="#5971C3"/>
</linearGradient>
</defs>
</svg>
