<svg width="14" height="14" viewBox="0 0 14 14" fill="none" xmlns="http://www.w3.org/2000/svg">
<path d="M6.99998 11.6671H12.25M1.75 11.6671H2.72682C3.01217 11.6671 3.15485 11.6671 3.28912 11.6349C3.40816 11.6063 3.52196 11.5592 3.62635 11.4952C3.74408 11.4231 3.84497 11.3222 4.04675 11.1204L11.375 3.79212C11.8583 3.30888 11.8583 2.52537 11.375 2.04212C10.8918 1.55888 10.1083 1.55888 9.62501 2.04212L2.29674 9.37039C2.09496 9.57217 1.99407 9.67306 1.92192 9.79079C1.85795 9.89518 1.81081 10.009 1.78224 10.128C1.75 10.2623 1.75 10.405 1.75 10.6903V11.6671Z" stroke="#7D89B0" stroke-width="1.66667" stroke-linecap="round" stroke-linejoin="round"/>
</svg>
