<svg width="13" height="12" viewBox="0 0 13 12" fill="none" xmlns="http://www.w3.org/2000/svg">
    <path
        d="M11.75 4.25L11.75 0.75M11.75 0.75H8.25M11.75 0.75L7.08333 5.41667M5.33333 1.91667H4.05C3.06991 1.91667 2.57986 1.91667 2.20552 2.10741C1.87623 2.27518 1.60852 2.5429 1.44074 2.87218C1.25 3.24653 1.25 3.73657 1.25 4.71667V8.45C1.25 9.43009 1.25 9.92014 1.44074 10.2945C1.60852 10.6238 1.87623 10.8915 2.20552 11.0593C2.57986 11.25 3.06991 11.25 4.05 11.25H7.78333C8.76342 11.25 9.25347 11.25 9.62782 11.0593C9.9571 10.8915 10.2248 10.6238 10.3926 10.2945C10.5833 9.92014 10.5833 9.43009 10.5833 8.45V7.16667"
        stroke="#7d89b0" stroke-width="1.5" stroke-linecap="round" stroke-linejoin="round" />
</svg>