<svg width="24" height="24" viewBox="0 0 24 24" fill="none" xmlns="http://www.w3.org/2000/svg">
    <path
        d="M12 7H7.5C6.83696 7 6.20107 6.73661 5.73223 6.26777C5.26339 5.79893 5 5.16304 5 4.5C5 3.83696 5.26339 3.20107 5.73223 2.73223C6.20107 2.26339 6.83696 2 7.5 2C11 2 12 7 12 7ZM12 7H16.5C17.163 7 17.7989 6.73661 18.2678 6.26777C18.7366 5.79893 19 5.16304 19 4.5C19 3.83696 18.7366 3.20107 18.2678 2.73223C17.7989 2.26339 17.163 2 16.5 2C13 2 12 7 12 7ZM12 7L12 22M2 14H22M2 10.2L2 18.8C2 19.9201 2 20.4802 2.21799 20.908C2.40973 21.2843 2.71569 21.5903 3.09202 21.782C3.51984 22 4.07989 22 5.2 22L18.8 22C19.9201 22 20.4802 22 20.908 21.782C21.2843 21.5903 21.5903 21.2843 21.782 20.908C22 20.4802 22 19.9201 22 18.8V10.2C22 9.0799 22 8.51984 21.782 8.09202C21.5903 7.7157 21.2843 7.40974 20.908 7.21799C20.4802 7 19.9201 7 18.8 7L5.2 7C4.0799 7 3.51984 7 3.09202 7.21799C2.7157 7.40973 2.40973 7.71569 2.21799 8.09202C2 8.51984 2 9.07989 2 10.2Z"
        stroke-width="2" stroke-linecap="round" stroke-linejoin="round" />
</svg>