<svg width="16" height="17" viewBox="0 0 16 17" fill="none" xmlns="http://www.w3.org/2000/svg">
<path d="M11.3333 6.49996C11.3333 6.15874 11.2031 5.81753 10.9428 5.55719C10.6825 5.29684 10.3412 5.16667 10 5.16667M10 10.5C12.2091 10.5 14 8.70914 14 6.5C14 4.29086 12.2091 2.5 10 2.5C7.79086 2.5 6 4.29086 6 6.5C6 6.68245 6.01222 6.86205 6.03587 7.03802C6.07478 7.32745 6.09424 7.47217 6.08114 7.56373C6.0675 7.6591 6.05013 7.7105 6.00313 7.7946C5.958 7.87533 5.87847 7.95486 5.71942 8.11391L2.31242 11.5209C2.19712 11.6362 2.13947 11.6939 2.09824 11.7611C2.06169 11.8208 2.03475 11.8858 2.01842 11.9538C2 12.0306 2 12.1121 2 12.2752V13.4333C2 13.8067 2 13.9934 2.07266 14.136C2.13658 14.2614 2.23856 14.3634 2.36401 14.4273C2.50661 14.5 2.6933 14.5 3.06667 14.5H4.66667V13.1667H6V11.8333H7.33333L8.38609 10.7806C8.54514 10.6215 8.62467 10.542 8.7054 10.4969C8.7895 10.4499 8.8409 10.4325 8.93627 10.4189C9.02783 10.4058 9.17255 10.4252 9.46198 10.4641C9.63795 10.4878 9.81755 10.5 10 10.5Z" stroke="#F04438" stroke-width="1.5" stroke-linecap="round" stroke-linejoin="round"/>
</svg>
