<svg width="64" height="64" viewBox="0 0 64 64" fill="none" xmlns="http://www.w3.org/2000/svg">
<rect width="64" height="64" rx="24" fill="#F7F7F7"/>
<path d="M47.3489 40.8893C44.099 40.8893 41.0991 37.6344 39.5492 35.6314C37.9992 37.6344 34.9993 40.8893 31.7494 40.8893C28.4995 40.8893 25.4996 37.6344 23.9497 35.6314C22.4997 37.6344 19.4998 40.8893 16.25 40.8893C15.55 40.8893 15 40.3385 15 39.6374C15 38.9363 15.55 38.3855 16.25 38.3855C18.8499 38.3855 22.0498 34.2292 22.9497 32.7771C23.1997 32.4265 23.5997 32.1761 23.9997 32.1761C24.3997 32.1761 24.8497 32.3764 25.0497 32.7771C25.9496 34.2292 29.1495 38.3855 31.7494 38.3855C34.3494 38.3855 37.5492 34.2292 38.4492 32.7771C38.6992 32.4265 39.0992 32.1761 39.4992 32.1761C39.9492 32.1761 40.3492 32.3764 40.5491 32.7771C41.4491 34.2292 44.649 38.3855 47.2489 38.3855C47.9489 38.3855 48.4989 38.9363 48.4989 39.6374C48.4989 40.3385 48.0489 40.8893 47.3489 40.8893Z" fill="#DBDBDB"/>
<path d="M47.3489 48C44.099 48 41.0991 44.7451 39.5492 42.7421C37.9992 44.7451 34.9993 48 31.7494 48C28.4995 48 25.4996 44.7451 23.9497 42.7421C22.4997 44.7451 19.4998 48 16.25 48C15.55 48 15 47.4492 15 46.7481C15 46.0471 15.55 45.4962 16.25 45.4962C18.8499 45.4962 22.0498 41.34 22.9497 39.8878C23.1997 39.5372 23.5997 39.2869 23.9997 39.2869C24.3997 39.2869 24.8497 39.4872 25.0497 39.8878C25.9496 41.34 29.1495 45.4962 31.7494 45.4962C34.3494 45.4962 37.5492 41.34 38.4492 39.8878C38.6992 39.5372 39.0992 39.2869 39.4992 39.2869C39.9492 39.2869 40.3492 39.4872 40.5491 39.8878C41.4491 41.34 44.649 45.4962 47.2489 45.4962C47.9489 45.4962 48.4989 46.0471 48.4989 46.7481C48.4989 47.4492 48.0489 48 47.3489 48Z" fill="#DBDBDB"/>
<path d="M17.0996 35.1807C16.4996 35.1807 15.9996 34.7801 15.8496 34.1792C15.6996 33.1777 15.5996 32.1762 15.5996 31.2247C15.5996 22.2612 22.8494 15.0003 31.7991 15.0003C40.7488 14.9502 47.9985 22.2612 47.9985 31.2247C47.9985 32.2262 47.8985 33.1777 47.7485 34.1291C47.6485 34.8302 46.9986 35.2808 46.2986 35.1306C45.5986 35.0305 45.1486 34.3795 45.2986 33.6784C45.4486 32.8772 45.4986 32.0259 45.4986 31.2247C45.4986 23.6633 39.3488 17.504 31.7991 17.504C24.2493 17.504 18.0995 23.6132 18.0995 31.2247C18.0995 32.076 18.1995 32.9273 18.3495 33.7285C18.4495 34.4296 18.0495 35.0805 17.3496 35.1807C17.2496 35.1807 17.1496 35.1807 17.0996 35.1807Z" fill="#DBDBDB"/>
</svg>
