<svg width="32" height="32" viewBox="0 0 32 32" fill="none" xmlns="http://www.w3.org/2000/svg">
<rect width="32" height="32" rx="16" fill="#F9FAFB"/>
<g clip-path="url(#clip0_4740_45673)">
<path d="M21.3333 16.0007C21.3333 18.9462 18.9454 21.334 15.9999 21.334M21.3333 16.0007C21.3333 13.0551 18.9454 10.6673 15.9999 10.6673M21.3333 16.0007H10.6666M15.9999 21.334C13.0544 21.334 10.6666 18.9462 10.6666 16.0007M15.9999 21.334C17.3339 19.8735 18.0924 17.9782 18.1336 16.0007C18.0924 14.0231 17.3339 12.1278 15.9999 10.6673M15.9999 21.334C14.6659 19.8735 13.9082 17.9782 13.867 16.0007C13.9082 14.0231 14.6659 12.1278 15.9999 10.6673M10.6666 16.0007C10.6666 13.0551 13.0544 10.6673 15.9999 10.6673M11.9999 21.334C11.9999 22.0704 11.403 22.6673 10.6666 22.6673C9.93021 22.6673 9.33325 22.0704 9.33325 21.334C9.33325 20.5976 9.93021 20.0007 10.6666 20.0007C11.403 20.0007 11.9999 20.5976 11.9999 21.334ZM22.6666 21.334C22.6666 22.0704 22.0696 22.6673 21.3333 22.6673C20.5969 22.6673 19.9999 22.0704 19.9999 21.334C19.9999 20.5976 20.5969 20.0007 21.3333 20.0007C22.0696 20.0007 22.6666 20.5976 22.6666 21.334ZM11.9999 10.6673C11.9999 11.4037 11.403 12.0007 10.6666 12.0007C9.93021 12.0007 9.33325 11.4037 9.33325 10.6673C9.33325 9.93094 9.93021 9.33398 10.6666 9.33398C11.403 9.33398 11.9999 9.93094 11.9999 10.6673ZM22.6666 10.6673C22.6666 11.4037 22.0696 12.0007 21.3333 12.0007C20.5969 12.0007 19.9999 11.4037 19.9999 10.6673C19.9999 9.93094 20.5969 9.33398 21.3333 9.33398C22.0696 9.33398 22.6666 9.93094 22.6666 10.6673Z" stroke="#667085" stroke-width="1.33333" stroke-linecap="round" stroke-linejoin="round"/>
</g>
<defs>
<clipPath id="clip0_4740_45673">
<rect width="16" height="16" fill="white" transform="translate(8 8)"/>
</clipPath>
</defs>
</svg>
