<svg width="36" height="36" viewBox="0 0 36 36" fill="none" xmlns="http://www.w3.org/2000/svg">
<rect x="2" y="2" width="32" height="32" rx="16" fill="#B2E7FE"/>
<path d="M11.3335 19.6664L17.7616 22.8805C17.8491 22.9242 17.8928 22.9461 17.9387 22.9547C17.9793 22.9623 18.021 22.9623 18.0616 22.9547C18.1075 22.9461 18.1512 22.9242 18.2387 22.8805L24.6668 19.6664M11.3335 16.3331L17.7616 13.119C17.8491 13.0752 17.8928 13.0534 17.9387 13.0448C17.9793 13.0372 18.021 13.0372 18.0616 13.0448C18.1075 13.0534 18.1512 13.0752 18.2387 13.119L24.6668 16.3331L18.2387 19.5471C18.1512 19.5909 18.1075 19.6127 18.0616 19.6213C18.021 19.6289 17.9793 19.6289 17.9387 19.6213C17.8928 19.6127 17.8491 19.5909 17.7616 19.5471L11.3335 16.3331Z" stroke="#2D7ED5" stroke-width="1.33333" stroke-linecap="round" stroke-linejoin="round"/>
<rect x="2" y="2" width="32" height="32" rx="16" stroke="#E9F6FA" stroke-width="4"/>
</svg>
