<svg width="36" height="36" viewBox="0 0 36 36" fill="none" xmlns="http://www.w3.org/2000/svg">
<rect x="2" y="2" width="32" height="32" rx="16" fill="#F2F4F7"/>
<path d="M11.3335 18.0004L17.7616 21.2144C17.8491 21.2582 17.8928 21.28 17.9387 21.2886C17.9793 21.2963 18.021 21.2963 18.0616 21.2886C18.1075 21.28 18.1512 21.2582 18.2387 21.2144L24.6668 18.0004M11.3335 21.3337L17.7616 24.5478C17.8491 24.5915 17.8928 24.6134 17.9387 24.622C17.9793 24.6296 18.021 24.6296 18.0616 24.622C18.1075 24.6134 18.1512 24.5915 18.2387 24.5478L24.6668 21.3337M11.3335 14.667L17.7616 11.453C17.8491 11.4092 17.8928 11.3874 17.9387 11.3788C17.9793 11.3711 18.021 11.3711 18.0616 11.3788C18.1075 11.3874 18.1512 11.4092 18.2387 11.453L24.6668 14.667L18.2387 17.8811C18.1512 17.9248 18.1075 17.9467 18.0616 17.9553C18.021 17.9629 17.9793 17.9629 17.9387 17.9553C17.8928 17.9467 17.8491 17.9248 17.7616 17.8811L11.3335 14.667Z" stroke="black" stroke-width="2" stroke-linecap="round" stroke-linejoin="round"/>
<rect x="2" y="2" width="32" height="32" rx="16" stroke="#F9FAFB" stroke-width="4"/>
</svg>
