<svg width="20" height="20" viewBox="0 0 20 20" fill="none" xmlns="http://www.w3.org/2000/svg">
<path d="M5.41667 5.41667H5.425M14.5833 5.41667H14.5917M5.41667 14.5833H5.425M10.8333 10.8333H10.8417M14.5833 14.5833H14.5917M14.1667 17.5H17.5V14.1667M11.6667 13.75V17.5M17.5 11.6667H13.75M13 8.33333H16.1667C16.6334 8.33333 16.8667 8.33333 17.045 8.24251C17.2018 8.16261 17.3293 8.03513 17.4092 7.87833C17.5 7.70007 17.5 7.46671 17.5 7V3.83333C17.5 3.36662 17.5 3.13327 17.4092 2.95501C17.3293 2.79821 17.2018 2.67072 17.045 2.59083C16.8667 2.5 16.6334 2.5 16.1667 2.5H13C12.5333 2.5 12.2999 2.5 12.1217 2.59083C11.9649 2.67072 11.8374 2.79821 11.7575 2.95501C11.6667 3.13327 11.6667 3.36662 11.6667 3.83333V7C11.6667 7.46671 11.6667 7.70007 11.7575 7.87833C11.8374 8.03513 11.9649 8.16261 12.1217 8.24251C12.2999 8.33333 12.5333 8.33333 13 8.33333ZM3.83333 8.33333H7C7.46671 8.33333 7.70007 8.33333 7.87833 8.24251C8.03513 8.16261 8.16261 8.03513 8.24251 7.87833C8.33333 7.70007 8.33333 7.46671 8.33333 7V3.83333C8.33333 3.36662 8.33333 3.13327 8.24251 2.95501C8.16261 2.79821 8.03513 2.67072 7.87833 2.59083C7.70007 2.5 7.46671 2.5 7 2.5H3.83333C3.36662 2.5 3.13327 2.5 2.95501 2.59083C2.79821 2.67072 2.67072 2.79821 2.59083 2.95501C2.5 3.13327 2.5 3.36662 2.5 3.83333V7C2.5 7.46671 2.5 7.70007 2.59083 7.87833C2.67072 8.03513 2.79821 8.16261 2.95501 8.24251C3.13327 8.33333 3.36662 8.33333 3.83333 8.33333ZM3.83333 17.5H7C7.46671 17.5 7.70007 17.5 7.87833 17.4092C8.03513 17.3293 8.16261 17.2018 8.24251 17.045C8.33333 16.8667 8.33333 16.6334 8.33333 16.1667V13C8.33333 12.5333 8.33333 12.2999 8.24251 12.1217C8.16261 11.9649 8.03513 11.8374 7.87833 11.7575C7.70007 11.6667 7.46671 11.6667 7 11.6667H3.83333C3.36662 11.6667 3.13327 11.6667 2.95501 11.7575C2.79821 11.8374 2.67072 11.9649 2.59083 12.1217C2.5 12.2999 2.5 12.5333 2.5 13V16.1667C2.5 16.6334 2.5 16.8667 2.59083 17.045C2.67072 17.2018 2.79821 17.3293 2.95501 17.4092C3.13327 17.5 3.36662 17.5 3.83333 17.5Z" stroke="#344054" stroke-width="1.66667" stroke-linecap="round" stroke-linejoin="round"/>
</svg>
