<svg width="16" height="17" viewBox="0 0 16 17" fill="none" xmlns="http://www.w3.org/2000/svg">
<path d="M8 7.5V5.16667M8 9.83333H8.00667M4.66667 12.5V14.057C4.66667 14.4122 4.66667 14.5898 4.73949 14.6811C4.80282 14.7604 4.89885 14.8066 5.00036 14.8065C5.11708 14.8063 5.25578 14.6954 5.53317 14.4735L7.12348 13.2012C7.44834 12.9413 7.61078 12.8114 7.79166 12.719C7.95213 12.637 8.12295 12.5771 8.29948 12.5408C8.49845 12.5 8.70646 12.5 9.1225 12.5H10.8C11.9201 12.5 12.4802 12.5 12.908 12.282C13.2843 12.0903 13.5903 11.7843 13.782 11.408C14 10.9802 14 10.4201 14 9.3V5.7C14 4.57989 14 4.01984 13.782 3.59202C13.5903 3.21569 13.2843 2.90973 12.908 2.71799C12.4802 2.5 11.9201 2.5 10.8 2.5H5.2C4.0799 2.5 3.51984 2.5 3.09202 2.71799C2.71569 2.90973 2.40973 3.21569 2.21799 3.59202C2 4.01984 2 4.57989 2 5.7V9.83333C2 10.4533 2 10.7633 2.06815 11.0176C2.25308 11.7078 2.79218 12.2469 3.48236 12.4319C3.7367 12.5 4.04669 12.5 4.66667 12.5Z" stroke="#F04438" stroke-width="1.5" stroke-linecap="round" stroke-linejoin="round"/>
</svg>
