<svg width="25" height="24" viewBox="0 0 25 24" fill="none" xmlns="http://www.w3.org/2000/svg">
    <path
        d="M12.6675 15C14.3243 15 15.6675 13.6569 15.6675 12C15.6675 10.3431 14.3243 9 12.6675 9C11.0106 9 9.66748 10.3431 9.66748 12C9.66748 13.6569 11.0106 15 12.6675 15Z"
        stroke-width="2" stroke-linecap="round" stroke-linejoin="round" />
    <path
        d="M9.95657 19.3711L10.541 20.6856C10.7147 21.0768 10.9983 21.4093 11.3572 21.6426C11.7162 21.8759 12.1351 22.0001 12.5632 22C12.9913 22.0001 13.4103 21.8759 13.7692 21.6426C14.1282 21.4093 14.4117 21.0768 14.5855 20.6856L15.1699 19.3711C15.3779 18.9047 15.7279 18.5159 16.1699 18.26C16.6147 18.0034 17.1292 17.8941 17.6399 17.9478L19.0699 18.1C19.4956 18.145 19.9252 18.0656 20.3066 17.8713C20.688 17.6771 21.0049 17.3763 21.2188 17.0056C21.433 16.635 21.535 16.2103 21.5125 15.7829C21.49 15.3555 21.344 14.9438 21.0921 14.5978L20.2455 13.4344C19.944 13.0171 19.7829 12.5148 19.7855 12C19.7854 11.4866 19.948 10.9864 20.2499 10.5711L21.0966 9.40778C21.3484 9.06175 21.4945 8.65007 21.517 8.22267C21.5394 7.79528 21.4374 7.37054 21.2232 7C21.0093 6.62923 20.6925 6.32849 20.311 6.13423C19.9296 5.93997 19.5 5.86053 19.0743 5.90556L17.6443 6.05778C17.1337 6.11141 16.6191 6.00212 16.1743 5.74556C15.7315 5.48825 15.3814 5.09736 15.1743 4.62889L14.5855 3.31444C14.4117 2.92317 14.1282 2.59072 13.7692 2.3574C13.4103 2.12408 12.9913 1.99993 12.5632 2C12.1351 1.99993 11.7162 2.12408 11.3572 2.3574C10.9983 2.59072 10.7147 2.92317 10.541 3.31444L9.95657 4.62889C9.74949 5.09736 9.39944 5.48825 8.95657 5.74556C8.51178 6.00212 7.99723 6.11141 7.48657 6.05778L6.05212 5.90556C5.62645 5.86053 5.19686 5.93997 4.81544 6.13423C4.43401 6.32849 4.11714 6.62923 3.90323 7C3.68905 7.37054 3.58702 7.79528 3.6095 8.22267C3.63198 8.65007 3.77802 9.06175 4.0299 9.40778L4.87657 10.5711C5.17851 10.9864 5.3411 11.4866 5.34101 12C5.3411 12.5134 5.17851 13.0137 4.87657 13.4289L4.0299 14.5922C3.77802 14.9382 3.63198 15.3499 3.6095 15.7773C3.58702 16.2047 3.68905 16.6295 3.90323 17C4.11735 17.3706 4.43426 17.6712 4.81563 17.8654C5.197 18.0596 5.62648 18.1392 6.05212 18.0944L7.48212 17.9422C7.99279 17.8886 8.50734 17.9979 8.95212 18.2544C9.39665 18.511 9.74833 18.902 9.95657 19.3711Z"
        stroke-width="2" stroke-linecap="round" stroke-linejoin="round" />
</svg>