<svg width="16" height="17" viewBox="0 0 16 17" fill="none" xmlns="http://www.w3.org/2000/svg">
<path d="M5.72667 9.50732L10.28 12.1607M10.2733 4.84065L5.72667 7.49398M14 3.83398C14 4.93855 13.1046 5.83398 12 5.83398C10.8954 5.83398 10 4.93855 10 3.83398C10 2.72941 10.8954 1.83398 12 1.83398C13.1046 1.83398 14 2.72941 14 3.83398ZM6 8.50065C6 9.60522 5.10457 10.5007 4 10.5007C2.89543 10.5007 2 9.60522 2 8.50065C2 7.39608 2.89543 6.50065 4 6.50065C5.10457 6.50065 6 7.39608 6 8.50065ZM14 13.1673C14 14.2719 13.1046 15.1673 12 15.1673C10.8954 15.1673 10 14.2719 10 13.1673C10 12.0627 10.8954 11.1673 12 11.1673C13.1046 11.1673 14 12.0627 14 13.1673Z" stroke="#F04438" stroke-width="1.5" stroke-linecap="round" stroke-linejoin="round"/>
</svg>
