<svg width="32" height="32" viewBox="0 0 32 32" fill="none" xmlns="http://www.w3.org/2000/svg">
<rect width="32" height="32" rx="16" fill="#E9F6FA"/>
<path d="M22 11.333C22 12.4376 19.3137 13.333 16 13.333C12.6863 13.333 10 12.4376 10 11.333M22 11.333C22 10.2284 19.3137 9.33301 16 9.33301C12.6863 9.33301 10 10.2284 10 11.333M22 11.333V20.6663C22 21.773 19.3333 22.6663 16 22.6663C12.6667 22.6663 10 21.773 10 20.6663V11.333M22 15.9997C22 17.1063 19.3333 17.9997 16 17.9997C12.6667 17.9997 10 17.1063 10 15.9997" stroke="#3EA2F8" stroke-width="1.33333" stroke-linecap="round" stroke-linejoin="round"/>
</svg>
