<svg width="25" height="24" viewBox="0 0 25 24" fill="none" xmlns="http://www.w3.org/2000/svg">
<rect x="0.5" width="24" height="24" rx="12" fill="#3EA2F8"/>
<path d="M17 8.5C17 9.32843 14.9853 10 12.5 10C10.0147 10 8 9.32843 8 8.5M17 8.5C17 7.67157 14.9853 7 12.5 7C10.0147 7 8 7.67157 8 8.5M17 8.5V15.5C17 16.33 15 17 12.5 17C10 17 8 16.33 8 15.5V8.5M17 12C17 12.83 15 13.5 12.5 13.5C10 13.5 8 12.83 8 12" stroke="white" stroke-width="1.33333" stroke-linecap="round" stroke-linejoin="round"/>
</svg>
