<svg width="32" height="32" viewBox="0 0 32 32" fill="none" xmlns="http://www.w3.org/2000/svg">
<rect width="32" height="32" rx="16" fill="#E9F6FA"/>
<path d="M21.6666 12.8522L16 16.0004M16 16.0004L10.3333 12.8522M16 16.0004L16 22.3337M22 18.7061V13.2947C22 13.0663 22 12.952 21.9663 12.8502C21.9366 12.7601 21.8879 12.6773 21.8236 12.6075C21.7509 12.5286 21.651 12.4732 21.4514 12.3622L16.518 9.6215C16.329 9.51646 16.2344 9.46395 16.1343 9.44336C16.0457 9.42513 15.9543 9.42513 15.8657 9.44336C15.7656 9.46395 15.6711 9.51646 15.482 9.6215L10.5486 12.3622C10.349 12.4732 10.2491 12.5286 10.1764 12.6075C10.1121 12.6773 10.0634 12.7601 10.0337 12.8502C10 12.952 10 13.0663 10 13.2947V18.7061C10 18.9345 10 19.0487 10.0337 19.1506C10.0634 19.2407 10.1121 19.3234 10.1764 19.3932C10.2491 19.4721 10.349 19.5276 10.5486 19.6385L15.482 22.3793C15.6711 22.4843 15.7656 22.5368 15.8657 22.5574C15.9543 22.5756 16.0457 22.5756 16.1343 22.5574C16.2344 22.5368 16.329 22.4843 16.518 22.3793L21.4514 19.6385C21.651 19.5276 21.7509 19.4721 21.8236 19.3932C21.8879 19.3234 21.9366 19.2407 21.9663 19.1506C22 19.0487 22 18.9345 22 18.7061Z" stroke="#3EA2F8" stroke-width="1.33333" stroke-linecap="round" stroke-linejoin="round"/>
</svg>
