<svg width="20" height="20" viewBox="0 0 20 20" fill="none" xmlns="http://www.w3.org/2000/svg">
<g clip-path="url(#clip0_1838_17977)">
<path d="M10.0002 3.3335C15.0627 3.3335 19.1668 5.57183 19.1668 8.3335V11.6668C19.1668 14.4285 15.0627 16.6668 10.0002 16.6668C5.02766 16.6668 0.980163 14.5077 0.837663 11.8143L0.833496 11.6668V8.3335C0.833496 5.57183 4.93766 3.3335 10.0002 3.3335ZM10.0002 13.3335C6.90016 13.3335 4.1585 12.4943 2.50016 11.2085V11.6668C2.50016 13.2352 5.736 15.0002 10.0002 15.0002C14.1752 15.0002 17.3652 13.3085 17.496 11.7652L17.5002 11.6668L17.501 11.2085C15.8427 12.4935 13.101 13.3335 10.0002 13.3335ZM10.0002 5.00016C5.736 5.00016 2.50016 6.76516 2.50016 8.3335C2.50016 9.90183 5.736 11.6668 10.0002 11.6668C14.2643 11.6668 17.5002 9.90183 17.5002 8.3335C17.5002 6.76516 14.2643 5.00016 10.0002 5.00016Z" fill="white"/>
</g>
<defs>
<clipPath id="clip0_1838_17977">
<rect width="20" height="20" fill="white"/>
</clipPath>
</defs>
</svg>
