<svg width="22" height="22" viewBox="0 0 22 22" fill="none" xmlns="http://www.w3.org/2000/svg">
<path d="M5 5L7 3M7 3L5 1M7 3H5C2.79086 3 1 4.79086 1 7M17 17L15 19M15 19L17 21M15 19H17C19.2091 19 21 17.2091 21 15M9.18903 5.5C9.85509 2.91216 12.2042 1 15 1C18.3137 1 21 3.68629 21 7C21 9.79574 19.0879 12.1449 16.5001 12.811M13 15C13 18.3137 10.3137 21 7 21C3.68629 21 1 18.3137 1 15C1 11.6863 3.68629 9 7 9C10.3137 9 13 11.6863 13 15Z" stroke="#B9C0D4" stroke-width="2" stroke-linecap="round" stroke-linejoin="round"/>
</svg>
