<svg width="12" height="12" viewBox="0 0 12 12" fill="none" xmlns="http://www.w3.org/2000/svg">
    <g clip-path="url(#clip0_1960_30102)">
        <path
            d="M9.26684 2.12506C9.38081 2.40069 9.59958 2.61979 9.87504 2.73417L10.841 3.13427C11.1166 3.24845 11.3356 3.46746 11.4498 3.74311C11.564 4.01877 11.564 4.32849 11.4498 4.60415L11.05 5.56937C10.9358 5.84515 10.9356 6.15519 11.0504 6.43084L11.4495 7.39577C11.5061 7.5323 11.5352 7.67865 11.5352 7.82644C11.5353 7.97424 11.5062 8.1206 11.4496 8.25714C11.393 8.39369 11.3101 8.51775 11.2056 8.62225C11.1011 8.72674 10.977 8.80961 10.8404 8.86613L9.8752 9.26593C9.59957 9.37991 9.38048 9.59867 9.26609 9.87413L8.86599 10.84C8.75181 11.1157 8.53281 11.3347 8.25715 11.4489C7.98149 11.5631 7.67177 11.5631 7.39611 11.4489L6.43089 11.0491C6.15522 10.9352 5.84561 10.9354 5.57012 11.0497L4.6042 11.4493C4.3287 11.5632 4.01924 11.5631 3.74381 11.449C3.46838 11.3349 3.24949 11.1161 3.13523 10.8408L2.73502 9.87459C2.62105 9.59895 2.40228 9.37986 2.12682 9.26547L1.16091 8.86538C0.885369 8.75124 0.666426 8.53237 0.552203 8.25688C0.43798 7.98138 0.437825 7.6718 0.551772 7.39619L0.951581 6.43096C1.06548 6.1553 1.06525 5.84569 0.950934 5.57019L0.551699 4.60358C0.495096 4.46705 0.46595 4.32071 0.465926 4.17291C0.465902 4.02511 0.495001 3.87876 0.551561 3.74221C0.608121 3.60567 0.691032 3.4816 0.795558 3.37711C0.900083 3.27262 1.02417 3.18975 1.16074 3.13323L2.12596 2.73342C2.40136 2.61955 2.62032 2.40106 2.73479 2.12592L3.13489 1.16C3.24907 0.884343 3.46807 0.665335 3.74373 0.551154C4.01939 0.436973 4.32911 0.436973 4.60477 0.551154L5.56999 0.950963C5.84566 1.06486 6.15527 1.06463 6.43076 0.950316L7.39708 0.551774C7.6727 0.437657 7.98236 0.437681 8.25796 0.551839C8.53357 0.665997 8.75254 0.884943 8.86675 1.16053L9.26696 2.12673L9.26684 2.12506Z"
            fill="#0788F5" />
        <path fill-rule="evenodd" clip-rule="evenodd"
            d="M8.34995 4.42706C8.43011 4.30115 8.45697 4.14855 8.42462 4.00284C8.39227 3.85712 8.30336 3.73022 8.17745 3.65006C8.05153 3.5699 7.89894 3.54304 7.75322 3.57539C7.6075 3.60774 7.48061 3.69665 7.40045 3.82256L5.1977 7.28381L4.1897 6.02381C4.09651 5.90725 3.96083 5.83248 3.81251 5.81595C3.66419 5.79943 3.51538 5.8425 3.39882 5.93569C3.28226 6.02888 3.20749 6.16456 3.19096 6.31287C3.17444 6.46119 3.21751 6.61 3.3107 6.72656L4.8107 8.60156C4.8666 8.67153 4.9384 8.72713 5.02012 8.76376C5.10185 8.80038 5.19114 8.81696 5.28056 8.81212C5.36999 8.80728 5.45696 8.78115 5.53426 8.73592C5.61155 8.69069 5.67692 8.62765 5.72495 8.55206L8.34995 4.42706Z"
            fill="white" />
    </g>
    <defs>
        <clipPath id="clip0_1960_30102">
            <rect width="12" height="12" fill="white" />
        </clipPath>
    </defs>
</svg>